<svg width="40" height="40" viewBox="0 0 40 40" fill="none" xmlns="http://www.w3.org/2000/svg">
<path opacity="0.12" d="M20 34.9999C23.5362 34.9999 26.9276 33.5952 29.4281 31.0947C31.9285 28.5942 33.3333 25.2028 33.3333 21.6666C33.3333 18.1304 31.9285 14.739 29.4281 12.2385C26.9276 9.73801 23.5362 8.33325 20 8.33325C16.4637 8.33325 13.0724 9.73801 10.5719 12.2385C8.07138 14.739 6.66663 18.1304 6.66663 21.6666C6.66663 25.2028 8.07138 28.5942 10.5719 31.0947C13.0724 33.5952 16.4637 34.9999 20 34.9999Z" fill="black"/>
<path d="M8.33337 5L3.33337 10M36.6667 10L31.6667 5M10 31.6667L6.66671 35M30 31.6667L33.3334 35M20 15V21.6667L23.3334 25M20 35C23.5363 35 26.9276 33.5952 29.4281 31.0948C31.9286 28.5943 33.3334 25.2029 33.3334 21.6667C33.3334 18.1304 31.9286 14.7391 29.4281 12.2386C26.9276 9.73809 23.5363 8.33333 20 8.33333C16.4638 8.33333 13.0724 9.73809 10.572 12.2386C8.07147 14.7391 6.66671 18.1304 6.66671 21.6667C6.66671 25.2029 8.07147 28.5943 10.572 31.0948C13.0724 33.5952 16.4638 35 20 35Z" stroke="black" stroke-width="3.33333" stroke-linecap="round" stroke-linejoin="round"/>
</svg>
