<svg width="40" height="40" viewBox="0 0 40 40" fill="none" xmlns="http://www.w3.org/2000/svg">
<path opacity="0.12" d="M30 33.3333C31.5531 33.3333 32.3297 33.3333 32.9423 33.0795C33.759 32.7412 34.408 32.0923 34.7463 31.2755C35 30.663 35 29.8864 35 28.3333C35 26.7801 35 26.0035 34.7463 25.391C34.408 24.5742 33.759 23.9253 32.9423 23.587C32.3297 23.3333 31.5531 23.3333 30 23.3333L10 23.3333C8.44686 23.3333 7.67029 23.3333 7.05772 23.587C6.24096 23.9253 5.59205 24.5742 5.25373 25.391C5 26.0035 5 26.7801 5 28.3333C5 29.8864 5 30.663 5.25373 31.2755C5.59205 32.0923 6.24096 32.7412 7.05772 33.0795C7.67029 33.3333 8.44686 33.3333 10 33.3333L30 33.3333Z" fill="black"/>
<path d="M26.6667 16.6667C28.2198 16.6667 28.9964 16.6667 29.6089 16.413C30.4257 16.0747 31.0746 15.4258 31.4129 14.609C31.6667 13.9965 31.6667 13.2199 31.6667 11.6667C31.6667 10.1136 31.6667 9.33704 31.4129 8.72447C31.0746 7.90771 30.4257 7.2588 29.6089 6.92048C28.9964 6.66675 28.2198 6.66675 26.6667 6.66675L13.3333 6.66675C11.7802 6.66675 11.0036 6.66675 10.3911 6.92048C9.5743 7.2588 8.92538 7.90771 8.58707 8.72447C8.33333 9.33704 8.33333 10.1136 8.33333 11.6667C8.33333 13.2199 8.33333 13.9965 8.58707 14.609C8.92538 15.4258 9.5743 16.0747 10.3911 16.413C11.0036 16.6667 11.7802 16.6667 13.3333 16.6667L26.6667 16.6667Z" stroke="black" stroke-width="3.33333" stroke-linecap="round" stroke-linejoin="round"/>
<path d="M30 33.3334C31.5531 33.3334 32.3297 33.3334 32.9423 33.0797C33.759 32.7414 34.408 32.0925 34.7463 31.2757C35 30.6631 35 29.8866 35 28.3334C35 26.7803 35 26.0037 34.7463 25.3911C34.408 24.5744 33.759 23.9255 32.9423 23.5872C32.3297 23.3334 31.5531 23.3334 30 23.3334H10C8.44686 23.3334 7.67029 23.3334 7.05772 23.5871C6.24096 23.9255 5.59205 24.5744 5.25373 25.3911C5 26.0037 5 26.7803 5 28.3334C5 29.8866 5 30.6631 5.25373 31.2757C5.59205 32.0925 6.24096 32.7414 7.05772 33.0797C7.67029 33.3334 8.44686 33.3334 10 33.3334L30 33.3334Z" stroke="black" stroke-width="3.33333" stroke-linecap="round" stroke-linejoin="round"/>
</svg>
