<svg width="40" height="40" viewBox="0 0 40 40" fill="none" xmlns="http://www.w3.org/2000/svg">
<g opacity="0.12">
<path d="M30.8332 22.5001C34.0549 22.5001 36.6666 19.8884 36.6666 16.6667C36.6666 13.4451 34.0549 10.8334 30.8332 10.8334V22.5001Z" fill="black"/>
<path d="M16.6666 9.16675H10.8333C6.69112 9.16675 3.33325 12.5246 3.33325 16.6668C3.33325 20.8089 6.69111 24.1667 10.8332 24.1667H16.6666L16.6666 9.16675Z" fill="black"/>
</g>
<path d="M6.66659 23.3334L9.291 33.8311C9.36481 34.1263 9.40171 34.2739 9.44537 34.4028C9.87187 35.662 11.0058 36.5473 12.3308 36.6557C12.4664 36.6668 12.6186 36.6668 12.9229 36.6668C13.304 36.6668 13.4945 36.6668 13.655 36.6512C15.2416 36.4973 16.4971 35.2418 16.651 33.6552C16.6666 33.4947 16.6666 33.3042 16.6666 32.9231V9.16676M30.8333 22.5001C34.0549 22.5001 36.6666 19.8884 36.6666 16.6668C36.6666 13.4451 34.0549 10.8334 30.8333 10.8334M17.0832 9.16676H10.8333C6.69111 9.16676 3.33325 12.5246 3.33325 16.6668C3.33325 20.8089 6.69112 24.1668 10.8333 24.1668H17.0833C20.0273 24.1668 23.6287 25.7449 26.4071 27.2595C28.028 28.1431 28.8384 28.5849 29.3692 28.5199C29.8614 28.4596 30.2336 28.2386 30.5221 27.8353C30.8333 27.4003 30.8333 26.5301 30.8333 24.7896V8.5439C30.8333 6.80342 30.8333 5.93318 30.5221 5.49825C30.2336 5.09493 29.8614 4.87393 29.3692 4.81364C28.8384 4.74863 28.028 5.19043 26.4071 6.07402C23.6287 7.58862 20.0273 9.16676 17.0832 9.16676Z" stroke="black" stroke-width="3.33333" stroke-linecap="round" stroke-linejoin="round"/>
</svg>
