<svg width="40" height="40" viewBox="0 0 40 40" fill="none" xmlns="http://www.w3.org/2000/svg">
<path opacity="0.12" d="M36.6667 19.9999C36.6667 10.7952 29.2048 3.33325 20.0001 3.33325C13.8311 3.33325 8.44486 6.68491 5.56311 11.6666V28.3333C8.44486 33.3149 13.8311 36.6666 20.0001 36.6666C29.2048 36.6666 36.6667 29.2047 36.6667 19.9999Z" fill="black"/>
<path d="M5.56319 11.6666C8.44494 6.68491 13.8311 3.33325 20.0002 3.33325C29.2049 3.33325 36.6668 10.7952 36.6668 19.9999C36.6668 29.2047 29.2049 36.6666 20.0002 36.6666C13.8311 36.6666 8.44494 33.3149 5.56319 28.3333M20 26.6666L26.6667 19.9999M26.6667 19.9999L20 13.3333M26.6667 19.9999H3.33337" stroke="black" stroke-width="3.33333" stroke-linecap="round" stroke-linejoin="round"/>
</svg>
