<svg width="40" height="40" viewBox="0 0 40 40" fill="none" xmlns="http://www.w3.org/2000/svg">
<path opacity="0.12" d="M31.7852 8.21481C25.2764 1.70607 14.7237 1.70607 8.21493 8.2148C3.85277 12.577 2.41413 18.7556 3.89901 24.3158L15.6841 36.1009C21.2444 37.5858 27.423 36.1472 31.7852 31.785C38.2939 25.2763 38.2939 14.7235 31.7852 8.21481Z" fill="black"/>
<path d="M3.89901 24.3158C2.41413 18.7556 3.85277 12.577 8.21493 8.21481C14.7237 1.70607 25.2764 1.70607 31.7852 8.21481C38.2939 14.7235 38.2939 25.2763 31.7852 31.785C27.423 36.1472 21.2444 37.5858 15.6841 36.101M25.0003 25.0001V15.0001M25.0003 15.0001H15.0003M25.0003 15.0001L8.33329 31.6667" stroke="black" stroke-width="3.33333" stroke-linecap="round" stroke-linejoin="round"/>
</svg>
