<svg width="40" height="40" viewBox="0 0 40 40" fill="none" xmlns="http://www.w3.org/2000/svg">
<path opacity="0.12" d="M19.9999 36.6666C29.2047 36.6666 36.6666 29.2047 36.6666 19.9999C36.6666 10.7952 29.2047 3.33325 19.9999 3.33325C10.7952 3.33325 3.33325 10.7952 3.33325 19.9999C3.33325 29.2047 10.7952 36.6666 19.9999 36.6666Z" fill="black"/>
<path d="M26.6666 19.9999L19.9999 13.3333M19.9999 13.3333L13.3333 19.9999M19.9999 13.3333V26.6666M36.6666 19.9999C36.6666 29.2047 29.2047 36.6666 19.9999 36.6666C10.7952 36.6666 3.33325 29.2047 3.33325 19.9999C3.33325 10.7952 10.7952 3.33325 19.9999 3.33325C29.2047 3.33325 36.6666 10.7952 36.6666 19.9999Z" stroke="black" stroke-width="3.33333" stroke-linecap="round" stroke-linejoin="round"/>
</svg>
