<svg width="40" height="40" viewBox="0 0 40 40" fill="none" xmlns="http://www.w3.org/2000/svg">
<path opacity="0.12" d="M20.0008 30.8815C21.9668 29.4977 23.9656 27.8205 25.8937 25.8923C27.8216 23.9644 29.4987 21.9659 30.8823 20.0001C29.4986 18.0343 27.8215 16.0356 25.8935 14.1076C23.9654 12.1795 21.9667 10.5024 20.0008 9.11865C18.035 10.5023 16.0365 12.1793 14.1086 14.1072C12.1805 16.0354 10.5032 18.0341 9.11951 20.0001C10.5032 21.966 12.1803 23.9647 14.1084 25.8927C16.0363 27.8207 18.0349 29.4978 20.0008 30.8815Z" fill="black"/>
<path d="M20 20H20.0167M25.8926 25.8926C18.0821 33.703 9.11224 37.3965 5.85787 34.1421C2.6035 30.8878 6.29696 21.9179 14.1074 14.1074C21.9179 6.29695 30.8878 2.60349 34.1421 5.85786C37.3965 9.11223 33.703 18.0821 25.8926 25.8926ZM25.8925 14.1071C33.703 21.9176 37.3964 30.8875 34.1421 34.1418C30.8877 37.3962 21.9179 33.7027 14.1074 25.8922C6.29689 18.0818 2.60343 9.11193 5.8578 5.85756C9.11217 2.60319 18.082 6.29665 25.8925 14.1071ZM20.8333 20C20.8333 20.4602 20.4602 20.8333 20 20.8333C19.5398 20.8333 19.1667 20.4602 19.1667 20C19.1667 19.5398 19.5398 19.1667 20 19.1667C20.4602 19.1667 20.8333 19.5398 20.8333 20Z" stroke="black" stroke-width="3.33333" stroke-linecap="round" stroke-linejoin="round"/>
</svg>
