<svg width="40" height="40" viewBox="0 0 40 40" fill="none" xmlns="http://www.w3.org/2000/svg">
<path opacity="0.12" d="M28.3333 25.1506C26.1218 27.13 23.2014 28.3335 20 28.3335C16.7985 28.3335 13.8781 27.13 11.6666 25.1506V36.6669L19.5048 33.5316C19.6877 33.4584 19.7792 33.4218 19.8736 33.4074C19.9574 33.3945 20.0426 33.3945 20.1263 33.4074C20.2207 33.4218 20.3122 33.4584 20.4951 33.5316L28.3333 36.6669V25.1506Z" fill="black"/>
<path d="M11.6667 25.1504V36.6666L19.5048 33.5313C19.6877 33.4582 19.7792 33.4216 19.8737 33.4071C19.9574 33.3942 20.0426 33.3942 20.1263 33.4071C20.2208 33.4216 20.3123 33.4582 20.4952 33.5313L28.3333 36.6666V25.1504M32.5 15.8333C32.5 22.7368 26.9036 28.3333 20 28.3333C13.0964 28.3333 7.5 22.7368 7.5 15.8333C7.5 8.92969 13.0964 3.33325 20 3.33325C26.9036 3.33325 32.5 8.92969 32.5 15.8333Z" stroke="black" stroke-width="3.33333" stroke-linecap="round" stroke-linejoin="round"/>
</svg>
