<svg width="40" height="40" viewBox="0 0 40 40" fill="none" xmlns="http://www.w3.org/2000/svg">
<path opacity="0.12" d="M20 24.1666C22.3012 24.1666 24.1667 22.3011 24.1667 19.9999C24.1667 17.6987 22.3012 15.8333 20 15.8333C17.6989 15.8333 15.8334 17.6987 15.8334 19.9999C15.8334 22.3011 17.6989 24.1666 20 24.1666Z" fill="black"/>
<path d="M10 18.3334V25.0001M30 15.0001V21.6667M28.3334 6.66675C32.4146 6.66675 34.6219 7.29135 35.7202 7.77582C35.8665 7.84034 35.9396 7.8726 36.1507 8.07403C36.2772 8.19478 36.5082 8.54907 36.5676 8.71356C36.6667 8.98798 36.6667 9.13798 36.6667 9.43798V27.352C36.6667 28.8666 36.6667 29.6239 36.4396 30.0132C36.2085 30.4091 35.9857 30.5932 35.5533 30.7454C35.1281 30.895 34.27 30.7301 32.5537 30.4003C31.3523 30.1695 29.9276 30.0001 28.3334 30.0001C23.3334 30.0001 18.3334 33.3334 11.6667 33.3334C7.58553 33.3334 5.37815 32.7088 4.27985 32.2243C4.13358 32.1598 4.06045 32.1276 3.84937 31.9261C3.72285 31.8054 3.4919 31.4511 3.43249 31.2866C3.33337 31.0122 3.33337 30.8622 3.33337 30.5622L3.33337 12.6482C3.33337 11.1336 3.33337 10.3763 3.5605 9.98699C3.79154 9.59102 4.01436 9.40694 4.44681 9.25477C4.87193 9.10517 5.7301 9.27005 7.44642 9.59983C8.64774 9.83065 10.0725 10.0001 11.6667 10.0001C16.6667 10.0001 21.6667 6.66675 28.3334 6.66675ZM24.1667 20.0001C24.1667 22.3013 22.3012 24.1667 20 24.1667C17.6989 24.1667 15.8334 22.3013 15.8334 20.0001C15.8334 17.6989 17.6989 15.8334 20 15.8334C22.3012 15.8334 24.1667 17.6989 24.1667 20.0001Z" stroke="black" stroke-width="3.33333" stroke-linecap="round" stroke-linejoin="round"/>
</svg>
