<svg width="40" height="40" viewBox="0 0 40 40" fill="none" xmlns="http://www.w3.org/2000/svg">
<g opacity="0.12">
<path d="M35.1011 10.7322C36.0774 11.7085 36.0774 13.2915 35.1011 14.2678C34.1247 15.2441 32.5418 15.2441 31.5655 14.2678C30.5892 13.2915 30.5892 11.7085 31.5655 10.7322C32.5418 9.75592 34.1247 9.75592 35.1011 10.7322Z" fill="black"/>
<path d="M8.43439 15.7322C9.4107 16.7085 9.4107 18.2915 8.43439 19.2678C7.45808 20.2441 5.87517 20.2441 4.89886 19.2678C3.92255 18.2915 3.92255 16.7085 4.89886 15.7322C5.87517 14.7559 7.45808 14.7559 8.43439 15.7322Z" fill="black"/>
<path d="M21.7677 5.73223C22.744 6.70854 22.744 8.29146 21.7677 9.26777C20.7914 10.2441 19.2085 10.2441 18.2322 9.26777C17.2559 8.29146 17.2559 6.70854 18.2322 5.73223C19.2085 4.75592 20.7914 4.75592 21.7677 5.73223Z" fill="black"/>
</g>
<path d="M33.3333 33.3333V21.6667M20 33.3333V16.6667M6.66663 33.3333L6.66663 26.6667M22.3444 8.37917L30.9585 11.6095M17.9979 9.00154L8.66701 15.9997M35.1011 10.7322C36.0774 11.7085 36.0774 13.2915 35.1011 14.2678C34.1247 15.2441 32.5418 15.2441 31.5655 14.2678C30.5892 13.2915 30.5892 11.7085 31.5655 10.7322C32.5418 9.75592 34.1247 9.75592 35.1011 10.7322ZM8.43439 15.7322C9.4107 16.7085 9.4107 18.2915 8.43439 19.2678C7.45808 20.2441 5.87517 20.2441 4.89886 19.2678C3.92255 18.2915 3.92255 16.7085 4.89886 15.7322C5.87517 14.7559 7.45808 14.7559 8.43439 15.7322ZM21.7677 5.73223C22.744 6.70854 22.744 8.29146 21.7677 9.26777C20.7914 10.2441 19.2085 10.2441 18.2322 9.26777C17.2559 8.29146 17.2559 6.70854 18.2322 5.73223C19.2085 4.75592 20.7914 4.75592 21.7677 5.73223Z" stroke="black" stroke-width="3.33333" stroke-linecap="round" stroke-linejoin="round"/>
</svg>
