<svg width="40" height="40" viewBox="0 0 40 40" fill="none" xmlns="http://www.w3.org/2000/svg">
<path opacity="0.12" d="M3.33325 18C3.33325 15.1997 3.33325 13.7996 3.87822 12.73C4.35759 11.7892 5.12249 11.0243 6.0633 10.545C7.13286 10 8.53299 10 11.3333 10H23.6666C26.4668 10 27.867 10 28.9365 10.545C29.8773 11.0243 30.6423 11.7892 31.1216 12.73C31.6666 13.7996 31.6666 15.1997 31.6666 18V22C31.6666 24.8003 31.6666 26.2004 31.1216 27.27C30.6423 28.2108 29.8773 28.9757 28.9365 29.455C27.867 30 26.4668 30 23.6666 30H11.3333C8.53299 30 7.13286 30 6.0633 29.455C5.12249 28.9757 4.35759 28.2108 3.87822 27.27C3.33325 26.2004 3.33325 24.8003 3.33325 22V18Z" fill="black"/>
<path d="M15.8333 30L22.4999 20H12.4999L19.1666 10M36.6666 21.6667V18.3333M23.3333 30H23.6666C26.4668 30 27.867 30 28.9365 29.455C29.8773 28.9757 30.6423 28.2108 31.1216 27.27C31.6666 26.2004 31.6666 24.8003 31.6666 22V16.6667C31.6666 15.1167 31.6666 14.3417 31.4962 13.7059C31.0339 11.9804 29.6861 10.6327 27.9607 10.1704C27.3248 10 26.5499 10 24.9999 10M11.6666 10H11.3333C8.53299 10 7.13286 10 6.0633 10.545C5.12249 11.0243 4.35759 11.7892 3.87822 12.73C3.33325 13.7996 3.33325 15.1997 3.33325 18V23.3333C3.33325 24.8833 3.33325 25.6583 3.50362 26.2941C3.96596 28.0196 5.3137 29.3673 7.03916 29.8296C7.67499 30 8.44997 30 9.99992 30" stroke="black" stroke-width="3.33333" stroke-linecap="round" stroke-linejoin="round"/>
</svg>
