<svg width="40" height="40" viewBox="0 0 40 40" fill="none" xmlns="http://www.w3.org/2000/svg">
<path opacity="0.12" d="M3.33337 18C3.33337 15.1997 3.33337 13.7996 3.87834 12.73C4.35771 11.7892 5.12261 11.0243 6.06342 10.545C7.13298 10 8.53311 10 11.3334 10H23.6667C26.467 10 27.8671 10 28.9367 10.545C29.8775 11.0243 30.6424 11.7892 31.1217 12.73C31.6667 13.7996 31.6667 15.1997 31.6667 18V22C31.6667 24.8003 31.6667 26.2004 31.1217 27.27C30.6424 28.2108 29.8775 28.9757 28.9367 29.455C27.8671 30 26.467 30 23.6667 30H11.3334C8.53311 30 7.13298 30 6.06342 29.455C5.12261 28.9757 4.35771 28.2108 3.87834 27.27C3.33337 26.2004 3.33337 24.8003 3.33337 22V18Z" fill="black"/>
<path d="M10.8334 16.6667V23.3333M17.5 16.6667V23.3333M36.6667 21.6667V18.3333M11.3334 30H23.6667C26.467 30 27.8671 30 28.9367 29.455C29.8775 28.9757 30.6424 28.2108 31.1217 27.27C31.6667 26.2004 31.6667 24.8003 31.6667 22V18C31.6667 15.1997 31.6667 13.7996 31.1217 12.73C30.6424 11.7892 29.8775 11.0243 28.9367 10.545C27.8671 10 26.467 10 23.6667 10H11.3334C8.53311 10 7.13298 10 6.06342 10.545C5.12261 11.0243 4.35771 11.7892 3.87834 12.73C3.33337 13.7996 3.33337 15.1997 3.33337 18V22C3.33337 24.8003 3.33337 26.2004 3.87834 27.27C4.35771 28.2108 5.12261 28.9757 6.06342 29.455C7.13298 30 8.53311 30 11.3334 30Z" stroke="black" stroke-width="3.33333" stroke-linecap="round" stroke-linejoin="round"/>
</svg>
