<svg width="40" height="40" viewBox="0 0 40 40" fill="none" xmlns="http://www.w3.org/2000/svg">
<path opacity="0.12" d="M30 13.3333C30 10.6811 28.9464 8.13755 27.0711 6.26218C25.1957 4.38682 22.6522 3.33325 20 3.33325C17.3478 3.33325 14.8043 4.38682 12.9289 6.26218C11.0536 8.13755 9.99999 10.6811 9.99999 13.3333C9.99999 18.4836 8.70077 22.0098 7.24943 24.3423C6.0252 26.3097 5.41309 27.2934 5.43553 27.5678C5.46038 27.8717 5.52476 27.9876 5.76962 28.1692C5.99076 28.3333 6.98764 28.3333 8.98141 28.3333H31.0186C33.0123 28.3333 34.0092 28.3333 34.2304 28.1692C34.4752 27.9876 34.5396 27.8717 34.5644 27.5678C34.5869 27.2934 33.9748 26.3097 32.7506 24.3423C31.2992 22.0098 30 18.4836 30 13.3333Z" fill="black"/>
<path d="M15.5903 34.9999C16.7655 36.0372 18.3092 36.6666 20 36.6666C21.6907 36.6666 23.2345 36.0372 24.4097 34.9999M30 13.3333C30 10.6811 28.9464 8.13755 27.0711 6.26218C25.1957 4.38682 22.6522 3.33325 20 3.33325C17.3478 3.33325 14.8043 4.38682 12.9289 6.26218C11.0536 8.13755 9.99999 10.6811 9.99999 13.3333C9.99999 18.4836 8.70077 22.0098 7.24943 24.3423C6.0252 26.3097 5.41309 27.2934 5.43553 27.5678C5.46038 27.8717 5.52476 27.9876 5.76962 28.1692C5.99076 28.3333 6.98764 28.3333 8.98141 28.3333H31.0186C33.0123 28.3333 34.0092 28.3333 34.2304 28.1692C34.4752 27.9876 34.5396 27.8717 34.5644 27.5678C34.5869 27.2934 33.9748 26.3097 32.7506 24.3423C31.2992 22.0098 30 18.4836 30 13.3333Z" stroke="black" stroke-width="3.33333" stroke-linecap="round" stroke-linejoin="round"/>
</svg>
