<svg width="40" height="40" viewBox="0 0 40 40" fill="none" xmlns="http://www.w3.org/2000/svg">
<path d="M30.9514 33.3334C33.0547 33.3334 34.7614 31.6284 34.7614 29.5234V21.9051L36.6664 20.0001L34.7614 18.0951V10.4767C34.7614 8.37175 33.0564 6.66675 30.9514 6.66675M9.04837 6.66675C6.94337 6.66675 5.23837 8.37175 5.23837 10.4767V18.0951L3.33337 20.0001L5.23837 21.9051V29.5234C5.23837 31.6284 6.94337 33.3334 9.04837 33.3334M12.5 20.0001L16.5572 24.0573C16.8872 24.3873 17.0523 24.5523 17.2425 24.6141C17.4099 24.6685 17.5902 24.6685 17.7576 24.6141C17.9478 24.5523 18.1128 24.3873 18.4429 24.0573L27.5 15.0001" stroke="black" stroke-width="3.33333" stroke-linecap="round" stroke-linejoin="round"/>
</svg>
