<svg width="40" height="40" viewBox="0 0 40 40" fill="none" xmlns="http://www.w3.org/2000/svg">
<path opacity="0.12" d="M33.3333 16.6667H6.66663V17.0001C6.66663 19.8003 6.66663 21.2005 7.21159 22.27C7.69096 23.2108 8.45586 23.9757 9.39667 24.4551C10.4662 25.0001 11.8664 25.0001 14.6666 25.0001H15.8333V32.5001C15.8333 34.8013 17.6988 36.6667 20 36.6667C22.3011 36.6667 24.1666 34.8013 24.1666 32.5001V25.0001H25.3333C28.1336 25.0001 29.5337 25.0001 30.6032 24.4551C31.5441 23.9757 32.309 23.2108 32.7883 22.27C33.3333 21.2005 33.3333 19.8003 33.3333 17.0001V16.6667Z" fill="black"/>
<path d="M33.3333 16.6666V5.99992C33.3333 5.0665 33.3333 4.59979 33.1516 4.24327C32.9918 3.92966 32.7369 3.6747 32.4233 3.51491C32.0668 3.33325 31.6 3.33325 30.6666 3.33325H9.33329C8.39987 3.33325 7.93316 3.33325 7.57664 3.51491C7.26304 3.6747 7.00807 3.92966 6.84828 4.24327C6.66663 4.59979 6.66663 5.0665 6.66663 5.99992V16.6666M33.3333 16.6666H6.66663M33.3333 16.6666V16.9999C33.3333 19.8002 33.3333 21.2003 32.7883 22.2699C32.309 23.2107 31.5441 23.9756 30.6032 24.455C29.5337 24.9999 28.1336 24.9999 25.3333 24.9999H14.6666C11.8664 24.9999 10.4662 24.9999 9.39667 24.455C8.45586 23.9756 7.69096 23.2107 7.21159 22.2699C6.66663 21.2003 6.66663 19.8002 6.66663 16.9999V16.6666M24.1666 24.9999V32.4999C24.1666 34.8011 22.3011 36.6666 20 36.6666C17.6988 36.6666 15.8333 34.8011 15.8333 32.4999V24.9999" stroke="black" stroke-width="3.33333" stroke-linecap="round" stroke-linejoin="round"/>
</svg>
