<svg width="40" height="40" viewBox="0 0 40 40" fill="none" xmlns="http://www.w3.org/2000/svg">
<path opacity="0.12" d="M5 14.6667C5 11.8665 5 10.4664 5.54497 9.3968C6.02433 8.45599 6.78924 7.69108 7.73005 7.21172C8.79961 6.66675 10.1997 6.66675 13 6.66675H27C29.8003 6.66675 31.2004 6.66675 32.27 7.21172C33.2108 7.69108 33.9757 8.45599 34.455 9.3968C35 10.4664 35 11.8665 35 14.6667V16.6667H5V14.6667Z" fill="black"/>
<path d="M35 16.6666H5M26.6667 3.33325V9.99992M13.3333 3.33325V9.99992M17.5 23.3333L20 21.6666V29.9999M17.9167 29.9999H22.0833M13 36.6666H27C29.8003 36.6666 31.2004 36.6666 32.27 36.1216C33.2108 35.6423 33.9757 34.8773 34.455 33.9365C35 32.867 35 31.4669 35 28.6666V14.6666C35 11.8663 35 10.4662 34.455 9.39663C33.9757 8.45582 33.2108 7.69092 32.27 7.21155C31.2004 6.66659 29.8003 6.66659 27 6.66659H13C10.1997 6.66659 8.79961 6.66659 7.73005 7.21155C6.78924 7.69092 6.02433 8.45582 5.54497 9.39663C5 10.4662 5 11.8663 5 14.6666V28.6666C5 31.4668 5 32.867 5.54497 33.9365C6.02433 34.8773 6.78924 35.6423 7.73005 36.1216C8.79961 36.6666 10.1997 36.6666 13 36.6666Z" stroke="black" stroke-width="3.33333" stroke-linecap="round" stroke-linejoin="round"/>
</svg>
