<svg width="40" height="40" viewBox="0 0 40 40" fill="none" xmlns="http://www.w3.org/2000/svg">
<path opacity="0.12" d="M20 27.5001C23.6819 27.5001 26.6667 24.5153 26.6667 20.8334C26.6667 17.1515 23.6819 14.1667 20 14.1667C16.3181 14.1667 13.3334 17.1515 13.3334 20.8334C13.3334 24.5153 16.3181 27.5001 20 27.5001Z" fill="black"/>
<path d="M3.33337 13.962C3.33337 13.3781 3.33337 13.0862 3.35774 12.8403C3.59271 10.4687 5.46882 8.59259 7.84039 8.35761C8.08628 8.33325 8.39397 8.33325 9.00935 8.33325C9.24646 8.33325 9.36502 8.33325 9.46568 8.32716C10.7511 8.24931 11.8766 7.43805 12.3569 6.24325C12.3946 6.14968 12.4297 6.04421 12.5 5.83325C12.5704 5.6223 12.6055 5.51682 12.6431 5.42325C13.1235 4.22846 14.249 3.41719 15.5344 3.33935C15.6351 3.33325 15.7462 3.33325 15.9686 3.33325H24.0315C24.2538 3.33325 24.365 3.33325 24.4657 3.33935C25.7511 3.41719 26.8766 4.22846 27.3569 5.42325C27.3946 5.51682 27.4297 5.6223 27.5 5.83325C27.5704 6.04421 27.6055 6.14968 27.6431 6.24325C28.1235 7.43805 29.249 8.24931 30.5344 8.32716C30.6351 8.33325 30.7536 8.33325 30.9907 8.33325C31.6061 8.33325 31.9138 8.33325 32.1597 8.35761C34.5313 8.59259 36.4074 10.4687 36.6423 12.8403C36.6667 13.0862 36.6667 13.3781 36.6667 13.962V26.9999C36.6667 29.8002 36.6667 31.2003 36.1217 32.2699C35.6424 33.2107 34.8775 33.9756 33.9367 34.455C32.8671 34.9999 31.467 34.9999 28.6667 34.9999H11.3334C8.53311 34.9999 7.13298 34.9999 6.06342 34.455C5.12261 33.9756 4.35771 33.2107 3.87834 32.2699C3.33337 31.2003 3.33337 29.8002 3.33337 26.9999V13.962Z" stroke="black" stroke-width="3.33333" stroke-linecap="round" stroke-linejoin="round"/>
<path d="M20 27.4999C23.6819 27.4999 26.6667 24.5152 26.6667 20.8333C26.6667 17.1514 23.6819 14.1666 20 14.1666C16.3181 14.1666 13.3334 17.1514 13.3334 20.8333C13.3334 24.5152 16.3181 27.4999 20 27.4999Z" stroke="black" stroke-width="3.33333" stroke-linecap="round" stroke-linejoin="round"/>
</svg>
