<svg width="40" height="40" viewBox="0 0 40 40" fill="none" xmlns="http://www.w3.org/2000/svg">
<path opacity="0.12" d="M20 26.6666C23.6819 26.6666 26.6667 23.6818 26.6667 19.9999C26.6667 16.318 23.6819 13.3333 20 13.3333C16.3181 13.3333 13.3334 16.318 13.3334 19.9999C13.3334 23.6818 16.3181 26.6666 20 26.6666Z" fill="black"/>
<path d="M36.6667 19.1666V24.3333C36.6667 28.0669 36.6667 29.9338 35.9401 31.3599C35.3009 32.6143 34.2811 33.6341 33.0266 34.2733C31.6006 34.9999 29.7337 34.9999 26 34.9999H14C10.2664 34.9999 8.39952 34.9999 6.97344 34.2733C5.71902 33.6341 4.69915 32.6143 4.06 31.3599C3.33337 29.9338 3.33337 28.0669 3.33337 24.3333V15.6666C3.33337 11.9329 3.33337 10.0661 4.06 8.63998C4.69915 7.38557 5.71902 6.3657 6.97344 5.72654C8.39952 4.99992 10.2664 4.99992 14 4.99992H20.8334M31.6667 13.3333V3.33325M26.6667 8.33325H36.6667M26.6667 19.9999C26.6667 23.6818 23.6819 26.6666 20 26.6666C16.3181 26.6666 13.3334 23.6818 13.3334 19.9999C13.3334 16.318 16.3181 13.3333 20 13.3333C23.6819 13.3333 26.6667 16.318 26.6667 19.9999Z" stroke="black" stroke-width="3.33333" stroke-linecap="round" stroke-linejoin="round"/>
</svg>
