<svg width="40" height="40" viewBox="0 0 40 40" fill="none" xmlns="http://www.w3.org/2000/svg">
<path opacity="0.12" d="M3.33337 19.9999C3.33337 29.2046 10.7953 36.6666 20 36.6666C28.6423 36.6666 35.7482 30.0888 36.5844 21.6666L18.3334 3.41553C9.91117 4.25173 3.33337 11.3577 3.33337 19.9999Z" fill="black"/>
<path d="M25.8334 5.83325V3.33325M32.3989 7.60102L34.1667 5.83325M34.1838 14.1666H36.6838M36.5844 21.6666C35.7482 30.0888 28.6423 36.6666 20 36.6666C10.7953 36.6666 3.33337 29.2047 3.33337 19.9999C3.33337 11.3577 9.91117 4.25175 18.3334 3.41554M20 13.3333H26.6667V19.9999M26.0328 13.3333C22.1089 18.8792 15.644 22.4999 8.33337 22.4999C6.66187 22.4999 5.03457 22.3106 3.47174 21.9523" stroke="black" stroke-width="3.33333" stroke-linecap="round" stroke-linejoin="round"/>
</svg>
