<svg width="40" height="40" viewBox="0 0 40 40" fill="none" xmlns="http://www.w3.org/2000/svg">
<path opacity="0.12" d="M20 36.6666C29.2048 36.6666 36.6667 29.2047 36.6667 19.9999C36.6667 10.7952 29.2048 3.33325 20 3.33325C10.7953 3.33325 3.33337 10.7952 3.33337 19.9999C3.33337 29.2047 10.7953 36.6666 20 36.6666Z" fill="black"/>
<path d="M36.6667 18.4761V20.0095C36.6647 23.6035 35.5009 27.1006 33.3489 29.9792C31.197 32.8578 28.1722 34.9636 24.7256 35.9826C21.2791 37.0017 17.5955 36.8793 14.2242 35.6338C10.8528 34.3882 7.97447 32.0863 6.01831 29.0712C4.06215 26.0562 3.13303 22.4896 3.3695 18.9033C3.60598 15.3171 4.99539 11.9033 7.33051 9.17125C9.66563 6.43916 12.8214 4.5351 16.327 3.74303C19.8327 2.95097 23.5005 3.31335 26.7834 4.77613M36.6667 6.66659L20 23.3499L15 18.3499" stroke="black" stroke-width="3.33333" stroke-linecap="round" stroke-linejoin="round"/>
</svg>
