<svg width="40" height="40" viewBox="0 0 40 40" fill="none" xmlns="http://www.w3.org/2000/svg">
<path opacity="0.12" d="M29.8353 8.33076C30.1785 9.16081 30.8373 9.82058 31.6668 10.165L34.5754 11.3699C35.4055 11.7137 36.065 12.3732 36.4088 13.2034C36.7527 14.0335 36.7527 14.9662 36.4088 15.7963L35.2049 18.7029C34.8609 19.5334 34.8604 20.467 35.206 21.2971L36.4078 24.2029C36.5783 24.6141 36.6661 25.0548 36.6661 25.4998C36.6662 25.9449 36.5786 26.3856 36.4083 26.7968C36.2379 27.208 35.9883 27.5816 35.6735 27.8963C35.3588 28.211 34.9851 28.4605 34.5738 28.6307L31.6673 29.8347C30.8373 30.1779 30.1775 30.8367 29.8331 31.6662L28.6283 34.575C28.2845 35.4051 27.625 36.0646 26.7949 36.4084C25.9648 36.7523 25.0321 36.7523 24.2021 36.4084L21.2955 35.2045C20.4654 34.8615 19.5331 34.8622 18.7035 35.2064L15.7949 36.4095C14.9652 36.7526 14.0334 36.7523 13.204 36.4087C12.3746 36.0651 11.7155 35.4064 11.3714 34.5772L10.1662 31.6676C9.82304 30.8375 9.16428 30.1778 8.33479 29.8333L5.42615 28.6285C4.59643 28.2848 3.93713 27.6257 3.59318 26.796C3.24922 25.9664 3.24875 25.0341 3.59188 24.2042L4.79581 21.2975C5.1388 20.4674 5.1381 19.535 4.79387 18.7054L3.59166 15.7946C3.42121 15.3834 3.33345 14.9427 3.33337 14.4976C3.3333 14.0526 3.42093 13.6118 3.59125 13.2006C3.76156 12.7894 4.01123 12.4158 4.32599 12.1012C4.64074 11.7865 5.01441 11.5369 5.42565 11.3668L8.3322 10.1628C9.16149 9.81987 9.82085 9.16192 10.1655 8.33335L11.3703 5.4246C11.7142 4.59449 12.3737 3.93498 13.2037 3.59113C14.0338 3.24729 14.9665 3.24729 15.7966 3.59113L18.7031 4.79511C19.5332 5.13811 20.4655 5.13741 21.2951 4.79316L24.205 3.593C25.035 3.24935 25.9674 3.24942 26.7973 3.5932C27.6273 3.93697 28.2867 4.5963 28.6305 5.42619L29.8357 8.3358L29.8353 8.33076Z" fill="black"/>
<path d="M15 19.9999L18.3334 23.3333L25.8334 15.8333M29.8353 8.33076C30.1785 9.16081 30.8373 9.82058 31.6668 10.165L34.5754 11.3699C35.4055 11.7137 36.065 12.3732 36.4088 13.2034C36.7527 14.0335 36.7527 14.9662 36.4088 15.7963L35.2049 18.7029C34.8609 19.5334 34.8604 20.467 35.206 21.2971L36.4078 24.2029C36.5783 24.6141 36.6661 25.0548 36.6661 25.4998C36.6662 25.9449 36.5786 26.3856 36.4083 26.7968C36.2379 27.208 35.9883 27.5816 35.6735 27.8963C35.3588 28.211 34.9851 28.4605 34.5738 28.6307L31.6673 29.8347C30.8373 30.1779 30.1775 30.8367 29.8331 31.6662L28.6283 34.575C28.2845 35.4051 27.625 36.0646 26.7949 36.4084C25.9648 36.7523 25.0321 36.7523 24.2021 36.4084L21.2955 35.2045C20.4654 34.8615 19.5331 34.8622 18.7035 35.2064L15.7949 36.4095C14.9652 36.7526 14.0334 36.7523 13.204 36.4087C12.3746 36.0651 11.7155 35.4064 11.3714 34.5772L10.1662 31.6676C9.82304 30.8375 9.16428 30.1778 8.33479 29.8333L5.42615 28.6285C4.59643 28.2848 3.93713 27.6257 3.59318 26.796C3.24922 25.9664 3.24875 25.0341 3.59188 24.2042L4.79581 21.2975C5.1388 20.4674 5.1381 19.535 4.79387 18.7054L3.59166 15.7946C3.42121 15.3834 3.33345 14.9427 3.33337 14.4976C3.3333 14.0526 3.42093 13.6118 3.59125 13.2006C3.76156 12.7894 4.01123 12.4158 4.32599 12.1012C4.64074 11.7865 5.01441 11.5369 5.42565 11.3668L8.3322 10.1628C9.16149 9.81987 9.82085 9.16192 10.1655 8.33335L11.3703 5.4246C11.7142 4.59449 12.3737 3.93498 13.2037 3.59113C14.0338 3.24729 14.9665 3.24729 15.7966 3.59113L18.7031 4.79511C19.5332 5.13811 20.4655 5.13741 21.2951 4.79316L24.205 3.593C25.035 3.24935 25.9674 3.24942 26.7973 3.5932C27.6273 3.93697 28.2867 4.5963 28.6305 5.42619L29.8357 8.3358L29.8353 8.33076Z" stroke="black" stroke-width="3.33333" stroke-linecap="round" stroke-linejoin="round"/>
</svg>
