<svg width="40" height="40" viewBox="0 0 40 40" fill="none" xmlns="http://www.w3.org/2000/svg">
<path opacity="0.12" d="M3.33337 13C3.33337 10.1997 3.33337 8.79961 3.87834 7.73005C4.35771 6.78924 5.12261 6.02433 6.06342 5.54497C7.13298 5 8.53311 5 11.3334 5H28.6667C31.467 5 32.8671 5 33.9367 5.54497C34.8775 6.02433 35.6424 6.78924 36.1217 7.73005C36.6667 8.79961 36.6667 10.1997 36.6667 13V13.3333H3.33337V13Z" fill="black"/>
<path d="M15 5L13.3334 13.3333M26.6667 5L25 13.3333M36.6667 13.3333H3.33337M11.3334 35H28.6667C31.467 35 32.8671 35 33.9367 34.455C34.8775 33.9757 35.6424 33.2108 36.1217 32.27C36.6667 31.2004 36.6667 29.8003 36.6667 27V13C36.6667 10.1997 36.6667 8.79961 36.1217 7.73005C35.6424 6.78924 34.8775 6.02433 33.9367 5.54497C32.8671 5 31.467 5 28.6667 5H11.3334C8.53311 5 7.13298 5 6.06342 5.54497C5.12261 6.02433 4.35771 6.78924 3.87834 7.73005C3.33337 8.79961 3.33337 10.1997 3.33337 13V27C3.33337 29.8003 3.33337 31.2004 3.87834 32.27C4.35771 33.2108 5.12261 33.9757 6.06342 34.455C7.13298 35 8.53311 35 11.3334 35Z" stroke="black" stroke-width="3.33333" stroke-linecap="round" stroke-linejoin="round"/>
</svg>
