<svg width="40" height="40" viewBox="0 0 40 40" fill="none" xmlns="http://www.w3.org/2000/svg">
<path opacity="0.12" d="M15.8334 31.6667C8.92981 31.6667 3.33337 26.0703 3.33337 19.1667C3.33337 12.2632 8.92981 6.66675 15.8334 6.66675C20.6379 6.66675 24.8093 9.37731 26.9018 13.3526C27.0995 13.3399 27.299 13.3334 27.5 13.3334C32.5627 13.3334 36.6667 17.4375 36.6667 22.5001C36.6667 27.5627 32.5627 31.6667 27.5 31.6667C23.2475 31.6667 20.204 31.6667 15.8334 31.6667Z" fill="black"/>
<path d="M15.8334 31.6667C8.92981 31.6667 3.33337 26.0703 3.33337 19.1667C3.33337 12.2632 8.92981 6.66675 15.8334 6.66675C20.6379 6.66675 24.8093 9.37731 26.9018 13.3526C27.0995 13.3399 27.299 13.3334 27.5 13.3334C32.5627 13.3334 36.6667 17.4375 36.6667 22.5001C36.6667 27.5627 32.5627 31.6667 27.5 31.6667C23.2475 31.6667 20.204 31.6667 15.8334 31.6667Z" stroke="black" stroke-width="3.33333" stroke-linecap="round" stroke-linejoin="round"/>
</svg>
