<svg width="40" height="40" viewBox="0 0 40 40" fill="none" xmlns="http://www.w3.org/2000/svg">
<path opacity="0.12" d="M28.3333 36.6667C32.9357 36.6667 36.6667 32.9357 36.6667 28.3333C36.6667 23.731 32.9357 20 28.3333 20C23.731 20 20 23.731 20 28.3333C20 32.9357 23.731 36.6667 28.3333 36.6667Z" fill="black"/>
<path d="M20 28.3333C20 32.9357 23.731 36.6667 28.3334 36.6667C32.9357 36.6667 36.6667 32.9357 36.6667 28.3333C36.6667 23.731 32.9357 20 28.3334 20C23.731 20 20 23.731 20 28.3333ZM20 28.3333C20 26.457 20.6202 24.7254 21.6667 23.3325V8.33333M20 28.3333C20 29.7089 20.3333 31.0067 20.9236 32.1502C19.5195 33.3363 16.2764 34.1667 12.5 34.1667C7.43743 34.1667 3.33337 32.6743 3.33337 30.8333V8.33333M21.6667 8.33333C21.6667 10.1743 17.5627 11.6667 12.5 11.6667C7.43743 11.6667 3.33337 10.1743 3.33337 8.33333M21.6667 8.33333C21.6667 6.49238 17.5627 5 12.5 5C7.43743 5 3.33337 6.49238 3.33337 8.33333M3.33337 23.3333C3.33337 25.1743 7.43743 26.6667 12.5 26.6667C16.1484 26.6667 19.2989 25.8916 20.7744 24.7696M21.6667 15.8333C21.6667 17.6743 17.5627 19.1667 12.5 19.1667C7.43743 19.1667 3.33337 17.6743 3.33337 15.8333" stroke="black" stroke-width="3.33333" stroke-linecap="round" stroke-linejoin="round"/>
</svg>
