<svg width="40" height="40" viewBox="0 0 40 40" fill="none" xmlns="http://www.w3.org/2000/svg">
<path opacity="0.12" d="M13.3334 36.6667C18.8562 36.6667 23.3334 32.1896 23.3334 26.6667C23.3334 21.1439 18.8562 16.6667 13.3334 16.6667C7.81053 16.6667 3.33337 21.1439 3.33337 26.6667C3.33337 32.1896 7.81053 36.6667 13.3334 36.6667Z" fill="black"/>
<path d="M10 9.99992L13.3334 6.66659M13.3334 6.66659L10 3.33325M13.3334 6.66659H10C6.31814 6.66659 3.33337 9.65135 3.33337 13.3333M30 29.9999L26.6667 33.3333M26.6667 33.3333L30 36.6666M26.6667 33.3333H30C33.6819 33.3333 36.6667 30.3485 36.6667 26.6666M16.9818 10.8333C18.0919 6.52018 22.0071 3.33325 26.6667 3.33325C32.1896 3.33325 36.6667 7.8104 36.6667 13.3333C36.6667 17.9928 33.4798 21.908 29.1668 23.0182M23.3334 26.6666C23.3334 32.1894 18.8562 36.6666 13.3334 36.6666C7.81053 36.6666 3.33337 32.1894 3.33337 26.6666C3.33337 21.1437 7.81053 16.6666 13.3334 16.6666C18.8562 16.6666 23.3334 21.1437 23.3334 26.6666Z" stroke="black" stroke-width="3.33333" stroke-linecap="round" stroke-linejoin="round"/>
</svg>
