<svg width="40" height="40" viewBox="0 0 40 40" fill="none" xmlns="http://www.w3.org/2000/svg">
<path opacity="0.12" d="M20 23.3333C25.5228 23.3333 30 18.8561 30 13.3333C30 7.8104 25.5228 3.33325 20 3.33325C14.4772 3.33325 10 7.8104 10 13.3333C10 18.8561 14.4772 23.3333 20 23.3333Z" fill="black"/>
<path d="M20 34.1203C21.7692 35.7038 24.1055 36.6666 26.6667 36.6666C32.1896 36.6666 36.6667 32.1895 36.6667 26.6666C36.6667 22.055 33.5451 18.1726 29.2997 17.0169M10.7003 17.0169C6.45493 18.1725 3.33337 22.055 3.33337 26.6666C3.33337 32.1894 7.81053 36.6666 13.3334 36.6666C18.8562 36.6666 23.3334 32.1894 23.3334 26.6666C23.3334 25.3658 23.085 24.1229 22.6331 22.983M30 13.3333C30 18.8561 25.5229 23.3333 20 23.3333C14.4772 23.3333 10 18.8561 10 13.3333C10 7.8104 14.4772 3.33325 20 3.33325C25.5229 3.33325 30 7.8104 30 13.3333Z" stroke="black" stroke-width="3.33333" stroke-linecap="round" stroke-linejoin="round"/>
</svg>
