<svg width="40" height="40" viewBox="0 0 40 40" fill="none" xmlns="http://www.w3.org/2000/svg">
<path opacity="0.12" d="M26.6666 19.9999L19.9999 13.3333L13.3333 19.9999L19.9999 26.6666L26.6666 19.9999Z" fill="black"/>
<path d="M36.6666 19.9999H33.3333M36.6666 19.9999C36.6666 29.2047 29.2047 36.6666 19.9999 36.6666M36.6666 19.9999C36.6666 10.7952 29.2047 3.33325 19.9999 3.33325M31.785 31.785L29.428 29.428M6.66659 19.9999H3.33325M3.33325 19.9999C3.33325 29.2047 10.7952 36.6666 19.9999 36.6666M3.33325 19.9999C3.33325 10.7952 10.7952 3.33325 19.9999 3.33325M10.5718 10.5718L8.21481 8.21481M19.9999 6.66659V3.33325M29.428 10.5718L31.785 8.21481M19.9999 36.6666V33.3333M8.21481 31.785L10.5718 29.428M19.9999 13.3333L26.6666 19.9999L19.9999 26.6666L13.3333 19.9999L19.9999 13.3333Z" stroke="black" stroke-width="3.33333" stroke-linecap="round" stroke-linejoin="round"/>
</svg>
