<svg width="40" height="40" viewBox="0 0 40 40" fill="none" xmlns="http://www.w3.org/2000/svg">
<path opacity="0.12" d="M3.33337 19.9999C3.33337 29.2047 10.7953 36.6666 20 36.6666V3.33325C10.7953 3.33325 3.33337 10.7952 3.33337 19.9999Z" fill="black"/>
<path d="M20 3.33325C20.9862 3.33325 21.9523 3.41889 22.8914 3.58315M20 3.33325C10.7953 3.33325 3.33337 10.7952 3.33337 19.9999C3.33337 29.2047 10.7953 36.6666 20 36.6666M20 3.33325V36.6666M29.5634 6.34826C31.1537 7.46441 32.5402 8.85141 33.6557 10.4423M36.4169 17.1093C36.5811 18.0482 36.6667 19.014 36.6667 19.9999C36.6667 20.9858 36.5811 21.9517 36.4169 22.8905M33.6486 29.5676C32.5339 31.1548 31.1494 32.5388 29.5616 33.6528M22.8881 36.4173C21.95 36.5811 20.985 36.6666 20 36.6666" stroke="black" stroke-width="3.33333" stroke-linecap="round" stroke-linejoin="round"/>
</svg>
