<svg width="40" height="40" viewBox="0 0 40 40" fill="none" xmlns="http://www.w3.org/2000/svg">
<path opacity="0.12" d="M15 20.3333C15 18.4665 15 17.5331 15.3633 16.82C15.6829 16.1928 16.1928 15.6829 16.82 15.3633C17.5331 15 18.4665 15 20.3333 15H31.3333C33.2002 15 34.1336 15 34.8466 15.3633C35.4738 15.6829 35.9838 16.1928 36.3034 16.82C36.6667 17.5331 36.6667 18.4665 36.6667 20.3333V31.3333C36.6667 33.2002 36.6667 34.1336 36.3034 34.8466C35.9838 35.4738 35.4738 35.9838 34.8466 36.3034C34.1336 36.6667 33.2002 36.6667 31.3333 36.6667H20.3333C18.4665 36.6667 17.5331 36.6667 16.82 36.3034C16.1928 35.9838 15.6829 35.4738 15.3633 34.8466C15 34.1336 15 33.2002 15 31.3333V20.3333Z" fill="black"/>
<path d="M8.33337 24.9999C6.78024 24.9999 6.00367 24.9999 5.3911 24.7462C4.57434 24.4079 3.92542 23.759 3.58711 22.9422C3.33337 22.3296 3.33337 21.5531 3.33337 19.9999V8.66659C3.33337 6.79974 3.33337 5.86632 3.69669 5.15328C4.01626 4.52608 4.5262 4.01614 5.15341 3.69656C5.86644 3.33325 6.79987 3.33325 8.66671 3.33325H20C21.5532 3.33325 22.3297 3.33325 22.9423 3.58699C23.7591 3.9253 24.408 4.57421 24.7463 5.39097C25 6.00354 25 6.78011 25 8.33325M20.3334 36.6666H31.3334C33.2002 36.6666 34.1336 36.6666 34.8467 36.3033C35.4739 35.9837 35.9838 35.4738 36.3034 34.8466C36.6667 34.1335 36.6667 33.2001 36.6667 31.3333V20.3333C36.6667 18.4664 36.6667 17.533 36.3034 16.82C35.9838 16.1927 35.4739 15.6828 34.8467 15.3632C34.1336 14.9999 33.2002 14.9999 31.3334 14.9999H20.3334C18.4665 14.9999 17.5331 14.9999 16.8201 15.3632C16.1929 15.6828 15.6829 16.1927 15.3634 16.82C15 17.533 15 18.4664 15 20.3333V31.3333C15 33.2001 15 34.1335 15.3634 34.8466C15.6829 35.4738 16.1929 35.9837 16.8201 36.3033C17.5331 36.6666 18.4665 36.6666 20.3334 36.6666Z" stroke="black" stroke-width="3.33333" stroke-linecap="round" stroke-linejoin="round"/>
</svg>
