<svg width="40" height="40" viewBox="0 0 40 40" fill="none" xmlns="http://www.w3.org/2000/svg">
<path opacity="0.12" d="M8.33337 16.3333C8.33337 13.533 8.33337 12.1329 8.87834 11.0633C9.35771 10.1225 10.1226 9.35759 11.0634 8.87822C12.133 8.33325 13.5331 8.33325 16.3334 8.33325H23.6667C26.467 8.33325 27.8671 8.33325 28.9367 8.87822C29.8775 9.35759 30.6424 10.1225 31.1217 11.0633C31.6667 12.1329 31.6667 13.533 31.6667 16.3333V23.6666C31.6667 26.4668 31.6667 27.867 31.1217 28.9365C30.6424 29.8773 29.8775 30.6423 28.9367 31.1216C27.8671 31.6666 26.467 31.6666 23.6667 31.6666H16.3334C13.5331 31.6666 12.133 31.6666 11.0634 31.1216C10.1226 30.6423 9.35771 29.8773 8.87834 28.9365C8.33337 27.867 8.33337 26.4668 8.33337 23.6666V16.3333Z" fill="black"/>
<path d="M15 3.33325V8.33325M25 3.33325V8.33325M15 31.6666V36.6666M25 31.6666V36.6666M31.6667 14.9999H36.6667M31.6667 23.3333H36.6667M3.33337 14.9999H8.33337M3.33337 23.3333H8.33337M16.3334 31.6666H23.6667C26.467 31.6666 27.8671 31.6666 28.9367 31.1216C29.8775 30.6423 30.6424 29.8773 31.1217 28.9365C31.6667 27.867 31.6667 26.4668 31.6667 23.6666V16.3333C31.6667 13.533 31.6667 12.1329 31.1217 11.0633C30.6424 10.1225 29.8775 9.35759 28.9367 8.87822C27.8671 8.33325 26.467 8.33325 23.6667 8.33325H16.3334C13.5331 8.33325 12.133 8.33325 11.0634 8.87822C10.1226 9.35759 9.35771 10.1225 8.87834 11.0633C8.33337 12.1329 8.33337 13.533 8.33337 16.3333V23.6666C8.33337 26.4668 8.33337 27.867 8.87834 28.9365C9.35771 29.8773 10.1226 30.6423 11.0634 31.1216C12.133 31.6666 13.5331 31.6666 16.3334 31.6666Z" stroke="black" stroke-width="3.33333" stroke-linecap="round" stroke-linejoin="round"/>
</svg>
