<svg width="40" height="40" viewBox="0 0 40 40" fill="none" xmlns="http://www.w3.org/2000/svg">
<path opacity="0.12" d="M3.33337 13.6666V16.6666H36.6667V13.6666C36.6667 11.7997 36.6667 10.8663 36.3034 10.1533C35.9838 9.52608 35.4739 9.01614 34.8467 8.69657C34.1336 8.33325 33.2002 8.33325 31.3334 8.33325H8.66671C6.79987 8.33325 5.86645 8.33325 5.15341 8.69656C4.5262 9.01614 4.01626 9.52608 3.69669 10.1533C3.33337 10.8663 3.33337 11.7997 3.33337 13.6666Z" fill="black"/>
<path d="M36.6667 16.6666H3.33337M3.33337 13.6666L3.33337 26.3332C3.33337 28.2001 3.33337 29.1335 3.69669 29.8466C4.01626 30.4738 4.5262 30.9837 5.15341 31.3033C5.86644 31.6666 6.79987 31.6666 8.66671 31.6666L31.3334 31.6666C33.2002 31.6666 34.1336 31.6666 34.8467 31.3033C35.4739 30.9837 35.9838 30.4738 36.3034 29.8466C36.6667 29.1335 36.6667 28.2001 36.6667 26.3333V13.6666C36.6667 11.7997 36.6667 10.8663 36.3034 10.1533C35.9838 9.52608 35.4739 9.01614 34.8467 8.69657C34.1336 8.33325 33.2002 8.33325 31.3334 8.33325L8.66671 8.33325C6.79987 8.33325 5.86645 8.33325 5.15341 8.69656C4.5262 9.01614 4.01626 9.52608 3.69669 10.1533C3.33337 10.8663 3.33337 11.7997 3.33337 13.6666Z" stroke="black" stroke-width="3.33333" stroke-linecap="round" stroke-linejoin="round"/>
</svg>
