<svg width="40" height="40" viewBox="0 0 40 40" fill="none" xmlns="http://www.w3.org/2000/svg">
<path opacity="0.12" d="M15.3333 30L30 30V15.3333C30 13.4665 30 12.5331 29.6367 11.82C29.3171 11.1928 28.8072 10.6829 28.18 10.3633C27.4669 10 26.5335 10 24.6667 10H10V24.6667C10 26.5335 10 27.4669 10.3633 28.18C10.6829 28.8072 11.1928 29.3171 11.82 29.6367C12.5331 30 13.4665 30 15.3333 30Z" fill="black"/>
<path d="M16.6667 9.99992H24.6667C26.5336 9.99992 27.467 9.99992 28.18 10.3632C28.8072 10.6828 29.3172 11.1927 29.6367 11.8199C30 12.533 30 13.4664 30 15.3333V23.3332M3.33337 9.99992H10M30 29.9999V36.6666M36.6667 29.9999L15.3334 29.9999C13.4665 29.9999 12.5331 29.9999 11.8201 29.6366C11.1929 29.317 10.6829 28.8071 10.3634 28.1799C10 27.4668 10 26.5334 10 24.6666V3.33325" stroke="black" stroke-width="3.33333" stroke-linecap="round" stroke-linejoin="round"/>
</svg>
