<svg width="40" height="40" viewBox="0 0 40 40" fill="none" xmlns="http://www.w3.org/2000/svg">
<path opacity="0.12" d="M20 29.1666C25.0627 29.1666 29.1667 25.0625 29.1667 19.9999C29.1667 14.9373 25.0627 10.8333 20 10.8333C14.9374 10.8333 10.8334 14.9373 10.8334 19.9999C10.8334 25.0625 14.9374 29.1666 20 29.1666Z" fill="black"/>
<path d="M29.7963 33.4837C26.9489 35.5525 23.5196 36.6668 19.9999 36.6668C16.4802 36.6668 13.0509 35.5525 10.2035 33.4837M27.3061 5.02018C30.4695 6.5631 33.0633 9.06788 34.7157 12.1756C36.3681 15.2832 36.9942 18.8342 36.5044 22.3196M3.49559 22.3195C3.00575 18.8341 3.63189 15.2831 5.28427 12.1754C6.93664 9.06772 9.53043 6.56293 12.6939 5.02002M29.1666 20.0001C29.1666 25.0627 25.0625 29.1668 19.9999 29.1668C14.9373 29.1668 10.8332 25.0627 10.8332 20.0001C10.8332 14.9375 14.9373 10.8334 19.9999 10.8334C25.0625 10.8334 29.1666 14.9375 29.1666 20.0001Z" stroke="black" stroke-width="3.33333" stroke-linecap="round" stroke-linejoin="round"/>
</svg>
