<svg width="40" height="40" viewBox="0 0 40 40" fill="none" xmlns="http://www.w3.org/2000/svg">
<path opacity="0.12" d="M12.6094 19.0573L19.0571 12.6096C19.3871 12.2796 19.5521 12.1146 19.7424 12.0527C19.9097 11.9984 20.09 11.9984 20.2574 12.0527C20.4477 12.1146 20.6127 12.2796 20.9427 12.6096L27.3904 19.0573C27.7204 19.3873 27.8854 19.5523 27.9472 19.7426C28.0016 19.91 28.0016 20.0903 27.9472 20.2576C27.8854 20.4479 27.7204 20.6129 27.3904 20.9429L20.9427 27.3906C20.6127 27.7207 20.4477 27.8857 20.2574 27.9475C20.09 28.0019 19.9097 28.0019 19.7424 27.9475C19.5521 27.8857 19.3871 27.7207 19.0571 27.3906L12.6093 20.9429C12.2793 20.6129 12.1143 20.4479 12.0525 20.2576C11.9981 20.0903 11.9981 19.91 12.0525 19.7426C12.1143 19.5523 12.2793 19.3873 12.6094 19.0573Z" fill="black"/>
<path d="M3.33337 3.33325L6.66671 6.66659M36.6667 3.33325L33.3334 6.66659M36.6667 36.6666L33.3334 33.3333M3.33337 36.6666L6.66671 33.3333M3.33337 26.6666H5.83337M13.3334 3.33325V5.83325M36.6667 13.3333H34.1667M26.6667 36.6666V34.1666M30 26.6666H35.8334M26.6667 3.33325V9.99992M3.33337 13.3333H10M13.3334 36.6666V29.9999M19.0572 12.6094L12.6095 19.0571C12.2795 19.3871 12.1145 19.5521 12.0527 19.7424C11.9983 19.9098 11.9983 20.0901 12.0527 20.2574C12.1145 20.4477 12.2795 20.6127 12.6095 20.9427L19.0572 27.3904C19.3872 27.7205 19.5523 27.8855 19.7425 27.9473C19.9099 28.0017 20.0902 28.0017 20.2576 27.9473C20.4478 27.8855 20.6128 27.7205 20.9429 27.3904L27.3906 20.9427C27.7206 20.6127 27.8856 20.4477 27.9474 20.2574C28.0018 20.0901 28.0018 19.9098 27.9474 19.7424C27.8856 19.5521 27.7206 19.3871 27.3906 19.0571L20.9429 12.6094C20.6128 12.2794 20.4478 12.1144 20.2576 12.0525C20.0902 11.9982 19.9099 11.9982 19.7425 12.0525C19.5523 12.1144 19.3872 12.2794 19.0572 12.6094Z" stroke="black" stroke-width="3.33333" stroke-linecap="round" stroke-linejoin="round"/>
</svg>
