<svg width="40" height="40" viewBox="0 0 40 40" fill="none" xmlns="http://www.w3.org/2000/svg">
<path d="M16.25 34.5833L18.705 35.9472C19.1776 36.2098 19.414 36.3411 19.6643 36.3925C19.8858 36.4381 20.1142 36.4381 20.3358 36.3925C20.586 36.3411 20.8224 36.2098 21.2951 35.9472L23.75 34.5833M8.75 30.4166L6.37162 29.0953C5.87243 28.818 5.62281 28.6793 5.44106 28.4821C5.28026 28.3076 5.15858 28.1008 5.08414 27.8755C5 27.6208 5 27.3353 5 26.7642V24.1666M5 15.8333V13.2357C5 12.6647 5 12.3791 5.08414 12.1245C5.15858 11.8992 5.28026 11.6924 5.44106 11.5179C5.62281 11.3206 5.87242 11.182 6.37162 10.9046L8.75 9.58331M16.25 5.41665L18.705 4.05278C19.1776 3.79019 19.414 3.65889 19.6643 3.60741C19.8858 3.56185 20.1142 3.56185 20.3358 3.60741C20.586 3.65889 20.8224 3.79019 21.2951 4.05278L23.75 5.41664M31.25 9.58331L33.6284 10.9046C34.1276 11.182 34.3772 11.3206 34.5589 11.5179C34.7197 11.6924 34.8414 11.8992 34.9159 12.1244C35 12.3791 35 12.6646 35 13.2357V15.8333M35 24.1666V26.7642C35 27.3353 35 27.6208 34.9159 27.8755C34.8414 28.1008 34.7197 28.3076 34.5589 28.4821C34.3772 28.6793 34.1276 28.818 33.6284 29.0953L31.25 30.4166M16.25 17.9166L20 20M20 20L23.75 17.9166M20 20V24.1666M5 11.6666L8.75 13.75M31.25 13.75L35 11.6666M20 32.5V36.6666" stroke="black" stroke-width="3.33333" stroke-linecap="round" stroke-linejoin="round"/>
</svg>
