<svg width="40" height="40" viewBox="0 0 40 40" fill="none" xmlns="http://www.w3.org/2000/svg">
<path opacity="0.12" d="M20 36.6666C29.2048 36.6666 36.6667 29.2047 36.6667 19.9999C36.6667 10.7952 29.2048 3.33325 20 3.33325C10.7953 3.33325 3.33337 10.7952 3.33337 19.9999C3.33337 29.2047 10.7953 36.6666 20 36.6666Z" fill="black"/>
<path d="M25.5556 13.7885C24.0813 12.469 22.1344 11.6666 20 11.6666C15.3977 11.6666 11.6667 15.3975 11.6667 19.9999C11.6667 24.6023 15.3977 28.3333 20 28.3333C22.1344 28.3333 24.0813 27.5309 25.5556 26.2113M10 22.4999H18.3334M10 17.4999H18.3334M36.6667 19.9999C36.6667 29.2047 29.2048 36.6666 20 36.6666C10.7953 36.6666 3.33337 29.2047 3.33337 19.9999C3.33337 10.7952 10.7953 3.33325 20 3.33325C29.2048 3.33325 36.6667 10.7952 36.6667 19.9999Z" stroke="black" stroke-width="3.33333" stroke-linecap="round" stroke-linejoin="round"/>
</svg>
