<svg width="40" height="40" viewBox="0 0 40 40" fill="none" xmlns="http://www.w3.org/2000/svg">
<g opacity="0.12">
<path d="M15.8334 17.1666C15.8334 16.6999 15.8334 16.4665 15.9242 16.2883C16.0041 16.1315 16.1316 16.004 16.2884 15.9241C16.4666 15.8333 16.7 15.8333 17.1667 15.8333H22.8334C23.3001 15.8333 23.5334 15.8333 23.7117 15.9241C23.8685 16.004 23.996 16.1315 24.0759 16.2883C24.1667 16.4665 24.1667 16.6999 24.1667 17.1666V22.8333C24.1667 23.3 24.1667 23.5333 24.0759 23.7116C23.996 23.8684 23.8685 23.9959 23.7117 24.0758C23.5334 24.1666 23.3001 24.1666 22.8334 24.1666H17.1667C16.7 24.1666 16.4666 24.1666 16.2884 24.0758C16.1316 23.9959 16.0041 23.8684 15.9242 23.7116C15.8334 23.5333 15.8334 23.3 15.8334 22.8333V17.1666Z" fill="black"/>
<path d="M28.3334 29.6666C28.3334 29.1999 28.3334 28.9665 28.4242 28.7883C28.5041 28.6315 28.6316 28.504 28.7884 28.4241C28.9666 28.3333 29.2 28.3333 29.6667 28.3333H35.3334C35.8001 28.3333 36.0334 28.3333 36.2117 28.4241C36.3685 28.504 36.496 28.6315 36.5759 28.7883C36.6667 28.9665 36.6667 29.1999 36.6667 29.6666V35.3333C36.6667 35.8 36.6667 36.0333 36.5759 36.2116C36.496 36.3684 36.3685 36.4959 36.2117 36.5758C36.0334 36.6666 35.8001 36.6666 35.3334 36.6666H29.6667C29.2 36.6666 28.9666 36.6666 28.7884 36.5758C28.6316 36.4959 28.5041 36.3684 28.4242 36.2116C28.3334 36.0333 28.3334 35.8 28.3334 35.3333V29.6666Z" fill="black"/>
<path d="M3.33337 4.66659C3.33337 4.19987 3.33337 3.96652 3.4242 3.78826C3.5041 3.63146 3.63158 3.50397 3.78838 3.42408C3.96664 3.33325 4.2 3.33325 4.66671 3.33325H10.3334C10.8001 3.33325 11.0334 3.33325 11.2117 3.42408C11.3685 3.50397 11.496 3.63146 11.5759 3.78826C11.6667 3.96652 11.6667 4.19987 11.6667 4.66659V10.3333C11.6667 10.8 11.6667 11.0333 11.5759 11.2116C11.496 11.3684 11.3685 11.4959 11.2117 11.5758C11.0334 11.6666 10.8001 11.6666 10.3334 11.6666H4.66671C4.2 11.6666 3.96664 11.6666 3.78838 11.5758C3.63158 11.4959 3.5041 11.3684 3.4242 11.2116C3.33337 11.0333 3.33337 10.8 3.33337 10.3333V4.66659Z" fill="black"/>
</g>
<path d="M18.3334 7.49992H30.5C32.3669 7.49992 33.3003 7.49992 34.0133 7.86323C34.6406 8.18281 35.1505 8.69274 35.4701 9.31995C35.8334 10.033 35.8334 10.9664 35.8334 12.8333V14.9999C35.8334 16.5531 35.8334 17.3296 35.5796 17.9422C35.2413 18.759 34.5924 19.4079 33.7757 19.7462C33.1631 19.9999 32.3865 19.9999 30.8334 19.9999M21.6667 32.4999H9.50004C7.6332 32.4999 6.69978 32.4999 5.98674 32.1366C5.35953 31.817 4.8496 31.3071 4.53002 30.6799C4.16671 29.9669 4.16671 29.0334 4.16671 27.1666V24.9999C4.16671 23.4468 4.16671 22.6702 4.42044 22.0576C4.75876 21.2409 5.40767 20.592 6.22443 20.2537C6.837 19.9999 7.61357 19.9999 9.16671 19.9999M17.1667 24.1666H22.8334C23.3001 24.1666 23.5334 24.1666 23.7117 24.0758C23.8685 23.9959 23.996 23.8684 24.0759 23.7116C24.1667 23.5333 24.1667 23.3 24.1667 22.8333V17.1666C24.1667 16.6999 24.1667 16.4665 24.0759 16.2883C23.996 16.1315 23.8685 16.004 23.7117 15.9241C23.5334 15.8333 23.3001 15.8333 22.8334 15.8333H17.1667C16.7 15.8333 16.4666 15.8333 16.2884 15.9241C16.1316 16.004 16.0041 16.1315 15.9242 16.2883C15.8334 16.4665 15.8334 16.6999 15.8334 17.1666V22.8333C15.8334 23.3 15.8334 23.5333 15.9242 23.7116C16.0041 23.8684 16.1316 23.9959 16.2884 24.0758C16.4666 24.1666 16.7 24.1666 17.1667 24.1666ZM29.6667 36.6666H35.3334C35.8001 36.6666 36.0334 36.6666 36.2117 36.5758C36.3685 36.4959 36.496 36.3684 36.5759 36.2116C36.6667 36.0333 36.6667 35.8 36.6667 35.3333V29.6666C36.6667 29.1999 36.6667 28.9665 36.5759 28.7883C36.496 28.6315 36.3685 28.504 36.2117 28.4241C36.0334 28.3333 35.8001 28.3333 35.3334 28.3333H29.6667C29.2 28.3333 28.9666 28.3333 28.7884 28.4241C28.6316 28.504 28.5041 28.6315 28.4242 28.7883C28.3334 28.9665 28.3334 29.1999 28.3334 29.6666V35.3333C28.3334 35.8 28.3334 36.0333 28.4242 36.2116C28.5041 36.3684 28.6316 36.4959 28.7884 36.5758C28.9666 36.6666 29.2 36.6666 29.6667 36.6666ZM4.66671 11.6666H10.3334C10.8001 11.6666 11.0334 11.6666 11.2117 11.5758C11.3685 11.4959 11.496 11.3684 11.5759 11.2116C11.6667 11.0333 11.6667 10.8 11.6667 10.3333V4.66659C11.6667 4.19987 11.6667 3.96652 11.5759 3.78826C11.496 3.63146 11.3685 3.50397 11.2117 3.42408C11.0334 3.33325 10.8001 3.33325 10.3334 3.33325H4.66671C4.2 3.33325 3.96664 3.33325 3.78838 3.42408C3.63158 3.50397 3.5041 3.63146 3.4242 3.78826C3.33337 3.96652 3.33337 4.19987 3.33337 4.66659V10.3333C3.33337 10.8 3.33337 11.0333 3.4242 11.2116C3.5041 11.3684 3.63158 11.4959 3.78838 11.5758C3.96664 11.6666 4.2 11.6666 4.66671 11.6666Z" stroke="black" stroke-width="3.33333" stroke-linecap="round" stroke-linejoin="round"/>
</svg>
