<svg width="40" height="40" viewBox="0 0 40 40" fill="none" xmlns="http://www.w3.org/2000/svg">
<g opacity="0.12">
<path d="M20 34.1667L13.3334 15H26.6667L20 34.1667Z" fill="black"/>
<path d="M16.6667 5H11.6667L3.33337 15L13.3334 15L16.6667 5Z" fill="black"/>
<path d="M23.3334 5H28.3334L36.6667 15L26.6667 15L23.3334 5Z" fill="black"/>
</g>
<path d="M4.16675 15H35.8334M16.6667 5L13.3334 15L20.0001 34.1667L26.6667 15L23.3334 5M21.0244 33.7708L35.9554 15.8536C36.2085 15.5499 36.335 15.3981 36.3834 15.2286C36.426 15.0792 36.426 14.9208 36.3834 14.7714C36.335 14.6019 36.2085 14.4501 35.9554 14.1464L28.7332 5.47975C28.5863 5.30341 28.5128 5.21523 28.4227 5.15184C28.3429 5.09568 28.2538 5.05397 28.1596 5.02862C28.0532 5 27.9385 5 27.7089 5H12.2912C12.0617 5 11.9469 5 11.8406 5.02862C11.7463 5.05397 11.6573 5.09568 11.5775 5.15184C11.4874 5.21523 11.4139 5.30341 11.267 5.47975L4.04473 14.1464C3.79168 14.4501 3.66516 14.6019 3.61681 14.7714C3.57418 14.9208 3.57418 15.0792 3.61681 15.2286C3.66516 15.3981 3.79168 15.5499 4.04473 15.8536L18.9758 33.7708C19.3275 34.193 19.5034 34.404 19.714 34.481C19.8987 34.5485 20.1014 34.5485 20.2862 34.481C20.4967 34.404 20.6726 34.193 21.0244 33.7708Z" stroke="black" stroke-width="3.33333" stroke-linecap="round" stroke-linejoin="round"/>
</svg>
