<svg width="40" height="40" viewBox="0 0 40 40" fill="none" xmlns="http://www.w3.org/2000/svg">
<path opacity="0.12" d="M20 36.6666C29.2048 36.6666 36.6667 29.2047 36.6667 19.9999C36.6667 10.7952 29.2048 3.33325 20 3.33325C10.7953 3.33325 3.33337 10.7952 3.33337 19.9999C3.33337 29.2047 10.7953 36.6666 20 36.6666Z" fill="black"/>
<path d="M13.3334 19.9999L20 26.6666M20 26.6666L26.6667 19.9999M20 26.6666V11.3333C20 9.01543 20 7.85651 19.0825 6.55893C18.4729 5.6968 16.7177 4.63274 15.6713 4.49097C14.0965 4.27761 13.4985 4.58958 12.3024 5.21351C6.97226 7.99399 3.33337 13.572 3.33337 19.9999C3.33337 29.2047 10.7953 36.6666 20 36.6666C29.2048 36.6666 36.6667 29.2047 36.6667 19.9999C36.6667 13.8309 33.3151 8.44472 28.3334 5.56298" stroke="black" stroke-width="3.33333" stroke-linecap="round" stroke-linejoin="round"/>
</svg>
