<svg width="40" height="40" viewBox="0 0 40 40" fill="none" xmlns="http://www.w3.org/2000/svg">
<path opacity="0.12" d="M15.8334 5C8.92981 5 3.33337 10.5964 3.33337 17.5C3.33337 20.9435 4.72579 24.0618 6.97829 26.3226L13.3334 26.6667V28.3333L20 35L26.6667 28.3707V27.5045L33.3334 27.9047C35.3692 26.2234 36.6667 23.6799 36.6667 20.8333C36.6667 15.7707 32.5627 11.6667 27.5 11.6667C27.299 11.6667 27.0996 11.6731 26.9018 11.6859C24.8093 7.71056 20.6379 5 15.8334 5Z" fill="black"/>
<path d="M13.3334 28.3333L20 35M20 35L26.6667 28.3333M20 35V20M33.3334 27.9047C35.3692 26.2234 36.6667 23.6799 36.6667 20.8333C36.6667 15.7707 32.5627 11.6667 27.5 11.6667C27.1359 11.6667 26.7951 11.4767 26.6102 11.1629C24.4368 7.47473 20.4241 5 15.8334 5C8.92981 5 3.33337 10.5964 3.33337 17.5C3.33337 20.9435 4.72579 24.0618 6.97829 26.3226" stroke="black" stroke-width="3.33333" stroke-linecap="round" stroke-linejoin="round"/>
</svg>
