<svg width="40" height="40" viewBox="0 0 40 40" fill="none" xmlns="http://www.w3.org/2000/svg">
<path opacity="0.12" d="M13.3334 23.8758C13.3334 23.0605 13.3334 22.6528 13.4255 22.2692C13.5071 21.9291 13.6418 21.6039 13.8246 21.3057C14.0307 20.9693 14.319 20.681 14.8955 20.1045L30.8334 4.16663C32.2141 2.78592 34.4527 2.78593 35.8334 4.16664C37.2141 5.54735 37.2141 7.78593 35.8334 9.16664L19.8955 25.1045C19.319 25.681 19.0308 25.9693 18.6944 26.1754C18.3961 26.3582 18.071 26.4929 17.7309 26.5745C17.3472 26.6666 16.9396 26.6666 16.1243 26.6666H13.3334V23.8758Z" fill="black"/>
<path d="M18.3334 6.66664H11.3334C8.53311 6.66664 7.13298 6.66664 6.06342 7.21161C5.12261 7.69097 4.35771 8.45588 3.87834 9.39669C3.33337 10.4662 3.33337 11.8664 3.33337 14.6666V28.6666C3.33337 31.4669 3.33337 32.867 3.87834 33.9366C4.35771 34.8774 5.12261 35.6423 6.06342 36.1217C7.13298 36.6666 8.53311 36.6666 11.3334 36.6666H25.3334C28.1336 36.6666 29.5338 36.6666 30.6033 36.1217C31.5441 35.6423 32.309 34.8774 32.7884 33.9366C33.3334 32.867 33.3334 31.4669 33.3334 28.6666V21.6666M13.3333 26.6666H16.1242C16.9395 26.6666 17.3472 26.6666 17.7308 26.5745C18.0709 26.4929 18.3961 26.3582 18.6943 26.1754C19.0307 25.9693 19.319 25.6811 19.8955 25.1045L35.8334 9.16664C37.2141 7.78593 37.2141 5.54735 35.8334 4.16664C34.4527 2.78593 32.2141 2.78592 30.8334 4.16663L14.8954 20.1045C14.3189 20.681 14.0307 20.9693 13.8245 21.3057C13.6418 21.6039 13.5071 21.9291 13.4254 22.2692C13.3333 22.6528 13.3333 23.0605 13.3333 23.8758V26.6666Z" stroke="black" stroke-width="3.33333" stroke-linecap="round" stroke-linejoin="round"/>
</svg>
