<svg width="40" height="40" viewBox="0 0 40 40" fill="none" xmlns="http://www.w3.org/2000/svg">
<path opacity="0.12" d="M5 30.5425C5 29.7272 5 29.3196 5.0921 28.9359C5.17376 28.5958 5.30844 28.2707 5.4912 27.9724C5.69734 27.636 5.98559 27.3478 6.5621 26.7713L27.5 5.83338C28.8808 4.45267 31.1193 4.45267 32.5 5.83338C33.8808 7.2141 33.8808 9.45267 32.5 10.8334L11.5621 31.7713C10.9856 32.3478 10.6974 32.636 10.361 32.8422C10.0628 33.025 9.73761 33.1596 9.39748 33.2413C9.01386 33.3334 8.60621 33.3334 7.79091 33.3334H5V30.5425Z" fill="black"/>
<path d="M35 30.0001L33.3331 31.8235C32.4491 32.7903 31.2502 33.3334 30.0002 33.3334C28.7502 33.3334 27.5513 32.7903 26.6673 31.8235C25.782 30.8586 24.5833 30.3168 23.3336 30.3168C22.084 30.3168 20.8852 30.8586 20 31.8235M5 33.3334H7.79091C8.60621 33.3334 9.01386 33.3334 9.39748 33.2413C9.73761 33.1596 10.0628 33.025 10.361 32.8422C10.6974 32.636 10.9856 32.3478 11.5621 31.7713L32.5 10.8334C33.8808 9.45267 33.8808 7.2141 32.5 5.83338C31.1193 4.45267 28.8808 4.45267 27.5 5.83338L6.5621 26.7713C5.98559 27.3478 5.69734 27.636 5.4912 27.9724C5.30844 28.2707 5.17376 28.5958 5.0921 28.9359C5 29.3196 5 29.7272 5 30.5425V33.3334Z" stroke="black" stroke-width="3.33333" stroke-linecap="round" stroke-linejoin="round"/>
</svg>
