<svg width="40" height="40" viewBox="0 0 40 40" fill="none" xmlns="http://www.w3.org/2000/svg">
<path opacity="0.12" d="M20 36.6666C29.2048 36.6666 36.6667 29.2047 36.6667 19.9999C36.6667 10.7952 29.2048 3.33325 20 3.33325C10.7953 3.33325 3.33337 10.7952 3.33337 19.9999C3.33337 29.2047 10.7953 36.6666 20 36.6666Z" fill="black"/>
<path d="M13.3334 23.3333C13.3334 23.3333 15.8334 26.6666 20 26.6666C24.1667 26.6666 26.6667 23.3333 26.6667 23.3333M25 14.9999H25.0167M15 14.9999H15.0167M36.6667 19.9999C36.6667 29.2047 29.2048 36.6666 20 36.6666C10.7953 36.6666 3.33337 29.2047 3.33337 19.9999C3.33337 10.7952 10.7953 3.33325 20 3.33325C29.2048 3.33325 36.6667 10.7952 36.6667 19.9999ZM25.8334 14.9999C25.8334 15.4602 25.4603 15.8333 25 15.8333C24.5398 15.8333 24.1667 15.4602 24.1667 14.9999C24.1667 14.5397 24.5398 14.1666 25 14.1666C25.4603 14.1666 25.8334 14.5397 25.8334 14.9999ZM15.8334 14.9999C15.8334 15.4602 15.4603 15.8333 15 15.8333C14.5398 15.8333 14.1667 15.4602 14.1667 14.9999C14.1667 14.5397 14.5398 14.1666 15 14.1666C15.4603 14.1666 15.8334 14.5397 15.8334 14.9999Z" stroke="black" stroke-width="3.33333" stroke-linecap="round" stroke-linejoin="round"/>
</svg>
