<svg width="40" height="40" viewBox="0 0 40 40" fill="none" xmlns="http://www.w3.org/2000/svg">
<path opacity="0.12" d="M20 36.6666C29.2048 36.6666 36.6667 29.2047 36.6667 19.9999C36.6667 10.7952 29.2048 3.33325 20 3.33325C10.7953 3.33325 3.33337 10.7952 3.33337 19.9999C3.33337 29.2047 10.7953 36.6666 20 36.6666Z" fill="black"/>
<path d="M13.3334 23.3333C13.3334 23.3333 15.8334 26.6666 20 26.6666C24.1667 26.6666 26.6667 23.3333 26.6667 23.3333M28.3334 15.3999C27.675 16.2082 26.775 16.6666 25.8334 16.6666C24.8917 16.6666 24.0167 16.2082 23.3334 15.3999M16.6667 15.3999C16.0084 16.2082 15.1084 16.6666 14.1667 16.6666C13.225 16.6666 12.35 16.2082 11.6667 15.3999M36.6667 19.9999C36.6667 29.2047 29.2048 36.6666 20 36.6666C10.7953 36.6666 3.33337 29.2047 3.33337 19.9999C3.33337 10.7952 10.7953 3.33325 20 3.33325C29.2048 3.33325 36.6667 10.7952 36.6667 19.9999Z" stroke="black" stroke-width="3.33333" stroke-linecap="round" stroke-linejoin="round"/>
</svg>
