<svg width="40" height="40" viewBox="0 0 40 40" fill="none" xmlns="http://www.w3.org/2000/svg">
<path opacity="0.12" d="M15 25H30L24.1144 30.8856C23.8262 31.1739 23.682 31.318 23.5138 31.4211C23.3647 31.5124 23.2022 31.5798 23.0321 31.6206C22.8403 31.6667 22.6365 31.6667 22.2288 31.6667H8.33337L15 25Z" fill="black"/>
<path d="M26.6667 13.3335L3.33337 36.6669M30 25.0002H15M11 31.6669H22.2288C22.6365 31.6669 22.8403 31.6669 23.0321 31.6208C23.2022 31.58 23.3647 31.5126 23.5138 31.4213C23.682 31.3182 23.8262 31.1741 24.1144 30.8858L32.5 22.5002C32.8983 22.1019 33.0974 21.9028 33.2577 21.7265C36.7246 17.9124 36.7246 12.088 33.2577 8.27391C33.0974 8.0976 32.8983 7.89847 32.5 7.5002C32.1018 7.10193 31.9026 6.90279 31.7263 6.74253C27.9122 3.2756 22.0878 3.2756 18.2738 6.74253C18.0974 6.90279 17.8983 7.10193 17.5 7.50019L9.11442 15.8858C8.82617 16.1741 8.68204 16.3182 8.57897 16.4864C8.48759 16.6355 8.42025 16.7981 8.37942 16.9681C8.33337 17.16 8.33337 17.3638 8.33337 17.7714V29.0002C8.33337 29.9336 8.33337 30.4003 8.51503 30.7569C8.67482 31.0705 8.92979 31.3254 9.24339 31.4852C9.59991 31.6669 10.0666 31.6669 11 31.6669Z" stroke="black" stroke-width="3.33333" stroke-linecap="round" stroke-linejoin="round"/>
</svg>
