<svg width="40" height="40" viewBox="0 0 40 40" fill="none" xmlns="http://www.w3.org/2000/svg">
<g opacity="0.12">
<path d="M8.33337 8.33333C8.33337 5.11167 10.945 2.5 14.1667 2.5H20V14.1667H14.1667C10.945 14.1667 8.33337 11.555 8.33337 8.33333Z" fill="black"/>
<path d="M8.33337 31.6667C8.33337 28.445 10.945 25.8333 14.1667 25.8333H20V31.6667C20 34.8883 17.3884 37.5 14.1667 37.5C10.945 37.5 8.33337 34.8883 8.33337 31.6667Z" fill="black"/>
<path d="M20 20C20 16.7783 22.6117 14.1667 25.8334 14.1667C29.055 14.1667 31.6667 16.7783 31.6667 20C31.6667 23.2217 29.055 25.8333 25.8334 25.8333C22.6117 25.8333 20 23.2217 20 20Z" fill="black"/>
</g>
<path d="M20 2.5H14.1667C10.945 2.5 8.33337 5.11167 8.33337 8.33333C8.33337 11.555 10.945 14.1667 14.1667 14.1667M20 2.5V14.1667M20 2.5H25.8334C29.055 2.5 31.6667 5.11167 31.6667 8.33333C31.6667 11.555 29.055 14.1667 25.8334 14.1667M20 14.1667H14.1667M20 14.1667V25.8333M20 14.1667H25.8334M14.1667 14.1667C10.945 14.1667 8.33337 16.7783 8.33337 20C8.33337 23.2217 10.945 25.8333 14.1667 25.8333M20 25.8333H14.1667M20 25.8333V31.6667C20 34.8883 17.3884 37.5 14.1667 37.5C10.945 37.5 8.33337 34.8883 8.33337 31.6667C8.33337 28.445 10.945 25.8333 14.1667 25.8333M25.8334 14.1667C29.055 14.1667 31.6667 16.7783 31.6667 20C31.6667 23.2217 29.055 25.8333 25.8334 25.8333C22.6117 25.8333 20 23.2217 20 20C20 16.7783 22.6117 14.1667 25.8334 14.1667Z" stroke="black" stroke-width="3.33333" stroke-linecap="round" stroke-linejoin="round"/>
</svg>
