<svg width="40" height="40" viewBox="0 0 40 40" fill="none" xmlns="http://www.w3.org/2000/svg">
<path opacity="0.12" d="M31.8689 11.8689L24.7978 4.79784C24.3703 4.3703 23.8733 4.02818 23.3334 3.78247V10.6667C23.3334 11.6001 23.3334 12.0668 23.515 12.4234C23.6748 12.737 23.9298 12.9919 24.2434 13.1517C24.5999 13.3334 25.0666 13.3334 26 13.3334H32.8843C32.6386 12.7934 32.2964 12.2964 31.8689 11.8689Z" fill="black"/>
<path d="M23.3333 3.78247V10.6667C23.3333 11.6001 23.3333 12.0668 23.5149 12.4234C23.6747 12.737 23.9297 12.9919 24.2433 13.1517C24.5998 13.3334 25.0665 13.3334 26 13.3334H32.8842M26.6666 21.6666H13.3333M26.6666 28.3333H13.3333M16.6666 14.9999H13.3333M23.3333 3.33325H14.6666C11.8664 3.33325 10.4662 3.33325 9.39667 3.87822C8.45586 4.35759 7.69096 5.12249 7.21159 6.0633C6.66663 7.13286 6.66663 8.53299 6.66663 11.3333V28.6666C6.66663 31.4668 6.66663 32.867 7.21159 33.9365C7.69096 34.8773 8.45586 35.6423 9.39667 36.1216C10.4662 36.6666 11.8664 36.6666 14.6666 36.6666H25.3333C28.1336 36.6666 29.5337 36.6666 30.6032 36.1216C31.5441 35.6423 32.309 34.8773 32.7883 33.9365C33.3333 32.867 33.3333 31.4668 33.3333 28.6666V13.3333L23.3333 3.33325Z" stroke="black" stroke-width="3.33333" stroke-linecap="round" stroke-linejoin="round"/>
</svg>
