<svg width="40" height="40" viewBox="0 0 40 40" fill="none" xmlns="http://www.w3.org/2000/svg">
<path opacity="0.12" d="M25.3333 3.33325H14.6666C11.8664 3.33325 10.4662 3.33325 9.39667 3.87822C8.45586 4.35759 7.69096 5.12249 7.21159 6.0633C6.66663 7.13286 6.66663 8.53299 6.66663 11.3333V28.6666C6.66663 31.4668 6.66663 32.867 7.21159 33.9365C7.69096 34.8773 8.45586 35.6423 9.39667 36.1216C10.4662 36.6666 11.8663 36.6666 14.6665 36.6666H20L33.3333 17.4999V11.3333C33.3333 8.53299 33.3333 7.13286 32.7883 6.0633C32.309 5.12249 31.5441 4.35759 30.6032 3.87822C29.5337 3.33325 28.1336 3.33325 25.3333 3.33325Z" fill="black"/>
<path d="M33.3333 17.4999V11.3333C33.3333 8.53299 33.3333 7.13286 32.7883 6.0633C32.309 5.12249 31.5441 4.35759 30.6032 3.87822C29.5337 3.33325 28.1336 3.33325 25.3333 3.33325H14.6666C11.8664 3.33325 10.4662 3.33325 9.39667 3.87822C8.45586 4.35759 7.69096 5.12249 7.21159 6.0633C6.66663 7.13286 6.66663 8.53299 6.66663 11.3333V28.6666C6.66663 31.4668 6.66663 32.867 7.21159 33.9365C7.69096 34.8774 8.45586 35.6423 9.39667 36.1216C10.4662 36.6666 11.8664 36.6666 14.6666 36.6666H20M30 34.9999V24.9999M25 29.9999H35" stroke="black" stroke-width="3.33333" stroke-linecap="round" stroke-linejoin="round"/>
</svg>
