<svg width="40" height="40" viewBox="0 0 40 40" fill="none" xmlns="http://www.w3.org/2000/svg">
<g opacity="0.12">
<path d="M28.6667 3.33325C31.467 3.33325 32.8671 3.33325 33.9367 3.87822C34.8775 4.35759 35.6424 5.12249 36.1217 6.0633C36.6667 7.13286 36.6667 8.53299 36.6667 11.3333V11.6666L3.33337 11.6666L3.33337 11.3333C3.33337 8.53299 3.33338 7.13286 3.87834 6.0633C4.35771 5.12249 5.12261 4.35759 6.06342 3.87822C7.13298 3.33325 8.53311 3.33325 11.3334 3.33325L28.6667 3.33325Z" fill="black"/>
<path d="M28.6667 36.6666C31.467 36.6666 32.8671 36.6666 33.9367 36.1216C34.8775 35.6423 35.6424 34.8773 36.1217 33.9365C36.6667 32.867 36.6667 31.4669 36.6667 28.6666V28.3333L3.33337 28.3333L3.33337 28.6666C3.33337 31.4668 3.33337 32.867 3.87834 33.9365C4.35771 34.8773 5.12261 35.6423 6.06342 36.1216C7.13298 36.6666 8.53311 36.6666 11.3334 36.6666H28.6667Z" fill="black"/>
</g>
<path d="M20 36.6666V3.33325M11.6667 36.6666V28.3333M11.6667 11.6666V3.33325M28.3334 36.6666V28.3333M28.3334 11.6666V3.33325M3.33337 11.6666H36.6667M3.33337 28.3333H36.6667M36.6667 28.6666V11.3333C36.6667 8.53299 36.6667 7.13286 36.1217 6.0633C35.6424 5.12249 34.8775 4.35759 33.9367 3.87822C32.8671 3.33325 31.467 3.33325 28.6667 3.33325L11.3334 3.33325C8.53311 3.33325 7.13298 3.33325 6.06342 3.87822C5.12261 4.35759 4.35771 5.12249 3.87834 6.0633C3.33337 7.13286 3.33337 8.53299 3.33337 11.3333L3.33337 28.6666C3.33337 31.4668 3.33337 32.867 3.87834 33.9365C4.35771 34.8773 5.12261 35.6423 6.06342 36.1216C7.13298 36.6666 8.53311 36.6666 11.3334 36.6666H28.6667C31.467 36.6666 32.8671 36.6666 33.9367 36.1216C34.8775 35.6423 35.6424 34.8773 36.1217 33.9365C36.6667 32.867 36.6667 31.4668 36.6667 28.6666Z" stroke="black" stroke-width="3.33333" stroke-linecap="round" stroke-linejoin="round"/>
</svg>
