<svg width="40" height="40" viewBox="0 0 40 40" fill="none" xmlns="http://www.w3.org/2000/svg">
<path opacity="0.12" d="M3.33337 7.66667C3.33337 6.73325 3.33337 6.26654 3.51503 5.91002C3.67482 5.59641 3.92979 5.34144 4.24339 5.18166C4.59991 5 5.06662 5 6.00004 5H34C34.9335 5 35.4002 5 35.7567 5.18166C36.0703 5.34144 36.3253 5.59641 36.4851 5.91002C36.6667 6.26654 36.6667 6.73325 36.6667 7.66667V8.78232C36.6667 9.23032 36.6667 9.45432 36.612 9.6626C36.5635 9.84718 36.4836 10.0221 36.3759 10.1796C36.2543 10.3574 36.0851 10.5041 35.7465 10.7975L25.0869 20.0358C24.7483 20.3292 24.5791 20.4759 24.4575 20.6537C24.3498 20.8113 24.27 20.9862 24.2215 21.1707C24.1667 21.379 24.1667 21.603 24.1667 22.051V30.764C24.1667 31.0899 24.1667 31.2529 24.1141 31.3938C24.0677 31.5183 23.9921 31.6299 23.8938 31.7192C23.7825 31.8204 23.6312 31.8809 23.3286 32.0019L17.6619 34.2686C17.0493 34.5136 16.743 34.6361 16.4972 34.585C16.2822 34.5404 16.0935 34.4126 15.9721 34.2296C15.8334 34.0203 15.8334 33.6904 15.8334 33.0306V22.051C15.8334 21.603 15.8334 21.379 15.7786 21.1707C15.7301 20.9862 15.6503 20.8113 15.5426 20.6537C15.421 20.4759 15.2517 20.3292 14.9132 20.0358L4.25356 10.7975C3.91501 10.5041 3.74574 10.3574 3.62419 10.1796C3.51648 10.0221 3.43663 9.84718 3.38812 9.6626C3.33337 9.45432 3.33337 9.23032 3.33337 8.78232V7.66667Z" fill="black" stroke="black" stroke-width="3.33333" stroke-linecap="round" stroke-linejoin="round"/>
<path d="M3.33337 7.66667C3.33337 6.73325 3.33337 6.26654 3.51503 5.91002C3.67482 5.59641 3.92979 5.34144 4.24339 5.18166C4.59991 5 5.06662 5 6.00004 5H34C34.9335 5 35.4002 5 35.7567 5.18166C36.0703 5.34144 36.3253 5.59641 36.4851 5.91002C36.6667 6.26654 36.6667 6.73325 36.6667 7.66667V8.78232C36.6667 9.23032 36.6667 9.45432 36.612 9.6626C36.5635 9.84718 36.4836 10.0221 36.3759 10.1796C36.2543 10.3574 36.0851 10.5041 35.7465 10.7975L25.0869 20.0358C24.7483 20.3292 24.5791 20.4759 24.4575 20.6537C24.3498 20.8113 24.27 20.9862 24.2215 21.1707C24.1667 21.379 24.1667 21.603 24.1667 22.051V30.764C24.1667 31.0899 24.1667 31.2529 24.1141 31.3938C24.0677 31.5183 23.9921 31.6299 23.8938 31.7192C23.7825 31.8204 23.6312 31.8809 23.3286 32.0019L17.6619 34.2686C17.0493 34.5136 16.743 34.6361 16.4972 34.585C16.2822 34.5404 16.0935 34.4126 15.9721 34.2296C15.8334 34.0203 15.8334 33.6904 15.8334 33.0306V22.051C15.8334 21.603 15.8334 21.379 15.7786 21.1707C15.7301 20.9862 15.6503 20.8113 15.5426 20.6537C15.421 20.4759 15.2517 20.3292 14.9132 20.0358L4.25356 10.7975C3.91501 10.5041 3.74574 10.3574 3.62419 10.1796C3.51648 10.0221 3.43663 9.84718 3.38812 9.6626C3.33337 9.45432 3.33337 9.23032 3.33337 8.78232V7.66667Z" stroke="black" stroke-width="3.33333" stroke-linecap="round" stroke-linejoin="round"/>
</svg>
