<svg width="40" height="40" viewBox="0 0 40 40" fill="none" xmlns="http://www.w3.org/2000/svg">
<path opacity="0.12" d="M20 30C25.5228 30 30 25.5228 30 20C30 14.4772 25.5228 10 20 10C14.4772 10 10 14.4772 10 20C10 25.5228 14.4772 30 20 30Z" fill="black"/>
<path d="M11.5304 5.64267C14.0124 4.17533 16.9079 3.33325 20 3.33325C29.2048 3.33325 36.6667 10.7952 36.6667 19.9999C36.6667 20.0551 36.6664 20.1103 36.6659 20.1654M5.63528 11.543C4.17257 14.0222 3.33337 16.913 3.33337 19.9999C3.33337 27.7659 8.64493 34.2913 15.8334 36.1415M34.5128 28.2009C32.3121 32.0869 28.5956 35.0016 24.1667 36.1415M23.4822 10.6229C22.3978 10.22 21.2246 9.99992 20 9.99992C14.4772 9.99992 10 14.4771 10 19.9999C10 21.2312 10.2226 22.4104 10.6296 23.4997M29.3752 16.5127C29.7792 17.5985 30 18.7734 30 19.9999C30 25.5228 25.5229 29.9999 20 29.9999C18.7836 29.9999 17.6179 29.7827 16.5396 29.385M20 16.6666V23.3333" stroke="black" stroke-width="3.33333" stroke-linecap="round" stroke-linejoin="round"/>
</svg>
