<svg width="40" height="40" viewBox="0 0 40 40" fill="none" xmlns="http://www.w3.org/2000/svg">
<path opacity="0.12" d="M20.9076 25.2777H33.5675C34.313 25.2777 34.6858 25.2777 34.9038 25.121C35.094 24.9842 35.2178 24.7737 35.245 24.541C35.2762 24.2744 35.0951 23.9485 34.7331 23.2968L32.2838 18.8882C32.1525 18.6518 32.0869 18.5337 32.0611 18.4085C32.0384 18.2978 32.0384 18.1835 32.0611 18.0728C32.0869 17.9476 32.1525 17.8295 32.2838 17.5931L34.7331 13.1845C35.0951 12.5328 35.2762 12.2069 35.245 11.9403C35.2178 11.7076 35.094 11.4971 34.9038 11.3603C34.6858 11.2036 34.313 11.2036 33.5675 11.2036H23.5187V15.574C23.5187 16.5074 23.5187 16.9741 23.3371 17.3306C23.1773 17.6442 22.9223 17.8992 22.6087 18.059C22.2522 18.2407 21.7855 18.2407 20.8521 18.2407H18.241V22.611C18.241 23.5444 18.241 24.0112 18.4226 24.3677C18.5824 24.6813 18.8374 24.9362 19.151 25.096C19.5075 25.2777 19.9742 25.2777 20.9076 25.2777Z" fill="black"/>
<path d="M23.5185 11.2037H33.5673C34.3128 11.2037 34.6855 11.2037 34.9035 11.3604C35.0937 11.4972 35.2176 11.7077 35.2448 11.9404C35.2759 12.207 35.0949 12.5329 34.7328 13.1846L32.2836 17.5932C32.1523 17.8295 32.0866 17.9477 32.0609 18.0729C32.0381 18.1836 32.0381 18.2979 32.0609 18.4086C32.0866 18.5338 32.1523 18.6519 32.2836 18.8883L34.7328 23.2969C35.0949 23.9486 35.2759 24.2744 35.2448 24.5411C35.2176 24.7738 35.0937 24.9843 34.9035 25.121C34.6855 25.2778 34.3128 25.2778 33.5673 25.2778H20.9074C19.974 25.2778 19.5073 25.2778 19.1507 25.0961C18.8371 24.9363 18.5822 24.6814 18.4224 24.3678C18.2407 24.0112 18.2407 23.5445 18.2407 22.6111V18.2407M12.0833 35.8338L5.04629 7.68563M7.68526 18.2408H20.8518C21.7853 18.2408 22.252 18.2408 22.6085 18.0592C22.9221 17.8994 23.1771 17.6444 23.3369 17.3308C23.5185 16.9743 23.5185 16.5076 23.5185 15.5742V6.83341C23.5185 5.89999 23.5185 5.43328 23.3369 5.07676C23.1771 4.76316 22.9221 4.50819 22.6085 4.3484C22.252 4.16675 21.7853 4.16675 20.8518 4.16675H7.58204C6.41783 4.16675 5.83573 4.16675 5.43759 4.40797C5.08865 4.6194 4.82937 4.95147 4.7089 5.34128C4.57144 5.78604 4.71262 6.35076 4.995 7.4802L7.68526 18.2408Z" stroke="black" stroke-width="3.33333" stroke-linecap="round" stroke-linejoin="round"/>
</svg>
