<svg width="40" height="40" viewBox="0 0 40 40" fill="none" xmlns="http://www.w3.org/2000/svg">
<path opacity="0.12" d="M21.6666 8.33325H32.3333C33.2667 8.33325 33.7334 8.33325 34.0899 8.51491C34.4035 8.6747 34.6585 8.92966 34.8183 9.24327C35 9.59979 35 10.0665 35 10.9999V22.3333C35 23.2667 35 23.7334 34.8183 24.0899C34.6585 24.4035 34.4035 24.6585 34.0899 24.8183C33.7334 24.9999 33.2667 24.9999 32.3333 24.9999H24.3333C23.3999 24.9999 22.9332 24.9999 22.5766 24.8183C22.263 24.6585 22.0081 24.4035 21.8483 24.0899C21.6666 23.7334 21.6666 23.2667 21.6666 22.3333V8.33325Z" fill="black"/>
<path d="M6.66663 35L6.66663 6.66667M6.66663 21.6667H19C19.9334 21.6667 20.4001 21.6667 20.7566 21.485C21.0702 21.3252 21.3252 21.0703 21.485 20.7567C21.6666 20.4001 21.6666 19.9334 21.6666 19V7.66667C21.6666 6.73325 21.6666 6.26654 21.485 5.91002C21.3252 5.59641 21.0702 5.34144 20.7566 5.18166C20.4001 5 19.9334 5 19 5H9.33329C8.39987 5 7.93316 5 7.57664 5.18166C7.26304 5.34144 7.00807 5.59641 6.84828 5.91002C6.66663 6.26654 6.66663 6.73325 6.66663 7.66667V21.6667ZM21.6666 8.33333H32.3333C33.2667 8.33333 33.7334 8.33333 34.0899 8.51499C34.4035 8.67478 34.6585 8.92975 34.8183 9.24335C35 9.59987 35 10.0666 35 11V22.3333C35 23.2668 35 23.7335 34.8183 24.09C34.6585 24.4036 34.4035 24.6586 34.0899 24.8183C33.7334 25 33.2667 25 32.3333 25H24.3333C23.3999 25 22.9332 25 22.5766 24.8183C22.263 24.6586 22.0081 24.4036 21.8483 24.09C21.6666 23.7335 21.6666 23.2668 21.6666 22.3333V8.33333Z" stroke="black" stroke-width="3.33333" stroke-linecap="round" stroke-linejoin="round"/>
</svg>
