<svg width="40" height="40" viewBox="0 0 40 40" fill="none" xmlns="http://www.w3.org/2000/svg">
<path opacity="0.12" d="M3.33337 10.3333C3.33337 8.46649 3.33337 7.53307 3.69669 6.82003C4.01626 6.19282 4.5262 5.68289 5.15341 5.36331C5.86644 5 6.79987 5 8.66671 5H15.0372C16.2337 5 16.832 5 17.3602 5.18218C17.8272 5.34329 18.2527 5.60622 18.6057 5.95194C19.0048 6.34289 19.2724 6.87799 19.8075 7.94819L21.6667 11.6667H3.33337V10.3333Z" fill="black"/>
<path d="M21.6667 11.6667L19.8075 7.94819C19.2724 6.87801 19.0048 6.34288 18.6057 5.95194C18.2527 5.60622 17.8272 5.34329 17.3602 5.18218C16.832 5 16.2337 5 15.0372 5H8.66671C6.79987 5 5.86644 5 5.15341 5.36331C4.5262 5.68289 4.01626 6.19282 3.69669 6.82003C3.33337 7.53307 3.33337 8.46649 3.33337 10.3333V11.6667M3.33337 11.6667H28.6667C31.467 11.6667 32.8671 11.6667 33.9367 12.2116C34.8775 12.691 35.6424 13.4559 36.1217 14.3967C36.6667 15.4663 36.6667 16.8664 36.6667 19.6667V27C36.6667 29.8003 36.6667 31.2004 36.1217 32.27C35.6424 33.2108 34.8775 33.9757 33.9367 34.455C32.8671 35 31.467 35 28.6667 35H11.3334C8.53311 35 7.13298 35 6.06342 34.455C5.12261 33.9757 4.35771 33.2108 3.87834 32.27C3.33337 31.2004 3.33337 29.8003 3.33337 27V11.6667ZM25.8334 29.1667L23.3334 26.6667M25 22.5C25 25.7217 22.3884 28.3333 19.1667 28.3333C15.945 28.3333 13.3334 25.7217 13.3334 22.5C13.3334 19.2783 15.945 16.6667 19.1667 16.6667C22.3884 16.6667 25 19.2783 25 22.5Z" stroke="black" stroke-width="3.33333" stroke-linecap="round" stroke-linejoin="round"/>
</svg>
