<svg width="40" height="40" viewBox="0 0 40 40" fill="none" xmlns="http://www.w3.org/2000/svg">
<g opacity="0.12">
<path d="M3.69669 13.4868C3.33337 14.1998 3.33337 15.1332 3.33337 17.0001V23.3334H20V11.6667H8.66671C6.79987 11.6667 5.86645 11.6667 5.15341 12.0301C4.5262 12.3496 4.01626 12.8596 3.69669 13.4868Z" fill="black"/>
<path d="M36.3034 34.8467C36.6667 34.1337 36.6667 33.2003 36.6667 31.3334V23.3334H20L20 36.6668L31.3334 36.6667C33.2002 36.6667 34.1336 36.6667 34.8467 36.3034C35.4739 35.9839 35.9838 35.4739 36.3034 34.8467Z" fill="black"/>
</g>
<path d="M20 11.6666H12.5C11.395 11.6666 10.3352 11.2276 9.55376 10.4462C8.77236 9.6648 8.33337 8.60499 8.33337 7.49992C8.33337 6.39485 8.77236 5.33504 9.55376 4.55364C10.3352 3.77224 11.395 3.33325 12.5 3.33325C18.3334 3.33325 20 11.6666 20 11.6666ZM20 11.6666H27.5C28.6051 11.6666 29.6649 11.2276 30.4463 10.4462C31.2277 9.6648 31.6667 8.60499 31.6667 7.49992C31.6667 6.39485 31.2277 5.33504 30.4463 4.55364C29.6649 3.77224 28.6051 3.33325 27.5 3.33325C21.6667 3.33325 20 11.6666 20 11.6666ZM20 11.6666L20 36.6666M3.33337 23.3333H36.6667M3.33337 16.9999L3.33337 31.3332C3.33337 33.2001 3.33337 34.1335 3.69669 34.8466C4.01626 35.4738 4.5262 35.9837 5.15341 36.3033C5.86644 36.6666 6.79987 36.6666 8.66671 36.6666L31.3334 36.6666C33.2002 36.6666 34.1336 36.6666 34.8467 36.3033C35.4739 35.9837 35.9838 35.4738 36.3034 34.8466C36.6667 34.1335 36.6667 33.2001 36.6667 31.3333V16.9999C36.6667 15.1331 36.6667 14.1997 36.3034 13.4866C35.9838 12.8594 35.4739 12.3495 34.8467 12.0299C34.1336 11.6666 33.2002 11.6666 31.3334 11.6666L8.66671 11.6666C6.79987 11.6666 5.86645 11.6666 5.15341 12.0299C4.5262 12.3495 4.01626 12.8594 3.69669 13.4866C3.33337 14.1997 3.33337 15.1331 3.33337 16.9999Z" stroke="black" stroke-width="3.33333" stroke-linecap="round" stroke-linejoin="round"/>
</svg>
