<svg width="40" height="40" viewBox="0 0 40 40" fill="none" xmlns="http://www.w3.org/2000/svg">
<path opacity="0.12" d="M20 3.33325C25 6.66658 26.538 13.82 26.6667 19.9999C26.538 26.1799 25 33.3333 20 36.6666C15 33.3333 13.4621 26.1799 13.3334 19.9999C13.4621 13.82 15 6.66659 20 3.33325Z" fill="black"/>
<path d="M20 3.33325C25 6.66658 26.538 13.82 26.6667 19.9999C26.538 26.1799 25 33.3333 20 36.6666M20 3.33325C15 6.66659 13.4621 13.82 13.3334 19.9999C13.4621 26.1799 15 33.3333 20 36.6666M20 3.33325C10.7953 3.33325 3.33337 10.7952 3.33337 19.9999M20 3.33325C29.2048 3.33325 36.6667 10.7952 36.6667 19.9999M20 36.6666C29.2048 36.6666 36.6667 29.2047 36.6667 19.9999M20 36.6666C10.7953 36.6666 3.33337 29.2047 3.33337 19.9999M36.6667 19.9999C33.3334 24.9999 26.18 26.5378 20 26.6666C13.8201 26.5378 6.66671 24.9999 3.33337 19.9999M36.6667 19.9999C33.3334 14.9999 26.18 13.462 20 13.3333C13.8201 13.462 6.66671 14.9999 3.33337 19.9999" stroke="black" stroke-width="3.33333" stroke-linecap="round" stroke-linejoin="round"/>
</svg>
