<svg width="40" height="40" viewBox="0 0 40 40" fill="none" xmlns="http://www.w3.org/2000/svg">
<path opacity="0.12" d="M17.5 30C24.4036 30 30 24.4036 30 17.5C30 10.5964 24.4036 5 17.5 5C10.5964 5 5 10.5964 5 17.5C5 24.4036 10.5964 30 17.5 30Z" fill="black"/>
<path d="M31.0527 3.94727C38.5378 11.4323 38.5378 23.568 31.0527 31.053C23.8846 38.2211 12.4515 38.5247 4.92221 31.9637C4.59385 31.6776 4.42967 31.5345 4.35556 31.3389C4.29321 31.1744 4.28623 30.971 4.33715 30.8025C4.39768 30.6023 4.5617 30.4383 4.88976 30.1102L8.58184 26.4181M29.9998 17.5001C29.9998 24.4037 24.4034 30.0001 17.4998 30.0001C10.5963 30.0001 4.99983 24.4037 4.99983 17.5001C4.99983 10.5966 10.5963 5.00015 17.4998 5.00015C24.4034 5.00015 29.9998 10.5966 29.9998 17.5001Z" stroke="black" stroke-width="3.33333" stroke-linecap="round" stroke-linejoin="round"/>
</svg>
