<svg width="40" height="40" viewBox="0 0 40 40" fill="none" xmlns="http://www.w3.org/2000/svg">
<g opacity="0.12">
<path d="M28.3334 19.9999C31.6667 16.6666 35 13.6818 35 9.99992C35 6.31802 32.0153 3.33325 28.3334 3.33325C24.6515 3.33325 21.6667 6.31802 21.6667 9.99992C21.6667 13.6818 25 16.6666 28.3334 19.9999Z" fill="black"/>
<path d="M17.5001 36.4804L17.5003 32.8082C17.5003 32.6093 17.5715 32.4169 17.7009 32.2659L21.8439 27.4323C22.1844 27.0351 22.0789 26.426 21.6246 26.1664L16.8643 23.4462C16.7349 23.3723 16.6278 23.265 16.5539 23.1357L13.4508 17.6977C13.2893 17.4147 12.9777 17.2517 12.6531 17.2806L3.44035 18.1012C3.36968 18.7243 3.33337 19.3579 3.33337 20C3.33337 28.3551 9.48131 35.2742 17.5001 36.4804Z" fill="black"/>
</g>
<path d="M25 4.09626C23.4216 3.60051 21.7421 3.33325 20 3.33325C10.7953 3.33325 3.33337 10.7952 3.33337 19.9999C3.33337 29.2047 10.7953 36.6666 20 36.6666C29.2048 36.6666 36.6667 29.2047 36.6667 19.9999C36.6667 17.141 35.9469 14.4503 34.6786 12.099M28.3334 9.58325H28.3417M17.5001 36.4804L17.5003 32.8081C17.5003 32.6092 17.5715 32.4169 17.7009 32.2659L21.8439 27.4323C22.1844 27.035 22.0789 26.426 21.6246 26.1664L16.8643 23.4461C16.7349 23.3722 16.6278 23.265 16.5539 23.1356L13.4508 17.6976C13.2893 17.4146 12.9777 17.2517 12.6531 17.2806L3.44035 18.1012M35 9.99992C35 13.6818 31.6667 16.6666 28.3334 19.9999C25 16.6666 21.6667 13.6818 21.6667 9.99992C21.6667 6.31802 24.6515 3.33325 28.3334 3.33325C32.0153 3.33325 35 6.31802 35 9.99992ZM28.75 9.58325C28.75 9.81337 28.5635 9.99992 28.3334 9.99992C28.1033 9.99992 27.9167 9.81337 27.9167 9.58325C27.9167 9.35313 28.1033 9.16659 28.3334 9.16659C28.5635 9.16659 28.75 9.35313 28.75 9.58325Z" stroke="black" stroke-width="3.33333" stroke-linecap="round" stroke-linejoin="round"/>
</svg>
