<svg width="40" height="40" viewBox="0 0 40 40" fill="none" xmlns="http://www.w3.org/2000/svg">
<path opacity="0.12" d="M25.0561 6.66675H14.9446C13.1498 6.66675 12.2524 6.66675 11.4601 6.94002C10.7595 7.18168 10.1214 7.57607 9.5919 8.09466C8.99316 8.68108 8.59183 9.48373 7.78918 11.089L4.17824 18.3109L4.17822 18.311C3.86325 18.9409 3.70576 19.2559 3.59469 19.586C3.54883 19.7223 3.50889 19.8605 3.47498 20.0001H36.5257C36.4918 19.8605 36.4518 19.7223 36.406 19.586C36.2949 19.2559 36.1374 18.9409 35.8224 18.3109L32.2115 11.089L32.2114 11.0889C31.4088 9.48371 31.0075 8.68106 30.4087 8.09466C29.8793 7.57607 29.2411 7.18168 28.5405 6.94002C27.7482 6.66675 26.8508 6.66675 25.0561 6.66675Z" fill="black"/>
<path d="M4.16671 20.0001H35.8334M10 26.6667H16.6667M14.9443 6.66675H25.0558C26.8506 6.66675 27.748 6.66675 28.5402 6.94002C29.2409 7.18168 29.879 7.57607 30.4085 8.09466C31.0072 8.68108 31.4085 9.48375 32.2112 11.089L35.8221 18.3109C36.1371 18.9409 36.2946 19.2559 36.4057 19.586C36.5043 19.8792 36.5755 20.1809 36.6184 20.4872C36.6667 20.8321 36.6667 21.1843 36.6667 21.8886V25.3334C36.6667 28.1337 36.6667 29.5338 36.1217 30.6034C35.6424 31.5442 34.8775 32.3091 33.9367 32.7884C32.8671 33.3334 31.467 33.3334 28.6667 33.3334H11.3334C8.53311 33.3334 7.13298 33.3334 6.06342 32.7884C5.12261 32.3091 4.35771 31.5442 3.87834 30.6034C3.33337 29.5338 3.33337 28.1337 3.33337 25.3334V21.8886C3.33337 21.1843 3.33337 20.8321 3.38166 20.4872C3.42455 20.1809 3.49577 19.8792 3.59441 19.586C3.70547 19.2559 3.86297 18.9409 4.17796 18.3109L7.7889 11.089C8.59155 9.48373 8.99288 8.68108 9.59162 8.09466C10.1211 7.57607 10.7592 7.18168 11.4599 6.94002C12.2521 6.66675 13.1495 6.66675 14.9443 6.66675Z" stroke="black" stroke-width="3.33333" stroke-linecap="round" stroke-linejoin="round"/>
</svg>
