<svg width="40" height="40" viewBox="0 0 40 40" fill="none" xmlns="http://www.w3.org/2000/svg">
<g opacity="0.12">
<path d="M5 27.4999C5 25.1987 6.86548 23.3333 9.16667 23.3333C11.4679 23.3333 13.3333 25.1987 13.3333 27.4999V30.8333C13.3333 33.1344 11.4679 34.9999 9.16667 34.9999C6.86548 34.9999 5 33.1344 5 30.8333V27.4999Z" fill="black"/>
<path d="M26.6667 27.4999C26.6667 25.1987 28.5321 23.3333 30.8333 23.3333C33.1345 23.3333 35 25.1987 35 27.4999V30.8333C35 33.1344 33.1345 34.9999 30.8333 34.9999C28.5321 34.9999 26.6667 33.1344 26.6667 30.8333V27.4999Z" fill="black"/>
</g>
<path d="M35 30V20C35 11.7157 28.2843 5 20 5C11.7157 5 5 11.7157 5 20V30M9.16667 35C6.86548 35 5 33.1345 5 30.8333V27.5C5 25.1988 6.86548 23.3333 9.16667 23.3333C11.4679 23.3333 13.3333 25.1988 13.3333 27.5V30.8333C13.3333 33.1345 11.4679 35 9.16667 35ZM30.8333 35C28.5321 35 26.6667 33.1345 26.6667 30.8333V27.5C26.6667 25.1988 28.5321 23.3333 30.8333 23.3333C33.1345 23.3333 35 25.1988 35 27.5V30.8333C35 33.1345 33.1345 35 30.8333 35Z" stroke="black" stroke-width="3.33333" stroke-linecap="round" stroke-linejoin="round"/>
</svg>
