<svg width="40" height="40" viewBox="0 0 40 40" fill="none" xmlns="http://www.w3.org/2000/svg">
<path opacity="0.12" fill-rule="evenodd" clip-rule="evenodd" d="M28.6523 5.98709C27.6576 3.90566 25.3643 2.80298 23.1341 3.86729C20.9038 4.9316 19.9537 7.45563 20.8874 9.67138C21.8212 11.8871 25.5728 17.4798 25.5728 17.4798C25.5728 17.4798 31.6182 14.5122 33.5347 13.0602C35.4512 11.6082 35.926 8.93929 34.4911 6.9104C33.0563 4.88151 30.5544 4.68187 28.6523 5.98709Z" fill="black"/>
<path d="M10 33.4786H14.3505C14.9178 33.4786 15.4815 33.5461 16.0314 33.6811L20.6282 34.7981C21.6256 35.0411 22.6647 35.0647 23.6725 34.869L28.755 33.8802C30.0976 33.6186 31.3327 32.9757 32.3006 32.0342L35.8965 28.5362C36.9234 27.5389 36.9234 25.9207 35.8965 24.9218C34.972 24.0224 33.5079 23.9211 32.4619 24.6838L28.271 27.7414C27.6709 28.1801 26.9406 28.4164 26.1895 28.4164H22.1425L24.7185 28.4163C26.1704 28.4163 27.3465 27.2722 27.3465 25.8598V25.3486C27.3465 24.1758 26.526 23.1533 25.3568 22.8698L21.381 21.9029C20.734 21.746 20.0714 21.6667 19.4053 21.6667C17.7973 21.6667 14.8865 22.998 14.8865 22.998L10 25.0415M3.33337 24.3333L3.33337 34C3.33337 34.9334 3.33337 35.4001 3.51503 35.7566C3.67482 36.0702 3.92979 36.3252 4.24339 36.485C4.59991 36.6667 5.06662 36.6667 6.00004 36.6667H7.33337C8.26679 36.6667 8.7335 36.6667 9.09002 36.485C9.40363 36.3252 9.6586 36.0702 9.81839 35.7566C10 35.4001 10 34.9334 10 34V24.3333C10 23.3999 10 22.9332 9.81839 22.5767C9.6586 22.2631 9.40363 22.0081 9.09003 21.8483C8.73351 21.6667 8.2668 21.6667 7.33338 21.6667H6.00004C5.06662 21.6667 4.59991 21.6667 4.24339 21.8483C3.92979 22.0081 3.67482 22.2631 3.51503 22.5767C3.33337 22.9332 3.33337 23.3999 3.33337 24.3333ZM28.6523 5.98708C27.6576 3.90565 25.3643 2.80296 23.1341 3.86728C20.9039 4.93159 19.9537 7.45562 20.8875 9.67137C21.4646 11.0408 23.118 13.7 24.2969 15.5317C24.7324 16.2085 24.9502 16.5469 25.2684 16.7449C25.5412 16.9147 25.8828 17.0062 26.204 16.9956C26.5785 16.9832 26.9363 16.799 27.652 16.4307C29.5888 15.4338 32.3503 13.9576 33.5347 13.0602C35.4513 11.6082 35.926 8.93928 34.4911 6.91039C33.0563 4.8815 30.5545 4.68186 28.6523 5.98708Z" stroke="black" stroke-width="3.33333" stroke-linecap="round" stroke-linejoin="round"/>
</svg>
