<svg width="40" height="40" viewBox="0 0 40 40" fill="none" xmlns="http://www.w3.org/2000/svg">
<path opacity="0.12" fill-rule="evenodd" clip-rule="evenodd" d="M19.9886 8.55969C16.6564 4.664 11.0996 3.61607 6.92453 7.18336C2.74945 10.7506 2.16165 16.715 5.44037 20.934C8.1664 24.4418 16.4163 31.8402 19.1202 34.2347C19.4227 34.5026 19.574 34.6366 19.7504 34.6892C19.9044 34.7351 20.0729 34.7351 20.2269 34.6892C20.4033 34.6366 20.5545 34.5026 20.857 34.2347C23.5609 31.8402 31.8108 24.4418 34.5369 20.934C37.8156 16.715 37.2996 10.7131 33.0527 7.18336C28.8059 3.6536 23.3209 4.664 19.9886 8.55969Z" fill="black"/>
<path fill-rule="evenodd" clip-rule="evenodd" d="M19.9886 8.55969C16.6564 4.664 11.0996 3.61607 6.92453 7.18336C2.74945 10.7506 2.16165 16.715 5.44037 20.934C8.1664 24.4418 16.4163 31.8402 19.1202 34.2347C19.4227 34.5026 19.574 34.6366 19.7504 34.6892C19.9044 34.7351 20.0729 34.7351 20.2269 34.6892C20.4033 34.6366 20.5545 34.5026 20.857 34.2347C23.5609 31.8402 31.8108 24.4418 34.5369 20.934C37.8156 16.715 37.2996 10.7131 33.0527 7.18336C28.8059 3.6536 23.3209 4.664 19.9886 8.55969Z" stroke="black" stroke-width="3.33333" stroke-linecap="round" stroke-linejoin="round"/>
</svg>
