<svg width="18" height="18" viewBox="0 0 18 18" fill="none" xmlns="http://www.w3.org/2000/svg">
<path d="M6.19238 1.07967C7.73036 -0.35991 10.1212 -0.359868 11.6592 1.07967L16.585 5.69002C17.3929 6.44632 17.8516 7.50423 17.8516 8.61092V13.7369C17.8515 15.9459 16.0606 17.7369 13.8516 17.7369L8.92578 17.7379L8.88867 17.7369H4C1.79092 17.7369 0.000101918 15.9459 0 13.7369V8.61092C0 7.57338 0.403027 6.5789 1.11914 5.83553L1.2666 5.69002L6.19238 1.07967ZM10.6338 2.17439C9.67265 1.27517 8.17889 1.27513 7.21777 2.17439L2.29199 6.78572C1.78705 7.25841 1.5 7.91926 1.5 8.61092V13.7369C1.5001 15.1175 2.61935 16.2369 4 16.2369H6.01953C5.63615 15.6995 5.39606 15.0527 5.36035 14.3512L5.35547 14.1676V12.7906C5.35553 11.8015 5.76624 10.8599 6.4834 10.1871L6.63086 10.0562C7.9583 8.9422 9.89431 8.94209 11.2217 10.0562C12.0295 10.7346 12.496 11.7357 12.4961 12.7906V14.1676L12.4912 14.3512C12.4555 15.0523 12.217 15.6997 11.834 16.2369H13.8516C15.2322 16.2369 16.3515 15.1175 16.3516 13.7369V8.61092C16.3516 7.91942 16.0653 7.25838 15.5605 6.78572L10.6338 2.17439ZM10.2568 11.2047C9.48715 10.5588 8.36441 10.5588 7.59473 11.2047C7.12628 11.598 6.85553 12.1789 6.85547 12.7906V14.1676C6.85595 15.304 7.77216 16.2264 8.90625 16.2369H8.94531C10.0795 16.2264 10.9956 15.3041 10.9961 14.1676V12.7906C10.996 12.1789 10.7253 11.598 10.2568 11.2047Z" fill="black"/>
</svg>
