<svg width="34" height="35" viewBox="0 0 34 35" fill="none" xmlns="http://www.w3.org/2000/svg">
<path d="M15.0001 3.33341H9.66675C6.86649 3.33341 5.46635 3.33341 4.3968 3.87838C3.45599 4.35775 2.69108 5.12265 2.21172 6.06346C1.66675 7.13302 1.66675 8.53315 1.66675 11.3334V20.0001C1.66675 21.55 1.66675 22.325 1.83712 22.9608C2.29945 24.6863 3.64719 26.034 5.37265 26.4964C6.00849 26.6667 6.78346 26.6667 8.33342 26.6667V30.5593C8.33342 31.4473 8.33342 31.8914 8.51546 32.1194C8.67379 32.3178 8.91386 32.4332 9.16765 32.4329C9.45946 32.4326 9.8062 32.1552 10.4997 31.6004L14.4754 28.4198C15.2876 27.7701 15.6937 27.4452 16.1459 27.2142C16.5471 27.0092 16.9741 26.8594 17.4154 26.7688C17.9129 26.6667 18.4329 26.6667 19.473 26.6667H22.0001C24.8003 26.6667 26.2005 26.6667 27.27 26.1218C28.2108 25.6424 28.9757 24.8775 29.4551 23.9367C30.0001 22.8671 30.0001 21.467 30.0001 18.6667V18.3334M30.2023 3.13121C32.1549 5.08384 32.1549 8.24966 30.2023 10.2023C28.2497 12.1549 25.0838 12.1549 23.1312 10.2023C21.1786 8.24966 21.1786 5.08384 23.1312 3.13121C25.0838 1.17859 28.2497 1.17859 30.2023 3.13121Z" stroke="black" stroke-width="3.33333" stroke-linecap="round" stroke-linejoin="round"/>
</svg>
