<svg width="40" height="40" viewBox="0 0 40 40" fill="none" xmlns="http://www.w3.org/2000/svg">
<g opacity="0.12">
<path d="M10.8851 32.68L24.9833 19.8635C25.581 19.3202 25.8798 19.0485 26.2208 18.9377C26.5213 18.8401 26.8434 18.83 27.1496 18.9084C27.4968 18.9975 27.8122 19.2498 28.4429 19.7544L33.105 23.484C33.7352 23.9882 34.0503 24.2403 34.2887 24.5439C34.5882 24.9255 34.8008 25.3679 34.9117 25.8402C34.9999 26.216 34.9999 26.6195 34.9999 27.4266C34.9999 29.8252 34.9999 31.0245 34.5969 31.9664C34.0911 33.149 33.149 34.0911 31.9664 34.597C31.0244 34.9999 29.8251 34.9999 27.4265 34.9999H11.782C10.7104 34.9999 10.1745 34.9999 9.93854 34.7925C9.73399 34.6127 9.63021 34.3442 9.66061 34.0736C9.69568 33.7613 10.0922 33.4009 10.8851 32.68Z" fill="black"/>
<path d="M14.1666 17.4999C16.0075 17.4999 17.4999 16.0075 17.4999 14.1666C17.4999 12.3256 16.0075 10.8333 14.1666 10.8333C12.3256 10.8333 10.8332 12.3256 10.8332 14.1666C10.8332 16.0075 12.3256 17.4999 14.1666 17.4999Z" fill="black"/>
</g>
<path d="M20.8333 4.99992H13C10.1997 4.99992 8.79961 4.99992 7.73005 5.54489C6.78924 6.02425 6.02433 6.78916 5.54497 7.72997C5 8.79953 5 10.1997 5 12.9999V26.9999C5 29.8002 5 31.2003 5.54497 32.2699C6.02433 33.2107 6.78924 33.9756 7.73005 34.455C8.79961 34.9999 10.1997 34.9999 13 34.9999H28.3333C29.8833 34.9999 30.6583 34.9999 31.2941 34.8295C33.0196 34.3672 34.3673 33.0195 34.8296 31.294C35 30.6582 35 29.8832 35 28.3333M31.6667 13.3333V3.33325M26.6667 8.33325H36.6667M17.5 14.1666C17.5 16.0075 16.0076 17.4999 14.1667 17.4999C12.3257 17.4999 10.8333 16.0075 10.8333 14.1666C10.8333 12.3256 12.3257 10.8333 14.1667 10.8333C16.0076 10.8333 17.5 12.3256 17.5 14.1666ZM24.9834 19.8635L10.8852 32.68C10.0923 33.4009 9.69578 33.7613 9.66071 34.0736C9.63031 34.3442 9.73409 34.6127 9.93864 34.7925C10.1746 34.9999 10.7105 34.9999 11.7821 34.9999H27.4266C29.8252 34.9999 31.0246 34.9999 31.9665 34.597C33.1491 34.0911 34.0912 33.149 34.597 31.9664C35 31.0245 35 29.8252 35 27.4266C35 26.6195 35 26.216 34.9118 25.8402C34.8009 25.3679 34.5883 24.9255 34.2888 24.5439C34.0504 24.2403 33.7353 23.9882 33.1051 23.484L28.443 19.7544C27.8123 19.2498 27.4969 18.9975 27.1497 18.9084C26.8436 18.83 26.5214 18.8401 26.2209 18.9377C25.8799 19.0485 25.5811 19.3202 24.9834 19.8635Z" stroke="black" stroke-width="3.33333" stroke-linecap="round" stroke-linejoin="round"/>
</svg>
