<svg width="40" height="40" viewBox="0 0 40 40" fill="none" xmlns="http://www.w3.org/2000/svg">
<g opacity="0.12">
<path d="M16.6666 22.5001C20.3485 22.5001 23.3333 19.5153 23.3333 15.8334C23.3333 12.1515 20.3485 9.16675 16.6666 9.16675C12.9847 9.16675 9.99996 12.1515 9.99996 15.8334C9.99996 19.5153 12.9847 22.5001 16.6666 22.5001Z" fill="black"/>
<path d="M29.9996 36.6667C29.9996 35.1179 29.9996 34.3435 29.8715 33.6995C29.3454 31.0549 27.2781 28.9876 24.6335 28.4615C23.9895 28.3334 23.2151 28.3334 21.6662 28.3334H9.99957C6.93757 28.3334 4.35771 30.3977 3.57581 33.2106C4.22633 35.2165 6.11025 36.6667 8.33291 36.6667H29.9996Z" fill="black"/>
</g>
<path d="M31.6667 13.3333V3.33325M26.6667 8.33325H36.6667M36.6667 19.9999V28.6666C36.6667 31.4668 36.6667 32.867 36.1217 33.9365C35.6424 34.8774 34.8775 35.6423 33.9367 36.1216C32.8671 36.6666 31.467 36.6666 28.6667 36.6666H11.3334C8.53311 36.6666 7.13298 36.6666 6.06342 36.1216C5.12261 35.6423 4.35771 34.8774 3.87834 33.9365C3.33337 32.867 3.33337 31.4668 3.33337 28.6666V11.3333C3.33337 8.53299 3.33337 7.13286 3.87834 6.0633C4.35771 5.12249 5.12261 4.35759 6.06342 3.87822C7.13298 3.33325 8.53311 3.33325 11.3334 3.33325H20M3.57627 33.2104C4.35818 30.3976 6.93803 28.3333 10 28.3333H21.6667C23.2156 28.3333 23.99 28.3333 24.634 28.4614C27.2786 28.9874 29.3459 31.0547 29.8719 33.6993C30 34.3433 30 35.1177 30 36.6666M23.3334 15.8333C23.3334 19.5152 20.3486 22.4999 16.6667 22.4999C12.9848 22.4999 10 19.5152 10 15.8333C10 12.1514 12.9848 9.16659 16.6667 9.16659C20.3486 9.16659 23.3334 12.1514 23.3334 15.8333Z" stroke="black" stroke-width="3.33333" stroke-linecap="round" stroke-linejoin="round"/>
</svg>
