<svg width="40" height="40" viewBox="0 0 40 40" fill="none" xmlns="http://www.w3.org/2000/svg">
<path opacity="0.12" d="M26.6666 14.9999C26.6666 21.4432 21.4432 26.6666 14.9999 26.6666C14.47 26.6666 13.9483 26.6313 13.437 26.5628C13.3686 26.0516 13.3333 25.5299 13.3333 24.9999C13.3333 18.5566 18.5566 13.3333 24.9999 13.3333C25.5299 13.3333 26.0516 13.3686 26.5628 13.437C26.6313 13.9483 26.6666 14.47 26.6666 14.9999Z" fill="black"/>
<path d="M14.9999 26.6666C21.4432 26.6666 26.6666 21.4432 26.6666 14.9999C26.6666 8.5566 21.4432 3.33325 14.9999 3.33325C8.5566 3.33325 3.33325 8.5566 3.33325 14.9999C3.33325 21.4432 8.5566 26.6666 14.9999 26.6666Z" stroke="black" stroke-width="3.33333" stroke-linecap="round" stroke-linejoin="round"/>
<path d="M24.9999 36.6666C31.4432 36.6666 36.6666 31.4432 36.6666 24.9999C36.6666 18.5566 31.4432 13.3333 24.9999 13.3333C18.5566 13.3333 13.3333 18.5566 13.3333 24.9999C13.3333 31.4432 18.5566 36.6666 24.9999 36.6666Z" stroke="black" stroke-width="3.33333" stroke-linecap="round" stroke-linejoin="round"/>
</svg>
