<svg width="40" height="40" viewBox="0 0 40 40" fill="none" xmlns="http://www.w3.org/2000/svg">
<path opacity="0.12" d="M20.5963 3.63167C20.3777 3.52235 20.2684 3.46769 20.1537 3.44618C20.0521 3.42712 19.9479 3.42712 19.8464 3.44618C19.7317 3.46769 19.6224 3.52235 19.4038 3.63167L3.33337 11.6669L19.4038 19.702C19.6224 19.8114 19.7317 19.866 19.8464 19.8875C19.9479 19.9066 20.0521 19.9066 20.1537 19.8875C20.2684 19.866 20.3777 19.8114 20.5963 19.702L36.6667 11.6669L20.5963 3.63167Z" fill="black"/>
<path d="M3.33337 19.9999L19.4038 28.0351C19.6224 28.1445 19.7317 28.1991 19.8464 28.2206C19.9479 28.2397 20.0521 28.2397 20.1537 28.2206C20.2684 28.1991 20.3777 28.1445 20.5963 28.0351L36.6667 19.9999M3.33337 28.3333L19.4038 36.3685C19.6224 36.4778 19.7317 36.5324 19.8464 36.554C19.9479 36.573 20.0521 36.573 20.1537 36.554C20.2684 36.5324 20.3777 36.4778 20.5963 36.3685L36.6667 28.3333M3.33337 11.6666L19.4038 3.63142C19.6224 3.5221 19.7317 3.46744 19.8464 3.44593C19.9479 3.42688 20.0521 3.42688 20.1537 3.44593C20.2684 3.46744 20.3777 3.5221 20.5963 3.63142L36.6667 11.6666L20.5963 19.7018C20.3777 19.8111 20.2684 19.8658 20.1537 19.8873C20.0521 19.9063 19.9479 19.9063 19.8464 19.8873C19.7317 19.8658 19.6224 19.8111 19.4038 19.7018L3.33337 11.6666Z" stroke="black" stroke-width="3.33333" stroke-linecap="round" stroke-linejoin="round"/>
</svg>
