<svg width="40" height="40" viewBox="0 0 40 40" fill="none" xmlns="http://www.w3.org/2000/svg">
<path opacity="0.12" d="M20.5963 23.8686C20.3777 23.9779 20.2684 24.0325 20.1537 24.054C20.0521 24.0731 19.9479 24.0731 19.8464 24.054C19.7317 24.0325 19.6224 23.9779 19.4038 23.8686L12.263 20.2982C12.0444 20.1889 11.935 20.1342 11.8204 20.1127C11.7188 20.0936 11.6146 20.0936 11.513 20.1127C11.3984 20.1342 11.2891 20.1889 11.0704 20.2982L3.33337 24.1667L19.4038 32.2019C19.6224 32.3112 19.7317 32.3659 19.8464 32.3874C19.9479 32.4064 20.0521 32.4064 20.1537 32.3874C20.2684 32.3659 20.3777 32.3112 20.5963 32.2019L36.6667 24.1667L28.9297 20.2982C28.711 20.1889 28.6017 20.1342 28.487 20.1127C28.3855 20.0936 28.2813 20.0936 28.1797 20.1127C28.065 20.1342 27.9557 20.1889 27.7371 20.2982L20.5963 23.8686Z" fill="black"/>
<path d="M11.6667 20L3.33337 24.1667L19.4038 32.2019C19.6224 32.3112 19.7317 32.3659 19.8464 32.3874C19.9479 32.4064 20.0521 32.4064 20.1537 32.3874C20.2684 32.3659 20.3777 32.3112 20.5963 32.2019L36.6667 24.1667L28.3334 20M3.33337 15.8334L19.4038 7.79817C19.6224 7.68885 19.7317 7.63419 19.8464 7.61268C19.9479 7.59363 20.0521 7.59363 20.1537 7.61268C20.2684 7.63419 20.3777 7.68885 20.5963 7.79817L36.6667 15.8334L20.5963 23.8686C20.3777 23.9779 20.2684 24.0325 20.1537 24.054C20.0521 24.0731 19.9479 24.0731 19.8464 24.054C19.7317 24.0325 19.6224 23.9779 19.4038 23.8686L3.33337 15.8334Z" stroke="black" stroke-width="3.33333" stroke-linecap="round" stroke-linejoin="round"/>
</svg>
