<svg width="40" height="40" viewBox="0 0 40 40" fill="none" xmlns="http://www.w3.org/2000/svg">
<g opacity="0.12">
<path d="M25.8926 25.8925C24.3846 27.4005 22.3012 28.3333 20 28.3333C17.6989 28.3333 15.6155 27.4005 14.1075 25.8925L8.21497 31.785C14.7237 38.2938 25.2765 38.2938 31.7852 31.785L25.8926 25.8925Z" fill="black"/>
<path d="M14.1075 14.1074C15.6156 12.5993 17.6989 11.6666 20.0001 11.6666C22.3013 11.6666 24.3846 12.5993 25.8927 14.1073L31.7852 8.2148C25.2765 1.70607 14.7237 1.70607 8.21497 8.21481L14.1075 14.1074Z" fill="black"/>
</g>
<path d="M14.1075 14.1074L8.21493 8.21484M8.21493 31.7851L14.1075 25.8925M25.8926 25.8925L31.7852 31.785M31.7852 8.21477L25.8926 14.1073M36.6667 19.9999C36.6667 29.2047 29.2048 36.6666 20 36.6666C10.7953 36.6666 3.33337 29.2047 3.33337 19.9999C3.33337 10.7952 10.7953 3.33325 20 3.33325C29.2048 3.33325 36.6667 10.7952 36.6667 19.9999ZM28.3334 19.9999C28.3334 24.6023 24.6024 28.3333 20 28.3333C15.3977 28.3333 11.6667 24.6023 11.6667 19.9999C11.6667 15.3975 15.3977 11.6666 20 11.6666C24.6024 11.6666 28.3334 15.3975 28.3334 19.9999Z" stroke="black" stroke-width="3.33333" stroke-linecap="round" stroke-linejoin="round"/>
</svg>
