<svg width="40" height="40" viewBox="0 0 40 40" fill="none" xmlns="http://www.w3.org/2000/svg">
<path opacity="0.12" d="M23.7501 3.33325H14.1574C13.8583 3.33325 13.7087 3.33325 13.5767 3.3788C13.4599 3.41907 13.3536 3.48481 13.2653 3.57124C13.1655 3.66897 13.0986 3.80275 12.9649 4.0703L5.96487 18.0703C5.64541 18.7092 5.48567 19.0287 5.52404 19.2884C5.55754 19.5151 5.68297 19.7181 5.87081 19.8495C6.08592 19.9999 6.44309 19.9999 7.15744 19.9999H17.5001L12.5001 36.6666L32.8219 15.5921C33.5075 14.8811 33.8503 14.5256 33.8704 14.2214C33.8878 13.9573 33.7787 13.7007 33.5766 13.53C33.3437 13.3333 32.8498 13.3333 31.8621 13.3333H20.0001L23.7501 3.33325Z" fill="black"/>
<path d="M23.7501 3.33325H14.1574C13.8583 3.33325 13.7087 3.33325 13.5767 3.3788C13.4599 3.41907 13.3536 3.48481 13.2653 3.57124C13.1655 3.66897 13.0986 3.80275 12.9649 4.0703L5.96487 18.0703C5.64541 18.7092 5.48567 19.0287 5.52404 19.2884C5.55754 19.5151 5.68297 19.7181 5.87081 19.8495C6.08592 19.9999 6.44309 19.9999 7.15744 19.9999H17.5001L12.5001 36.6666L32.8219 15.5921C33.5075 14.8811 33.8503 14.5256 33.8704 14.2214C33.8878 13.9573 33.7787 13.7007 33.5766 13.53C33.3437 13.3333 32.8498 13.3333 31.8621 13.3333H20.0001L23.7501 3.33325Z" stroke="black" stroke-width="3.33333" stroke-linecap="round" stroke-linejoin="round"/>
</svg>
