<svg width="40" height="40" viewBox="0 0 40 40" fill="none" xmlns="http://www.w3.org/2000/svg">
<path opacity="0.12" d="M6.66663 24.6667C6.66663 21.8665 6.66663 20.4664 7.21159 19.3968C7.69096 18.456 8.45586 17.6911 9.39667 17.2117C10.4662 16.6667 11.8664 16.6667 14.6666 16.6667H25.3333C28.1336 16.6667 29.5337 16.6667 30.6032 17.2117C31.5441 17.6911 32.309 18.456 32.7883 19.3968C33.3333 20.4664 33.3333 21.8665 33.3333 24.6667V27.0001C33.3333 29.8003 33.3333 31.2005 32.7883 32.27C32.309 33.2108 31.5441 33.9757 30.6032 34.4551C29.5337 35.0001 28.1336 35.0001 25.3333 35.0001H14.6666C11.8664 35.0001 10.4662 35.0001 9.39667 34.4551C8.45586 33.9757 7.69096 33.2108 7.21159 32.27C6.66663 31.2005 6.66663 29.8003 6.66663 27.0001V24.6667Z" fill="black"/>
<path d="M28.3333 16.6667V13.3333C28.3333 8.73096 24.6023 5 20 5C15.3976 5 11.6666 8.73096 11.6666 13.3333V16.6667M20 24.1667V27.5M14.6666 35H25.3333C28.1336 35 29.5337 35 30.6032 34.455C31.5441 33.9757 32.309 33.2108 32.7883 32.27C33.3333 31.2004 33.3333 29.8003 33.3333 27V24.6667C33.3333 21.8664 33.3333 20.4663 32.7883 19.3967C32.309 18.4559 31.5441 17.691 30.6032 17.2116C29.5337 16.6667 28.1336 16.6667 25.3333 16.6667H14.6666C11.8664 16.6667 10.4662 16.6667 9.39667 17.2116C8.45586 17.691 7.69096 18.4559 7.21159 19.3967C6.66663 20.4663 6.66663 21.8664 6.66663 24.6667V27C6.66663 29.8003 6.66663 31.2004 7.21159 32.27C7.69096 33.2108 8.45586 33.9757 9.39667 34.455C10.4662 35 11.8664 35 14.6666 35Z" stroke="black" stroke-width="3.33333" stroke-linecap="round" stroke-linejoin="round"/>
</svg>
