<svg width="24" height="24" viewBox="0 0 24 24" fill="none" xmlns="http://www.w3.org/2000/svg">
<path d="M6 17C6 17.3513 6 17.527 6.01567 17.6797C6.14575 18.9474 7.0626 19.9947 8.30206 20.2911C8.45134 20.3269 8.6255 20.3501 8.97368 20.3965L15.5656 21.2754C17.442 21.5256 18.3803 21.6507 19.1084 21.3612C19.7478 21.107 20.2803 20.6407 20.6168 20.0406C21 19.3571 21 18.4106 21 16.5175V7.48249C21 5.58944 21 4.64292 20.6168 3.9594C20.2803 3.35928 19.7478 2.89305 19.1084 2.63884C18.3803 2.3493 17.442 2.4744 15.5656 2.72459L8.97368 3.60352C8.62546 3.64995 8.45135 3.67316 8.30206 3.70887C7.0626 4.00536 6.14575 5.05258 6.01567 6.32035C6 6.47305 6 6.6487 6 7.00001M12 8.00001L16 12M16 12L12 16M16 12H3" stroke="black" stroke-width="2" stroke-linecap="round" stroke-linejoin="round"/>
</svg>
