<svg width="40" height="40" viewBox="0 0 40 40" fill="none" xmlns="http://www.w3.org/2000/svg">
<path opacity="0.12" d="M17.0934 22.2772L3.33337 13.3331L17.0934 4.3891C18.1455 3.70525 18.6715 3.36332 19.2383 3.23029C19.7393 3.11269 20.2608 3.11269 20.7618 3.23029C21.3285 3.36332 21.8546 3.70525 22.9066 4.3891L36.6667 13.3331L22.9066 22.2772C21.8546 22.961 21.3285 23.3029 20.7618 23.436C20.2608 23.5536 19.7393 23.5536 19.2383 23.436C18.6715 23.3029 18.1455 22.961 17.0934 22.2772Z" fill="black"/>
<path d="M22.9066 4.38934L35.4533 12.5447C35.8967 12.8329 36.1184 12.977 36.279 13.1691C36.4211 13.3393 36.5279 13.5361 36.5931 13.748C36.6667 13.9874 36.6667 14.2518 36.6667 14.7805V27C36.6667 29.8003 36.6667 31.2004 36.1217 32.27C35.6424 33.2108 34.8775 33.9757 33.9367 34.4551C32.8671 35 31.467 35 28.6667 35H11.3334C8.53311 35 7.13298 35 6.06342 34.4551C5.12261 33.9757 4.35771 33.2108 3.87834 32.27C3.33337 31.2004 3.33337 29.8003 3.33337 27V14.7805C3.33337 14.2518 3.33337 13.9874 3.40699 13.748C3.47216 13.5361 3.57895 13.3393 3.72112 13.1691C3.88173 12.977 4.1034 12.8329 4.54674 12.5447L17.0934 4.38934M22.9066 4.38934C21.8546 3.70549 21.3285 3.36357 20.7618 3.23053C20.2608 3.11293 19.7393 3.11293 19.2383 3.23053C18.6715 3.36357 18.1455 3.70549 17.0934 4.38934M22.9066 4.38934L33.2269 11.0975C34.3734 11.8427 34.9466 12.2153 35.1451 12.6878C35.3186 13.1007 35.3186 13.5661 35.1451 13.979C34.9466 14.4515 34.3734 14.8241 33.2269 15.5692L22.9066 22.2774C21.8546 22.9613 21.3285 23.3032 20.7618 23.4362C20.2608 23.5538 19.7393 23.5538 19.2383 23.4362C18.6715 23.3032 18.1455 22.9613 17.0934 22.2774L6.77314 15.5692C5.62673 14.8241 5.05352 14.4515 4.855 13.979C4.6815 13.5661 4.6815 13.1007 4.855 12.6878C5.05352 12.2153 5.62673 11.8427 6.77314 11.0975L17.0934 4.38934M35.8334 31.6667L24.762 21.6667M15.2381 21.6667L4.16671 31.6667" stroke="black" stroke-width="3.33333" stroke-linecap="round" stroke-linejoin="round"/>
</svg>
