<svg width="40" height="40" viewBox="0 0 40 40" fill="none" xmlns="http://www.w3.org/2000/svg">
<path opacity="0.12" d="M23.0585 21.1925C21.9566 21.9639 21.4056 22.3495 20.8063 22.4989C20.2769 22.6309 19.7232 22.6309 19.1938 22.4989C18.5945 22.3495 18.0435 21.9639 16.9416 21.1925L3.33337 11.6667C3.33337 8.90532 5.57195 6.66675 8.33337 6.66675H31.6667C34.4281 6.66675 36.6667 8.90532 36.6667 11.6667L23.0585 21.1925Z" fill="black"/>
<path d="M35.8333 30.0001L24.7619 20.0001M15.2381 20.0001L4.16677 30.0001M3.33337 11.6667L16.9416 21.1925C18.0435 21.9639 18.5945 22.3495 19.1938 22.4989C19.7232 22.6309 20.2769 22.6309 20.8063 22.4989C21.4056 22.3495 21.9566 21.9639 23.0585 21.1925L36.6667 11.6667M11.3334 33.3334H28.6667C31.467 33.3334 32.8671 33.3334 33.9367 32.7884C34.8775 32.3091 35.6424 31.5442 36.1217 30.6034C36.6667 29.5338 36.6667 28.1337 36.6667 25.3334V14.6667C36.6667 11.8665 36.6667 10.4664 36.1217 9.3968C35.6424 8.45599 34.8775 7.69108 33.9367 7.21172C32.8671 6.66675 31.467 6.66675 28.6667 6.66675H11.3334C8.53311 6.66675 7.13298 6.66675 6.06342 7.21172C5.12261 7.69108 4.35771 8.45599 3.87834 9.3968C3.33337 10.4664 3.33337 11.8665 3.33337 14.6667V25.3334C3.33337 28.1337 3.33337 29.5338 3.87834 30.6034C4.35771 31.5442 5.12261 32.3091 6.06342 32.7884C7.13298 33.3334 8.53311 33.3334 11.3334 33.3334Z" stroke="black" stroke-width="3.33333" stroke-linecap="round" stroke-linejoin="round"/>
</svg>
