<svg width="40" height="40" viewBox="0 0 40 40" fill="none" xmlns="http://www.w3.org/2000/svg">
<path opacity="0.12" d="M20 25C22.7614 25 25 22.7614 25 20C25 17.2386 22.7614 15 20 15C17.2386 15 15 17.2386 15 20C15 22.7614 17.2386 25 20 25Z" fill="black"/>
<path d="M33.3334 19.9999C33.3334 27.3637 27.3638 33.3333 20 33.3333M33.3334 19.9999C33.3334 12.6361 27.3638 6.66659 20 6.66659M33.3334 19.9999H36.6667M20 33.3333C12.6362 33.3333 6.66671 27.3637 6.66671 19.9999M20 33.3333V36.6666M6.66671 19.9999C6.66671 12.6361 12.6362 6.66659 20 6.66659M6.66671 19.9999H3.33337M20 6.66659V3.33325M25 19.9999C25 22.7613 22.7615 24.9999 20 24.9999C17.2386 24.9999 15 22.7613 15 19.9999C15 17.2385 17.2386 14.9999 20 14.9999C22.7615 14.9999 25 17.2385 25 19.9999Z" stroke="black" stroke-width="3.33333" stroke-linecap="round" stroke-linejoin="round"/>
</svg>
