<svg width="40" height="40" viewBox="0 0 40 40" fill="none" xmlns="http://www.w3.org/2000/svg">
<path opacity="0.12" d="M20 21.6667C22.7614 21.6667 25 19.4282 25 16.6667C25 13.9053 22.7614 11.6667 20 11.6667C17.2386 11.6667 15 13.9053 15 16.6667C15 19.4282 17.2386 21.6667 20 21.6667Z" fill="black"/>
<path d="M20 21.6666C22.7614 21.6666 25 19.428 25 16.6666C25 13.9052 22.7614 11.6666 20 11.6666C17.2385 11.6666 15 13.9052 15 16.6666C15 19.428 17.2385 21.6666 20 21.6666Z" stroke="black" stroke-width="3.33333" stroke-linecap="round" stroke-linejoin="round"/>
<path d="M20 36.6666C26.6666 29.9999 33.3333 24.0304 33.3333 16.6666C33.3333 9.30279 27.3638 3.33325 20 3.33325C12.6362 3.33325 6.66663 9.30279 6.66663 16.6666C6.66663 24.0304 13.3333 29.9999 20 36.6666Z" stroke="black" stroke-width="3.33333" stroke-linecap="round" stroke-linejoin="round"/>
</svg>
