<svg width="40" height="40" viewBox="0 0 40 40" fill="none" xmlns="http://www.w3.org/2000/svg">
<path opacity="0.12" d="M20 28.3333C22.5 23.3333 30 20.1061 30 13.3333C30 7.8104 25.5228 3.33325 20 3.33325C14.4772 3.33325 10 7.8104 10 13.3333C10 20.1061 17.5 23.3333 20 28.3333Z" fill="black"/>
<path d="M8.33337 23.8105C5.24777 25.1717 3.33337 27.0685 3.33337 29.1666C3.33337 33.3087 10.7953 36.6666 20 36.6666C29.2048 36.6666 36.6667 33.3087 36.6667 29.1666C36.6667 27.0685 34.7523 25.1717 31.6667 23.8105M30 13.3333C30 20.1061 22.5 23.3333 20 28.3333C17.5 23.3333 10 20.1061 10 13.3333C10 7.8104 14.4772 3.33325 20 3.33325C25.5229 3.33325 30 7.8104 30 13.3333ZM21.6667 13.3333C21.6667 14.2537 20.9205 14.9999 20 14.9999C19.0796 14.9999 18.3334 14.2537 18.3334 13.3333C18.3334 12.4128 19.0796 11.6666 20 11.6666C20.9205 11.6666 21.6667 12.4128 21.6667 13.3333Z" stroke="black" stroke-width="3.33333" stroke-linecap="round" stroke-linejoin="round"/>
</svg>
