<svg width="40" height="40" viewBox="0 0 40 40" fill="none" xmlns="http://www.w3.org/2000/svg">
<path opacity="0.12" d="M21.6667 27.4999C21.6667 32.5625 17.6608 36.6666 12.7193 36.6666C11.6986 36.6666 10.7177 36.4915 9.80383 36.1689C9.45697 36.0465 9.28355 35.9853 9.16689 35.962C9.04405 35.9375 8.97757 35.9308 8.85232 35.9299C8.73337 35.9291 8.59715 35.9477 8.32471 35.9849L3.33337 36.6666L4.35228 32.0638C4.41906 31.7621 4.45245 31.6112 4.46017 31.4778C4.46823 31.3385 4.46444 31.261 4.4428 31.1232C4.42208 30.9911 4.35892 30.7978 4.23262 30.4111C3.93383 29.4965 3.77197 28.5176 3.77197 27.4999C3.77197 22.4373 7.77784 18.3333 12.7193 18.3333C17.6608 18.3333 21.6667 22.4373 21.6667 27.4999Z" fill="black"/>
<path d="M10.1573 18.7146C10.0537 18.047 9.99998 17.363 9.99998 16.6666C9.99998 9.30279 16.0088 3.33325 23.421 3.33325C30.8333 3.33325 36.8421 9.30279 36.8421 16.6666C36.8421 18.33 36.5355 19.9223 35.9753 21.3908C35.859 21.6957 35.8008 21.8482 35.7744 21.9673C35.7482 22.0852 35.7381 22.1682 35.7353 22.289C35.7324 22.4109 35.7489 22.5452 35.782 22.8138L36.453 28.2641C36.5256 28.8541 36.5619 29.1491 36.4638 29.3636C36.3778 29.5515 36.225 29.7008 36.0352 29.7824C35.8185 29.8756 35.5244 29.8325 34.9362 29.7463L29.6275 28.9681C29.3503 28.9275 29.2117 28.9072 29.0854 28.9079C28.9606 28.9086 28.8742 28.9178 28.752 28.9435C28.6284 28.9695 28.4706 29.0286 28.155 29.1468C26.6828 29.6982 25.0874 29.9999 23.421 29.9999C22.724 29.9999 22.0395 29.9471 21.3711 29.8454M12.7193 36.6666C17.6608 36.6666 21.6667 32.5625 21.6667 27.4999C21.6667 22.4373 17.6608 18.3333 12.7193 18.3333C7.77784 18.3333 3.77197 22.4373 3.77197 27.4999C3.77197 28.5176 3.93383 29.4965 4.23262 30.4111C4.35892 30.7978 4.42208 30.9911 4.4428 31.1232C4.46444 31.261 4.46823 31.3385 4.46017 31.4778C4.45245 31.6112 4.41906 31.7621 4.35228 32.0638L3.33337 36.6666L8.32471 35.9849C8.59715 35.9477 8.73337 35.9291 8.85232 35.9299C8.97757 35.9308 9.04405 35.9375 9.16689 35.962C9.28355 35.9853 9.45697 36.0465 9.80383 36.1689C10.7177 36.4915 11.6986 36.6666 12.7193 36.6666Z" stroke="black" stroke-width="3.33333" stroke-linecap="round" stroke-linejoin="round"/>
</svg>
