<svg width="40" height="40" viewBox="0 0 40 40" fill="none" xmlns="http://www.w3.org/2000/svg">
<path opacity="0.12" d="M25 34.9999V28.3333H15V34.9999H25Z" fill="black"/>
<path d="M24.9999 28.3333V35H14.9999V28.3333M8.66659 28.3333H31.3333C33.2001 28.3333 34.1335 28.3333 34.8466 27.97C35.4738 27.6504 35.9837 27.1405 36.3033 26.5133C36.6666 25.8003 36.6666 24.8668 36.6666 23V10.3333C36.6666 8.46649 36.6666 7.53307 36.3033 6.82003C35.9837 6.19282 35.4738 5.68289 34.8466 5.36331C34.1335 5 33.2001 5 31.3333 5H8.66659C6.79974 5 5.86632 5 5.15328 5.36331C4.52608 5.68289 4.01614 6.19282 3.69656 6.82003C3.33325 7.53307 3.33325 8.46649 3.33325 10.3333V23C3.33325 24.8668 3.33325 25.8003 3.69656 26.5133C4.01614 27.1405 4.52608 27.6504 5.15328 27.97C5.86632 28.3333 6.79974 28.3333 8.66659 28.3333Z" stroke="black" stroke-width="3.33333" stroke-linecap="round" stroke-linejoin="round"/>
</svg>
