<svg width="40" height="40" viewBox="0 0 40 40" fill="none" xmlns="http://www.w3.org/2000/svg">
<path opacity="0.12" d="M5.6899 17.9072C4.69766 17.5213 4.20154 17.3284 4.05669 17.0504C3.93113 16.8094 3.93096 16.5223 4.05624 16.2812C4.20076 16.003 4.69665 15.8095 5.68844 15.4224L33.8347 4.43855C34.73 4.08916 35.1776 3.91447 35.4637 4.01003C35.7121 4.09301 35.907 4.28796 35.99 4.53638C36.0856 4.82242 35.9109 5.27007 35.5615 6.16537L24.5776 34.3116C24.1906 35.3034 23.9971 35.7993 23.7189 35.9438C23.4777 36.0691 23.1906 36.0689 22.9497 35.9434C22.6716 35.7985 22.4787 35.3024 22.0928 34.3102L17.7127 23.0468C17.6343 22.8454 17.5952 22.7447 17.5347 22.6599C17.4811 22.5847 17.4153 22.519 17.3402 22.4654C17.2554 22.4049 17.1547 22.3657 16.9532 22.2874L5.6899 17.9072Z" fill="black"/>
<path d="M5.6899 17.9072C4.69766 17.5213 4.20154 17.3284 4.05669 17.0504C3.93113 16.8094 3.93096 16.5223 4.05624 16.2812C4.20076 16.003 4.69665 15.8095 5.68844 15.4224L33.8347 4.43855C34.73 4.08916 35.1776 3.91447 35.4637 4.01003C35.7121 4.09301 35.907 4.28796 35.99 4.53638C36.0856 4.82242 35.9109 5.27007 35.5615 6.16537L24.5776 34.3116C24.1906 35.3034 23.9971 35.7993 23.7189 35.9438C23.4777 36.0691 23.1906 36.0689 22.9497 35.9434C22.6716 35.7985 22.4787 35.3024 22.0928 34.3102L17.7127 23.0468C17.6343 22.8454 17.5952 22.7447 17.5347 22.6599C17.4811 22.5847 17.4153 22.519 17.3402 22.4654C17.2554 22.4049 17.1547 22.3657 16.9532 22.2874L5.6899 17.9072Z" stroke="black" stroke-width="3.33333" stroke-linecap="round" stroke-linejoin="round"/>
</svg>
