<svg width="40" height="40" viewBox="0 0 40 40" fill="none" xmlns="http://www.w3.org/2000/svg">
<path opacity="0.12" d="M24.8236 32.6766L33.9478 23.5524C34.6078 22.8924 34.9379 22.5623 35.0615 22.1818C35.1159 22.0144 35.1431 21.8406 35.1431 21.6667H4.57117C4.57117 22.1882 4.65274 22.7097 4.81588 23.2118C5.18683 24.3535 6.17687 25.3435 8.15695 27.3236L13.5099 32.6766C15.49 34.6566 16.48 35.6467 17.6217 36.0176C18.6259 36.3439 19.7076 36.3439 20.7119 36.0176C21.8535 35.6467 22.8435 34.6566 24.8236 32.6766Z" fill="black"/>
<path d="M5.0001 21.6666H33.3334M20.0001 5.83325L17.5001 3.33325M19.1668 4.99992L33.9478 19.781C34.6078 20.441 34.9379 20.771 35.0615 21.1516C35.1703 21.4863 35.1703 21.8469 35.0615 22.1816C34.9379 22.5622 34.6078 22.8922 33.9478 23.5522L24.8236 32.6764C22.8435 34.6565 21.8535 35.6465 20.7119 36.0175C19.7076 36.3438 18.6259 36.3438 17.6217 36.0175C16.48 35.6465 15.49 34.6565 13.5099 32.6764L8.15695 27.3234C6.17687 25.3434 5.18683 24.3533 4.81588 23.2117C4.48959 22.2075 4.48959 21.1257 4.81588 20.1215C5.18683 18.9799 6.17687 17.9898 8.15695 16.0097L19.1668 4.99992Z" stroke="black" stroke-width="3.33333" stroke-linecap="round" stroke-linejoin="round"/>
</svg>
