<svg width="40" height="40" viewBox="0 0 40 40" fill="none" xmlns="http://www.w3.org/2000/svg">
<g opacity="0.12">
<path d="M16.6667 5.92603L26.6667 8.14825V20.0001L16.6667 20.0001V5.92603Z" fill="black"/>
<path d="M5 30.0181C5 32.2915 5 33.4282 5.4689 34.216C5.88004 34.9069 6.527 35.4258 7.29057 35.6773C8.16141 35.9642 9.27104 35.7176 11.4903 35.2244L16.6667 34.0741L16.6667 20.0001L5 20V30.0181Z" fill="black"/>
<path d="M30.8236 30.928L26.6667 31.8518V20.0001L35 20V25.7674C35 27.2636 34.9973 28.0179 34.7295 28.6414C34.4909 29.197 34.1057 29.6772 33.6151 30.0306C33.0589 30.4313 32.3138 30.5969 30.8236 30.928Z" fill="black"/>
</g>
<path d="M26.6667 8.33328L26.6667 31.6666M16.6667 6.66662L16.6667 33.3333M5 19.9999H35M5 9.9819L5 30.018C5 32.2914 5 33.4281 5.4689 34.216C5.88004 34.9068 6.527 35.4258 7.29057 35.6773C8.16141 35.9641 9.27104 35.7175 11.4903 35.2243L30.8236 30.928C32.3138 30.5969 33.0589 30.4313 33.6151 30.0306C34.1057 29.6772 34.4909 29.197 34.7295 28.6414C35 28.0115 35 27.2483 35 25.7217V14.2782C35 12.7516 35 11.9884 34.7295 11.3585C34.4909 10.8029 34.1057 10.3227 33.6151 9.9693C33.0589 9.56861 32.3138 9.40303 30.8236 9.07187L11.4903 4.77557C9.27104 4.2824 8.16141 4.03582 7.29057 4.32264C6.527 4.57413 5.88004 5.0931 5.4689 5.78393C5 6.57181 5 7.70851 5 9.9819Z" stroke="black" stroke-width="3.33333" stroke-linecap="round" stroke-linejoin="round"/>
</svg>
