<svg width="40" height="40" viewBox="0 0 40 40" fill="none" xmlns="http://www.w3.org/2000/svg">
<path opacity="0.12" d="M12.3012 16.4221C13.4612 18.8381 15.0425 21.1025 17.0452 23.1052C19.0478 25.1078 21.3122 26.6891 23.7282 27.8491C23.9361 27.9489 24.04 27.9988 24.1715 28.0371C24.6387 28.1733 25.2125 28.0755 25.6082 27.7921C25.7195 27.7124 25.8148 27.6171 26.0053 27.4266C26.588 26.8439 26.8793 26.5526 27.1723 26.3621C28.2771 25.6438 29.7014 25.6438 30.8062 26.3621C31.0992 26.5526 31.3905 26.8439 31.9732 27.4266L32.298 27.7514C33.1837 28.6371 33.6266 29.08 33.8672 29.5556C34.3456 30.5016 34.3456 31.6187 33.8672 32.5646C33.6266 33.0402 33.1837 33.4831 32.298 34.3688L32.0353 34.6316C31.1526 35.5143 30.7112 35.9556 30.1112 36.2927C29.4453 36.6667 28.4112 36.9357 27.6475 36.9334C26.9592 36.9314 26.4888 36.7978 25.5481 36.5308C20.4924 35.0959 15.7218 32.3884 11.7419 28.4085C7.76191 24.4285 5.05445 19.6579 3.6195 14.6022C3.35249 13.6615 3.21898 13.1911 3.21693 12.5029C3.21466 11.7392 3.4836 10.705 3.85763 10.0392C4.19471 9.43912 4.63606 8.99776 5.51877 8.11506L5.78149 7.85233C6.66723 6.9666 7.1101 6.52373 7.58573 6.28315C8.53167 5.8047 9.64878 5.8047 10.5947 6.28315C11.0703 6.52373 11.5132 6.9666 12.399 7.85233L12.7237 8.17712C13.3064 8.75979 13.5978 9.05113 13.7882 9.3441C14.5066 10.4489 14.5066 11.8732 13.7882 12.978C13.5978 13.271 13.3064 13.5623 12.7237 14.145C12.5332 14.3355 12.438 14.4308 12.3582 14.5421C12.0749 14.9379 11.977 15.5116 12.1132 15.9789C12.1516 16.1104 12.2015 16.2143 12.3012 16.4221Z" fill="black"/>
<path d="M23.4169 9.99992C25.0448 10.3175 26.5409 11.1137 27.7136 12.2865C28.8864 13.4593 29.6826 14.9554 30.0002 16.5833M23.4169 3.33325C26.799 3.70898 29.9529 5.22354 32.3606 7.62826C34.7684 10.033 36.2869 13.1849 36.6669 16.5666M17.0452 23.105C15.0425 21.1024 13.4612 18.838 12.3012 16.422C12.2015 16.2142 12.1516 16.1102 12.1132 15.9788C11.977 15.5115 12.0749 14.9377 12.3582 14.542C12.438 14.4307 12.5332 14.3354 12.7237 14.1449C13.3064 13.5622 13.5978 13.2709 13.7882 12.9779C14.5066 11.8731 14.5066 10.4488 13.7882 9.34397C13.5978 9.05101 13.3064 8.75967 12.7237 8.17699L12.399 7.85221C11.5132 6.96647 11.0703 6.5236 10.5947 6.28303C9.64878 5.80458 8.53167 5.80458 7.58573 6.28303C7.1101 6.5236 6.66723 6.96647 5.78149 7.85221L5.51877 8.11494C4.63606 8.99764 4.19471 9.43899 3.85763 10.039C3.4836 10.7049 3.21466 11.739 3.21693 12.5027C3.21898 13.191 3.35249 13.6614 3.6195 14.6021C5.05445 19.6578 7.76191 24.4284 11.7419 28.4083C15.7218 32.3883 20.4924 35.0958 25.5481 36.5307C26.4888 36.7977 26.9592 36.9312 27.6475 36.9333C28.4112 36.9355 29.4453 36.6666 30.1112 36.2926C30.7112 35.9555 31.1526 35.5141 32.0353 34.6314L32.298 34.3687C33.1837 33.483 33.6266 33.0401 33.8672 32.5645C34.3456 31.6185 34.3456 30.5014 33.8672 29.5555C33.6266 29.0799 33.1837 28.637 32.298 27.7513L31.9732 27.4265C31.3905 26.8438 31.0992 26.5525 30.8062 26.362C29.7014 25.6437 28.2771 25.6437 27.1723 26.362C26.8793 26.5525 26.588 26.8438 26.0053 27.4265C25.8148 27.617 25.7195 27.7123 25.6082 27.792C25.2125 28.0753 24.6387 28.1732 24.1714 28.037C24.04 27.9986 23.9361 27.9488 23.7282 27.849C21.3122 26.689 19.0478 25.1077 17.0452 23.105Z" stroke="black" stroke-width="3.33333" stroke-linecap="round" stroke-linejoin="round"/>
</svg>
