<svg width="40" height="40" viewBox="0 0 40 40" fill="none" xmlns="http://www.w3.org/2000/svg">
<path opacity="0.12" d="M20 3.33325C22.1887 3.33325 24.356 3.76435 26.3781 4.60193C28.4002 5.43951 30.2375 6.66717 31.7851 8.21481C33.3328 9.76245 34.5604 11.5998 35.398 13.6219C36.2356 15.644 36.6667 17.8112 36.6667 19.9999L20 19.9999L20 3.33325Z" fill="black"/>
<path d="M20 3.33325C22.1887 3.33325 24.356 3.76435 26.3781 4.60193C28.4002 5.43951 30.2375 6.66717 31.7852 8.21481C33.3328 9.76245 34.5605 11.5998 35.398 13.6219C36.2356 15.644 36.6667 17.8112 36.6667 19.9999M20 3.33325V19.9999M20 3.33325C10.7953 3.33325 3.33337 10.7952 3.33337 19.9999C3.33337 29.2047 10.7953 36.6666 20 36.6666C29.2048 36.6666 36.6667 29.2047 36.6667 19.9999M20 3.33325C29.2048 3.33325 36.6667 10.7952 36.6667 19.9999M36.6667 19.9999L20 19.9999M36.6667 19.9999C36.6667 22.6301 36.0442 25.2229 34.8502 27.5664C33.6561 29.9099 31.9243 31.9376 29.7965 33.4835L20 19.9999" stroke="black" stroke-width="3.33333" stroke-linecap="round" stroke-linejoin="round"/>
</svg>
