<svg width="40" height="40" viewBox="0 0 40 40" fill="none" xmlns="http://www.w3.org/2000/svg">
<path opacity="0.12" d="M15.8334 14.9424C15.8334 14.1469 15.8334 13.7492 15.9996 13.5271C16.1445 13.3336 16.3662 13.2126 16.6073 13.1953C16.884 13.1756 17.2186 13.3907 17.8877 13.8208L25.7554 18.8786C26.336 19.2519 26.6263 19.4385 26.7266 19.6758C26.8142 19.8832 26.8142 20.1172 26.7266 20.3245C26.6263 20.5618 26.336 20.7485 25.7554 21.1217L17.8877 26.1795C17.2186 26.6097 16.884 26.8248 16.6073 26.805C16.3662 26.7878 16.1445 26.6667 15.9996 26.4732C15.8334 26.2512 15.8334 25.8534 15.8334 25.0579V14.9424Z" fill="black"/>
<path d="M20 36.6666C29.2048 36.6666 36.6667 29.2047 36.6667 19.9999C36.6667 10.7952 29.2048 3.33325 20 3.33325C10.7953 3.33325 3.33337 10.7952 3.33337 19.9999C3.33337 29.2047 10.7953 36.6666 20 36.6666Z" stroke="black" stroke-width="3.33333" stroke-linecap="round" stroke-linejoin="round"/>
<path d="M15.8334 14.9421C15.8334 14.1467 15.8334 13.7489 15.9996 13.5269C16.1445 13.3334 16.3662 13.2123 16.6073 13.1951C16.884 13.1753 17.2186 13.3904 17.8877 13.8206L25.7554 18.8783C26.336 19.2516 26.6263 19.4383 26.7266 19.6756C26.8142 19.8829 26.8142 20.1169 26.7266 20.3243C26.6263 20.5616 26.336 20.7482 25.7554 21.1215L17.8877 26.1793C17.2186 26.6094 16.884 26.8245 16.6073 26.8047C16.3662 26.7875 16.1445 26.6665 15.9996 26.473C15.8334 26.2509 15.8334 25.8532 15.8334 25.0577V14.9421Z" stroke="black" stroke-width="3.33333" stroke-linecap="round" stroke-linejoin="round"/>
</svg>
