<svg width="40" height="40" viewBox="0 0 40 40" fill="none" xmlns="http://www.w3.org/2000/svg">
<path opacity="0.12" d="M3.33337 19.6667C3.33337 16.8665 3.33337 15.4664 3.87834 14.3968C4.35771 13.456 5.12261 12.6911 6.06342 12.2117C7.13298 11.6667 8.53311 11.6667 11.3334 11.6667H28.6667C31.467 11.6667 32.8671 11.6667 33.9367 12.2117C34.8775 12.6911 35.6424 13.456 36.1217 14.3968C36.6667 15.4664 36.6667 16.8665 36.6667 19.6667V23.3334C36.6667 24.8834 36.6667 25.6583 36.4963 26.2942C36.034 28.0196 34.6863 29.3674 32.9608 29.8297C32.325 30.0001 31.55 30.0001 30 30.0001V28.6667C30 26.7999 30 25.8665 29.6367 25.1534C29.3172 24.5262 28.8072 24.0163 28.18 23.6967C27.467 23.3334 26.5336 23.3334 24.6667 23.3334H15.3334C13.4665 23.3334 12.5331 23.3334 11.8201 23.6967C11.1929 24.0163 10.6829 24.5262 10.3634 25.1534C10 25.8665 10 26.7999 10 28.6667V30.0001C8.45009 30.0001 7.67511 30.0001 7.03928 29.8297C5.31382 29.3674 3.96608 28.0196 3.50374 26.2942C3.33337 25.6583 3.33337 24.8834 3.33337 23.3334V19.6667Z" fill="black"/>
<path d="M30 11.6666V8.66659C30 6.79974 30 5.86632 29.6367 5.15328C29.3172 4.52608 28.8072 4.01614 28.18 3.69656C27.467 3.33325 26.5336 3.33325 24.6667 3.33325H15.3334C13.4665 3.33325 12.5331 3.33325 11.8201 3.69656C11.1929 4.01614 10.6829 4.52608 10.3634 5.15328C10 5.86632 10 6.79974 10 8.66659V11.6666M10 29.9999C8.45009 29.9999 7.67511 29.9999 7.03928 29.8295C5.31382 29.3672 3.96608 28.0195 3.50374 26.294C3.33337 25.6582 3.33337 24.8832 3.33337 23.3333V19.6666C3.33337 16.8663 3.33337 15.4662 3.87834 14.3966C4.35771 13.4558 5.12261 12.6909 6.06342 12.2116C7.13298 11.6666 8.53311 11.6666 11.3334 11.6666H28.6667C31.467 11.6666 32.8671 11.6666 33.9367 12.2116C34.8775 12.6909 35.6424 13.4558 36.1217 14.3966C36.6667 15.4662 36.6667 16.8663 36.6667 19.6666V23.3333C36.6667 24.8832 36.6667 25.6582 36.4963 26.294C36.034 28.0195 34.6863 29.3672 32.9608 29.8295C32.325 29.9999 31.55 29.9999 30 29.9999M25 17.4999H30M15.3334 36.6666H24.6667C26.5336 36.6666 27.467 36.6666 28.18 36.3033C28.8072 35.9837 29.3172 35.4738 29.6367 34.8466C30 34.1335 30 33.2001 30 31.3333V28.6666C30 26.7997 30 25.8663 29.6367 25.1533C29.3172 24.5261 28.8072 24.0161 28.18 23.6966C27.467 23.3333 26.5336 23.3333 24.6667 23.3333H15.3334C13.4665 23.3333 12.5331 23.3333 11.8201 23.6966C11.1929 24.0161 10.6829 24.5261 10.3634 25.1533C10 25.8663 10 26.7997 10 28.6666V31.3333C10 33.2001 10 34.1335 10.3634 34.8466C10.6829 35.4738 11.1929 35.9837 11.8201 36.3033C12.5331 36.6666 13.4665 36.6666 15.3334 36.6666Z" stroke="black" stroke-width="3.33333" stroke-linecap="round" stroke-linejoin="round"/>
</svg>
