<svg width="40" height="40" viewBox="0 0 40 40" fill="none" xmlns="http://www.w3.org/2000/svg">
<g opacity="0.12">
<path d="M3.33337 25.6256C3.33337 26.4954 3.33337 26.9302 3.51246 27.1572C3.66827 27.3547 3.90496 27.4713 4.1565 27.4744C4.44562 27.4779 4.7903 27.2128 5.47966 26.6825L12.7928 21.057C13.2603 20.6974 13.4941 20.5176 13.5781 20.2984C13.6517 20.1064 13.6517 19.8939 13.5781 19.7019C13.4941 19.4827 13.2603 19.3029 12.7928 18.9433L5.47966 13.3178C4.7903 12.7875 4.44562 12.5224 4.1565 12.5259C3.90496 12.529 3.66827 12.6455 3.51246 12.843C3.33337 13.07 3.33337 13.5049 3.33337 14.3746V25.6256Z" fill="black"/>
<path d="M36.6667 25.6256C36.6667 26.4954 36.6667 26.9302 36.4876 27.1572C36.3318 27.3547 36.0951 27.4713 35.8436 27.4744C35.5545 27.4779 35.2098 27.2128 34.5204 26.6825L27.2073 21.057C26.7398 20.6974 26.506 20.5176 26.422 20.2984C26.3484 20.1064 26.3484 19.8939 26.422 19.7019C26.506 19.4827 26.7398 19.3029 27.2073 18.9433L34.5204 13.3178C35.2098 12.7875 35.5545 12.5224 35.8436 12.5259C36.0951 12.529 36.3318 12.6455 36.4876 12.843C36.6667 13.07 36.6667 13.5049 36.6667 14.3746V25.6256Z" fill="black"/>
</g>
<path d="M20 5V10M20 17.5V22.5M20 30V35M5.47966 13.3177L12.7928 18.9432C13.2603 19.3028 13.4941 19.4826 13.5781 19.7017C13.6517 19.8938 13.6517 20.1062 13.5781 20.2983C13.4941 20.5174 13.2603 20.6972 12.7928 21.0568L5.47965 26.6823C4.7903 27.2126 4.44562 27.4778 4.1565 27.4742C3.90496 27.4711 3.66827 27.3546 3.51246 27.1571C3.33337 26.9301 3.33337 26.4952 3.33337 25.6255V14.3745C3.33337 13.5048 3.33337 13.0699 3.51246 12.8429C3.66827 12.6454 3.90496 12.5289 4.1565 12.5258C4.44562 12.5222 4.7903 12.7874 5.47966 13.3177ZM34.5204 13.3177L27.2073 18.9432C26.7398 19.3028 26.506 19.4826 26.422 19.7017C26.3484 19.8938 26.3484 20.1062 26.422 20.2983C26.506 20.5174 26.7398 20.6972 27.2073 21.0568L34.5204 26.6823C35.2098 27.2126 35.5545 27.4778 35.8436 27.4742C36.0951 27.4711 36.3318 27.3546 36.4876 27.1571C36.6667 26.9301 36.6667 26.4952 36.6667 25.6255V14.3745C36.6667 13.5048 36.6667 13.0699 36.4876 12.8429C36.3318 12.6454 36.0951 12.5289 35.8436 12.5258C35.5545 12.5222 35.2098 12.7874 34.5204 13.3177Z" stroke="black" stroke-width="3.33333" stroke-linecap="round" stroke-linejoin="round"/>
</svg>
