<svg width="40" height="40" viewBox="0 0 40 40" fill="none" xmlns="http://www.w3.org/2000/svg">
<path opacity="0.12" d="M20 25.0001L15 20.0001C15.8869 17.6991 17.0037 15.4935 18.3333 13.4168C20.2753 10.3117 22.9794 7.75517 26.1883 5.99024C29.3973 4.22531 33.0044 3.31071 36.6667 3.33342C36.6667 7.86675 35.3667 15.8334 26.6667 21.6668C24.5615 22.998 22.3281 24.1147 20 25.0001Z" fill="black"/>
<path d="M20 25.0001L15 20.0001M20 25.0001C22.328 24.1147 24.5614 22.998 26.6666 21.6668M20 25.0001V33.3334C20 33.3334 25.05 32.4168 26.6666 30.0001C28.4666 27.3001 26.6666 21.6668 26.6666 21.6668M15 20.0001C15.8869 17.6991 17.0036 15.4935 18.3333 13.4168C20.2753 10.3117 22.9793 7.75517 26.1883 5.99024C29.3973 4.22531 33.0044 3.31071 36.6666 3.33342C36.6666 7.86675 35.3666 15.8334 26.6666 21.6668M15 20.0001H6.66663C6.66663 20.0001 7.58329 14.9501 9.99996 13.3334C12.7 11.5334 18.3333 13.3334 18.3333 13.3334M7.49996 27.5001C4.99996 29.6001 4.16663 35.8334 4.16663 35.8334C4.16663 35.8334 10.4 35.0001 12.5 32.5001C13.6833 31.1001 13.6666 28.9501 12.35 27.6501C11.7021 27.0318 10.8488 26.6745 9.95367 26.6468C9.05856 26.6191 8.18475 26.923 7.49996 27.5001Z" stroke="black" stroke-width="3.33333" stroke-linecap="round" stroke-linejoin="round"/>
</svg>
