<svg width="40" height="40" viewBox="0 0 40 40" fill="none" xmlns="http://www.w3.org/2000/svg">
<path opacity="0.12" d="M15.8575 4.85895C14.8346 5.73068 13.5627 6.2575 12.223 6.36441C9.09662 6.6139 6.61402 9.09649 6.36453 12.2229C6.25762 13.5626 5.7308 14.8344 4.85907 15.8574C2.82481 18.2445 2.82481 21.7554 4.85907 24.1425C5.7308 25.1654 6.25762 26.4373 6.36453 27.777C6.61402 30.9033 9.09662 33.3859 12.223 33.6354C13.5627 33.7423 14.8346 34.2692 15.8575 35.1409C18.2446 37.1752 21.7555 37.1752 24.1426 35.1409C25.1655 34.2692 26.4374 33.7423 27.7771 33.6354C30.9035 33.3859 33.3861 30.9033 33.6356 27.777C33.7425 26.4373 34.2693 25.1654 35.141 24.1425C37.1753 21.7554 37.1753 18.2445 35.141 15.8574C34.2693 14.8344 33.7425 13.5626 33.6356 12.2229C33.3861 9.09649 30.9035 6.6139 27.7771 6.36441C26.4374 6.2575 25.1655 5.73068 24.1426 4.85895C21.7555 2.82469 18.2446 2.82469 15.8575 4.85895Z" fill="black"/>
<path d="M15 14.9999H15.0167M25 24.9999H25.0167M26.6667 13.3333L13.3334 26.6666M12.223 6.36441C13.5627 6.2575 14.8346 5.73068 15.8575 4.85895C18.2446 2.82469 21.7555 2.82469 24.1426 4.85895C25.1655 5.73068 26.4374 6.2575 27.7771 6.36441C30.9035 6.6139 33.3861 9.09649 33.6356 12.2229C33.7425 13.5626 34.2693 14.8344 35.141 15.8574C37.1753 18.2445 37.1753 21.7554 35.141 24.1425C34.2693 25.1654 33.7425 26.4372 33.6356 27.777C33.3861 30.9033 30.9035 33.3859 27.7771 33.6354C26.4374 33.7423 25.1655 34.2692 24.1426 35.1409C21.7555 37.1752 18.2446 37.1752 15.8575 35.1409C14.8346 34.2692 13.5627 33.7423 12.223 33.6354C9.09662 33.3859 6.61402 30.9033 6.36453 27.777C6.25762 26.4372 5.7308 25.1654 4.85907 24.1425C2.82481 21.7554 2.82481 18.2445 4.85907 15.8574C5.7308 14.8344 6.25762 13.5626 6.36453 12.2229C6.61402 9.09649 9.09662 6.6139 12.223 6.36441ZM15.8334 14.9999C15.8334 15.4602 15.4603 15.8333 15 15.8333C14.5398 15.8333 14.1667 15.4602 14.1667 14.9999C14.1667 14.5397 14.5398 14.1666 15 14.1666C15.4603 14.1666 15.8334 14.5397 15.8334 14.9999ZM25.8334 24.9999C25.8334 25.4602 25.4603 25.8333 25 25.8333C24.5398 25.8333 24.1667 25.4602 24.1667 24.9999C24.1667 24.5397 24.5398 24.1666 25 24.1666C25.4603 24.1666 25.8334 24.5397 25.8334 24.9999Z" stroke="black" stroke-width="3.33333" stroke-linecap="round" stroke-linejoin="round"/>
</svg>
