<svg width="40" height="40" viewBox="0 0 40 40" fill="none" xmlns="http://www.w3.org/2000/svg">
<path opacity="0.12" d="M3.33337 28C3.33337 25.1997 3.33337 23.7996 3.87834 22.73C4.35771 21.7892 5.12261 21.0243 6.06342 20.545C7.13298 20 8.53311 20 11.3334 20H12C14.8003 20 16.2004 20 17.27 20.545C18.2108 21.0243 18.9757 21.7892 19.4551 22.73C20 23.7996 20 25.1997 20 28V28.6667C20 31.4669 20 32.8671 19.4551 33.9366C18.9757 34.8774 18.2108 35.6423 17.27 36.1217C16.2004 36.6667 14.8003 36.6667 12 36.6667H11.3334C8.53311 36.6667 7.13298 36.6667 6.06342 36.1217C5.12261 35.6423 4.35771 34.8774 3.87834 33.9366C3.33337 32.8671 3.33337 31.4669 3.33337 28.6667V28Z" fill="black"/>
<path d="M23.3334 36.6666H11.3334M11.3334 36.6666C8.53311 36.6666 7.13298 36.6666 6.06342 36.1216C5.12261 35.6423 4.35771 34.8774 3.87834 33.9365C3.33337 32.867 3.33337 31.4668 3.33337 28.6666M11.3334 36.6666H12C14.8003 36.6666 16.2004 36.6666 17.27 36.1216C18.2108 35.6423 18.9757 34.8773 19.4551 33.9365C20 32.867 20 31.4668 20 28.6666V27.9999C20 25.1997 20 23.7995 19.4551 22.73C18.9757 21.7892 18.2108 21.0243 17.27 20.5449C16.2004 19.9999 14.8003 19.9999 12 19.9999H11.3334C8.53311 19.9999 7.13298 19.9999 6.06342 20.5449C5.12261 21.0243 4.35771 21.7892 3.87834 22.73C3.33337 23.7995 3.33337 25.1997 3.33337 27.9999V28.6666M3.33337 28.6666V16.6666M16.6667 3.33325H23.3334M36.6667 16.6666V23.3333M30 36.6666C31.55 36.6666 32.325 36.6666 32.9608 36.4962C34.6863 36.0339 36.034 34.6861 36.4963 32.9607C36.6667 32.3248 36.6667 31.5499 36.6667 29.9999M36.6667 9.99992C36.6667 8.44997 36.6667 7.67499 36.4963 7.03916C36.034 5.3137 34.6863 3.96596 32.9608 3.50362C32.325 3.33325 31.55 3.33325 30 3.33325M10 3.33325C8.45009 3.33325 7.67511 3.33325 7.03928 3.50362C5.31382 3.96596 3.96608 5.3137 3.50374 7.03916C3.33337 7.67499 3.33337 8.44997 3.33337 9.99992" stroke="black" stroke-width="3.33333" stroke-linecap="round" stroke-linejoin="round"/>
</svg>
