<svg width="40" height="40" viewBox="0 0 40 40" fill="none" xmlns="http://www.w3.org/2000/svg">
<path opacity="0.12" d="M32.1698 7.83026C33.4644 6.53566 34.1117 5.88835 34.4729 5.90031C34.7837 5.91059 35.0628 6.09298 35.197 6.37341C35.3531 6.69943 35.0203 7.55222 34.3547 9.25779L24.5776 34.3116C24.1906 35.3034 23.997 35.7993 23.7189 35.9438C23.4777 36.0691 23.1906 36.0689 22.9496 35.9434C22.6716 35.7985 22.4787 35.3024 22.0928 34.3102L17.5 22.5001L32.1698 7.83026Z" fill="black"/>
<path d="M17.5 22.5L35 5.00004M17.7127 23.0468L22.0928 34.3102C22.4787 35.3024 22.6716 35.7985 22.9497 35.9434C23.1906 36.0689 23.4777 36.0691 23.7189 35.9438C23.9971 35.7993 24.1906 35.3034 24.5776 34.3116L35.5615 6.16537C35.9109 5.27007 36.0856 4.82242 35.99 4.53638C35.907 4.28796 35.7121 4.09301 35.4637 4.01003C35.1776 3.91447 34.73 4.08916 33.8347 4.43855L5.68844 15.4224C4.69665 15.8095 4.20076 16.003 4.05624 16.2812C3.93096 16.5223 3.93113 16.8094 4.05669 17.0504C4.20154 17.3284 4.69766 17.5213 5.6899 17.9072L16.9532 22.2874C17.1547 22.3657 17.2554 22.4049 17.3402 22.4654C17.4153 22.519 17.4811 22.5847 17.5347 22.6599C17.5952 22.7447 17.6343 22.8454 17.7127 23.0468Z" stroke="black" stroke-width="3.33333" stroke-linecap="round" stroke-linejoin="round"/>
</svg>
