<svg width="40" height="40" viewBox="0 0 40 40" fill="none" xmlns="http://www.w3.org/2000/svg">
<path opacity="0.12" d="M12.467 5H27.5325C30.1632 5 31.4786 5 32.5102 5.49903C33.4184 5.93839 34.1724 6.64222 34.6732 7.51804C35.242 8.5128 35.3325 9.82506 35.5135 12.4496L36.6105 28.3556C36.2157 25.5178 33.7795 23.3333 30.8331 23.3333H9.16643C6.22001 23.3333 3.7838 25.5178 3.38904 28.3556L4.486 12.4496C4.667 9.82506 4.7575 8.5128 5.32632 7.51804C5.82713 6.64222 6.58117 5.93839 7.48937 5.49903C8.52091 5 9.83629 5 12.467 5Z" fill="black"/>
<path d="M36.6667 29.1667L35.5138 12.4496C35.3328 9.82506 35.2423 8.5128 34.6735 7.51804C34.1727 6.64222 33.4186 5.93839 32.5104 5.49903C31.4789 5 30.1635 5 27.5328 5H12.4673C9.83656 5 8.52118 5 7.48964 5.49903C6.58145 5.93839 5.82741 6.64222 5.3266 7.51804C4.75778 8.5128 4.66728 9.82506 4.48628 12.4496L3.33337 29.1667M36.6667 29.1667C36.6667 32.3883 34.055 35 30.8334 35H9.16671C5.94505 35 3.33337 32.3883 3.33337 29.1667M36.6667 29.1667C36.6667 25.945 34.055 23.3333 30.8334 23.3333H9.16671C5.94505 23.3333 3.33337 25.945 3.33337 29.1667M10 29.1667H10.0167M20 29.1667H30" stroke="black" stroke-width="3.33333" stroke-linecap="round" stroke-linejoin="round"/>
</svg>
