<svg width="40" height="40" viewBox="0 0 40 40" fill="none" xmlns="http://www.w3.org/2000/svg">
<path opacity="0.12" fill-rule="evenodd" clip-rule="evenodd" d="M31.0394 26.0008C30.9503 25.5093 31.0105 25.0024 31.2122 24.5454C31.4042 24.0972 31.7231 23.715 32.1296 23.4458C32.5361 23.1766 33.0125 23.0322 33.5 23.0302H33.6364C34.4401 23.0302 35.2109 22.711 35.7792 22.1427C36.3474 21.5744 36.6667 20.8036 36.6667 19.9999C36.6667 19.1962 36.3474 18.4255 35.7792 17.8572C35.2109 17.2889 34.4401 16.9696 33.6364 16.9696H33.3788C32.8913 16.9677 32.4149 16.8232 32.0084 16.554C31.6019 16.2848 31.283 15.9026 31.091 15.4545V15.3333C30.8893 14.8763 30.8291 14.3693 30.9182 13.8778C31.0073 13.3863 31.2417 12.9328 31.591 12.5757L31.6819 12.4848C31.9636 12.2033 32.1871 11.8691 32.3396 11.5013C32.4921 11.1334 32.5706 10.7391 32.5706 10.3408C32.5706 9.9426 32.4921 9.54828 32.3396 9.1804C32.1871 8.81253 31.9636 8.47832 31.6819 8.19689C31.4004 7.91514 31.0662 7.69163 30.6983 7.53913C30.3305 7.38663 29.9362 7.30814 29.5379 7.30814C29.1397 7.30814 28.7454 7.38663 28.3775 7.53913C28.0096 7.69163 27.6754 7.91514 27.394 8.19689L27.3031 8.2878C26.946 8.6371 26.4924 8.87141 26.0009 8.96053C25.5094 9.04965 25.0025 8.98949 24.5455 8.7878C24.0974 8.59573 23.7152 8.27682 23.446 7.87032C23.1768 7.46382 23.0323 6.98747 23.0303 6.49992V6.36356C23.0303 5.55987 22.7111 4.7891 22.1428 4.22081C21.5745 3.65252 20.8037 3.33325 20 3.33325C19.1964 3.33325 18.4256 3.65252 17.8573 4.22081C17.289 4.7891 16.9697 5.55987 16.9697 6.36356V6.62113C16.9678 7.10869 16.8233 7.58503 16.5541 7.99153C16.2849 8.39803 15.9027 8.71694 15.4546 8.90901H15.3334C14.8764 9.1107 14.3694 9.17086 13.8779 9.08174C13.3864 8.99262 12.9329 8.75831 12.5758 8.40901L12.4849 8.3181C12.2035 8.03635 11.8692 7.81284 11.5014 7.66034C11.1335 7.50785 10.7392 7.42935 10.341 7.42935C9.94272 7.42935 9.5484 7.50785 9.18053 7.66034C8.81265 7.81284 8.47844 8.03635 8.19701 8.3181C7.91526 8.59953 7.69175 8.93374 7.53925 9.30162C7.38676 9.66949 7.30826 10.0638 7.30826 10.462C7.30826 10.8603 7.38676 11.2546 7.53925 11.6225C7.69175 11.9903 7.91526 12.3245 8.19701 12.606L8.28792 12.6969C8.63722 13.054 8.87153 13.5075 8.96065 13.999C9.04977 14.4905 8.98961 14.9975 8.78792 15.4545C8.61476 15.9253 8.30397 16.3331 7.89595 16.6249C7.48793 16.9168 7.00155 17.0791 6.50004 17.0908H6.36368C5.55999 17.0908 4.78922 17.4101 4.22093 17.9784C3.65264 18.5467 3.33337 19.3174 3.33337 20.1211C3.33337 20.9248 3.65264 21.6956 4.22093 22.2639C4.78922 22.8322 5.55999 23.1514 6.36368 23.1514H6.62125C7.10881 23.1534 7.58515 23.2978 7.99166 23.5671C8.39816 23.8363 8.71707 24.2185 8.90913 24.6666C9.11082 25.1236 9.17099 25.6305 9.08187 26.122C8.99275 26.6135 8.75843 27.0671 8.40913 27.4242L8.31822 27.5151C8.03648 27.7965 7.81296 28.1307 7.66047 28.4986C7.50797 28.8665 7.42948 29.2608 7.42948 29.659C7.42948 30.0572 7.50797 30.4516 7.66047 30.8194C7.81296 31.1873 8.03648 31.5215 8.31822 31.803C8.59966 32.0847 8.93386 32.3082 9.30174 32.4607C9.66961 32.6132 10.0639 32.6917 10.4622 32.6917C10.8604 32.6917 11.2547 32.6132 11.6226 32.4607C11.9905 32.3082 12.3247 32.0847 12.6061 31.803L12.697 31.712C13.0541 31.3627 13.5076 31.1284 13.9991 31.0393C14.4907 30.9502 14.9976 31.0104 15.4546 31.212C15.9254 31.3852 16.3332 31.696 16.6251 32.104C16.9169 32.512 17.0792 32.9984 17.091 33.4999V33.6363C17.091 34.44 17.4102 35.2107 17.9785 35.779C18.5468 36.3473 19.3176 36.6666 20.1213 36.6666C20.9249 36.6666 21.6957 36.3473 22.264 35.779C22.8323 35.2107 23.1516 34.44 23.1516 33.6363V33.3787C23.1535 32.8912 23.298 32.4148 23.5672 32.0083C23.8364 31.6018 24.2186 31.2829 24.6667 31.0908C25.1237 30.8891 25.6306 30.829 26.1221 30.9181C26.6137 31.0072 27.0672 31.2415 27.4243 31.5908L27.5152 31.6817C27.7966 31.9635 28.1308 32.187 28.4987 32.3395C28.8666 32.492 29.2609 32.5705 29.6591 32.5705C30.0574 32.5705 30.4517 32.492 30.8196 32.3395C31.1874 32.187 31.5216 31.9635 31.8031 31.6817C32.0848 31.4003 32.3083 31.0661 32.4608 30.6982C32.6133 30.3304 32.6918 29.936 32.6918 29.5378C32.6918 29.1396 32.6133 28.7452 32.4608 28.3774C32.3083 28.0095 32.0848 27.6753 31.8031 27.3939L31.7122 27.303C31.3629 26.9459 31.1286 26.4923 31.0394 26.0008ZM25 19.9999C25 22.7613 22.7615 24.9999 20 24.9999C17.2386 24.9999 15 22.7613 15 19.9999C15 17.2385 17.2386 14.9999 20 14.9999C22.7615 14.9999 25 17.2385 25 19.9999Z" fill="black"/>
<path d="M20 24.9999C22.7615 24.9999 25 22.7613 25 19.9999C25 17.2385 22.7615 14.9999 20 14.9999C17.2386 14.9999 15 17.2385 15 19.9999C15 22.7613 17.2386 24.9999 20 24.9999Z" stroke="black" stroke-width="3.33333" stroke-linecap="round" stroke-linejoin="round"/>
<path d="M31.2122 24.5454C31.0105 25.0024 30.9503 25.5093 31.0394 26.0008C31.1285 26.4923 31.3629 26.9459 31.7122 27.303L31.8031 27.3939C32.0848 27.6753 32.3083 28.0095 32.4608 28.3774C32.6133 28.7452 32.6918 29.1396 32.6918 29.5378C32.6918 29.936 32.6133 30.3304 32.4608 30.6982C32.3083 31.0661 32.0848 31.4003 31.8031 31.6817C31.5216 31.9635 31.1874 32.187 30.8196 32.3395C30.4517 32.492 30.0574 32.5705 29.6591 32.5705C29.2609 32.5705 28.8666 32.492 28.4987 32.3395C28.1308 32.187 27.7966 31.9635 27.5152 31.6817L27.4243 31.5908C27.0672 31.2415 26.6137 31.0072 26.1221 30.9181C25.6306 30.829 25.1237 30.8891 24.6667 31.0908C24.2186 31.2829 23.8364 31.6018 23.5672 32.0083C23.298 32.4148 23.1535 32.8912 23.1516 33.3787V33.6363C23.1516 34.44 22.8323 35.2107 22.264 35.779C21.6957 36.3473 20.9249 36.6666 20.1213 36.6666C19.3176 36.6666 18.5468 36.3473 17.9785 35.779C17.4102 35.2107 17.091 34.44 17.091 33.6363V33.4999C17.0792 32.9984 16.9169 32.512 16.6251 32.104C16.3332 31.696 15.9254 31.3852 15.4546 31.212C14.9976 31.0104 14.4907 30.9502 13.9991 31.0393C13.5076 31.1284 13.0541 31.3627 12.697 31.712L12.6061 31.803C12.3247 32.0847 11.9905 32.3082 11.6226 32.4607C11.2547 32.6132 10.8604 32.6917 10.4622 32.6917C10.0639 32.6917 9.66961 32.6132 9.30174 32.4607C8.93386 32.3082 8.59966 32.0847 8.31822 31.803C8.03648 31.5215 7.81296 31.1873 7.66047 30.8194C7.50797 30.4516 7.42948 30.0572 7.42948 29.659C7.42948 29.2608 7.50797 28.8665 7.66047 28.4986C7.81296 28.1307 8.03648 27.7965 8.31822 27.5151L8.40913 27.4242C8.75843 27.0671 8.99275 26.6135 9.08187 26.122C9.17099 25.6305 9.11082 25.1236 8.90913 24.6666C8.71707 24.2185 8.39816 23.8363 7.99166 23.5671C7.58515 23.2978 7.10881 23.1534 6.62125 23.1514H6.36368C5.55999 23.1514 4.78922 22.8322 4.22093 22.2639C3.65264 21.6956 3.33337 20.9248 3.33337 20.1211C3.33337 19.3174 3.65264 18.5467 4.22093 17.9784C4.78922 17.4101 5.55999 17.0908 6.36368 17.0908H6.50004C7.00155 17.0791 7.48793 16.9168 7.89595 16.6249C8.30397 16.3331 8.61476 15.9253 8.78792 15.4545C8.98961 14.9975 9.04977 14.4905 8.96065 13.999C8.87153 13.5075 8.63722 13.054 8.28792 12.6969L8.19701 12.606C7.91526 12.3245 7.69175 11.9903 7.53925 11.6225C7.38676 11.2546 7.30826 10.8603 7.30826 10.462C7.30826 10.0638 7.38676 9.66949 7.53925 9.30162C7.69175 8.93374 7.91526 8.59953 8.19701 8.3181C8.47844 8.03635 8.81265 7.81284 9.18053 7.66034C9.5484 7.50785 9.94272 7.42935 10.341 7.42935C10.7392 7.42935 11.1335 7.50785 11.5014 7.66034C11.8692 7.81284 12.2035 8.03635 12.4849 8.3181L12.5758 8.40901C12.9329 8.75831 13.3864 8.99262 13.8779 9.08174C14.3694 9.17086 14.8764 9.1107 15.3334 8.90901H15.4546C15.9027 8.71694 16.2849 8.39803 16.5541 7.99153C16.8233 7.58503 16.9678 7.10869 16.9697 6.62113V6.36356C16.9697 5.55987 17.289 4.7891 17.8573 4.22081C18.4256 3.65252 19.1964 3.33325 20 3.33325C20.8037 3.33325 21.5745 3.65252 22.1428 4.22081C22.7111 4.7891 23.0303 5.55987 23.0303 6.36356V6.49992C23.0323 6.98747 23.1768 7.46382 23.446 7.87032C23.7152 8.27682 24.0974 8.59573 24.5455 8.7878C25.0025 8.98949 25.5094 9.04965 26.0009 8.96053C26.4924 8.87141 26.946 8.6371 27.3031 8.2878L27.394 8.19689C27.6754 7.91514 28.0096 7.69163 28.3775 7.53913C28.7454 7.38663 29.1397 7.30814 29.5379 7.30814C29.9362 7.30814 30.3305 7.38663 30.6983 7.53913C31.0662 7.69163 31.4004 7.91514 31.6819 8.19689C31.9636 8.47832 32.1871 8.81253 32.3396 9.1804C32.4921 9.54828 32.5706 9.9426 32.5706 10.3408C32.5706 10.7391 32.4921 11.1334 32.3396 11.5013C32.1871 11.8691 31.9636 12.2033 31.6819 12.4848L31.591 12.5757C31.2417 12.9328 31.0073 13.3863 30.9182 13.8778C30.8291 14.3693 30.8893 14.8763 31.091 15.3333V15.4545C31.283 15.9026 31.6019 16.2848 32.0084 16.554C32.4149 16.8232 32.8913 16.9677 33.3788 16.9696H33.6364C34.4401 16.9696 35.2109 17.2889 35.7792 17.8572C36.3474 18.4255 36.6667 19.1962 36.6667 19.9999C36.6667 20.8036 36.3474 21.5744 35.7792 22.1427C35.2109 22.711 34.4401 23.0302 33.6364 23.0302H33.5C33.0125 23.0322 32.5361 23.1766 32.1296 23.4458C31.7231 23.715 31.4042 24.0972 31.2122 24.5454Z" stroke="black" stroke-width="3.33333" stroke-linecap="round" stroke-linejoin="round"/>
</svg>
