<svg width="40" height="40" viewBox="0 0 40 40" fill="none" xmlns="http://www.w3.org/2000/svg">
<path opacity="0.12" d="M10.1273 7.03569L19.0636 3.68457C19.4101 3.55463 19.5834 3.48966 19.7616 3.46391C19.8406 3.45249 19.9203 3.44678 20 3.44678V36.4361C19.8757 36.4361 19.7515 36.4253 19.6505 36.4036C19.3901 36.3478 19.2056 36.2402 18.8366 36.0249C15.5899 34.1308 6.66663 28.1809 6.66663 20.0001V12.0294C6.66663 10.6969 6.66663 10.0307 6.88456 9.45795C7.07708 8.95201 7.38993 8.50057 7.79606 8.14266C8.25578 7.73751 8.87963 7.50357 10.1273 7.03569Z" fill="black"/>
<path d="M20 4.16678V35.8334M33.3333 20.0001C33.3333 28.1809 24.41 34.1308 21.1633 36.0249C20.7943 36.2402 20.6098 36.3478 20.3494 36.4036C20.1474 36.447 19.8526 36.447 19.6505 36.4036C19.3901 36.3478 19.2056 36.2402 18.8366 36.0249C15.5899 34.1308 6.66663 28.1809 6.66663 20.0001V12.0294C6.66663 10.6969 6.66663 10.0307 6.88456 9.45795C7.07708 8.95201 7.38993 8.50057 7.79606 8.14266C8.25578 7.73751 8.87962 7.50357 10.1273 7.03569L19.0636 3.68457C19.4101 3.55463 19.5834 3.48966 19.7616 3.46391C19.9197 3.44107 20.0802 3.44107 20.2383 3.46391C20.4165 3.48966 20.5898 3.55463 20.9363 3.68457L29.8726 7.03569C31.1203 7.50357 31.7441 7.73751 32.2039 8.14266C32.61 8.50057 32.9228 8.95201 33.1154 9.45795C33.3333 10.0307 33.3333 10.6969 33.3333 12.0294V20.0001Z" stroke="black" stroke-width="3.33333" stroke-linecap="round" stroke-linejoin="round"/>
</svg>
