<svg width="40" height="40" viewBox="0 0 40 40" fill="none" xmlns="http://www.w3.org/2000/svg">
<path opacity="0.12" d="M32.3332 9.99992C33.1915 9.99992 33.6206 9.99992 33.8469 9.82271C34.0439 9.6685 34.1611 9.43398 34.1663 9.1839C34.1723 8.89653 33.9148 8.55321 33.3998 7.86658L30.7998 4.39992C30.5065 4.00881 30.3598 3.81325 30.174 3.67221C30.0093 3.54729 29.8229 3.45408 29.6242 3.39733C29.3998 3.33325 29.1554 3.33325 28.6665 3.33325H11.3332C10.8443 3.33325 10.5998 3.33325 10.3755 3.39733C10.1768 3.45408 9.99034 3.54729 9.82571 3.67221C9.63984 3.81325 9.49317 4.00881 9.19984 4.39992L6.59984 7.86658C6.08487 8.55321 5.82738 8.89653 5.83335 9.1839C5.83855 9.43398 5.95581 9.6685 6.15276 9.82271C6.37907 9.99992 6.80822 9.99992 7.66651 9.99992H32.3332Z" fill="black"/>
<path d="M9.2 4.39992L6.6 7.86658C6.08503 8.55321 5.82754 8.89653 5.83351 9.1839C5.83871 9.43398 5.95597 9.6685 6.15292 9.82271C6.37923 9.99992 6.80838 9.99992 7.66667 9.99992H32.3333C33.1916 9.99992 33.6208 9.99992 33.8471 9.82271C34.044 9.6685 34.1613 9.43398 34.1665 9.1839C34.1725 8.89653 33.915 8.55321 33.4 7.86658L30.8 4.39992M9.2 4.39992C9.49333 4.00881 9.64 3.81325 9.82588 3.67221C9.9905 3.54729 10.1769 3.45408 10.3756 3.39733C10.6 3.33325 10.8444 3.33325 11.3333 3.33325H28.6667C29.1556 3.33325 29.4 3.33325 29.6244 3.39733C29.8231 3.45408 30.0095 3.54729 30.1741 3.67221C30.36 3.81325 30.5067 4.00881 30.8 4.39992M9.2 4.39992L6.06667 8.57769C5.6709 9.10538 5.47301 9.36923 5.3325 9.65979C5.20781 9.91762 5.11687 10.1904 5.06192 10.4715C5 10.7883 5 11.1181 5 11.7777L5 31.3332C5 33.2001 5 34.1335 5.36331 34.8466C5.68289 35.4738 6.19282 35.9837 6.82003 36.3033C7.53307 36.6666 8.46649 36.6666 10.3333 36.6666L29.6667 36.6666C31.5335 36.6666 32.4669 36.6666 33.18 36.3033C33.8072 35.9837 34.3171 35.4738 34.6367 34.8466C35 34.1335 35 33.2001 35 31.3332V11.7777C35 11.1181 35 10.7883 34.9381 10.4715C34.8831 10.1904 34.7922 9.91762 34.6675 9.65979C34.527 9.36923 34.3291 9.10539 33.9333 8.5777L30.8 4.39992M26.6667 16.6666C26.6667 18.4347 25.9643 20.1304 24.714 21.3806C23.4638 22.6309 21.7681 23.3332 20 23.3332C18.2319 23.3332 16.5362 22.6309 15.286 21.3806C14.0357 20.1304 13.3333 18.4347 13.3333 16.6666" stroke="black" stroke-width="3.33333" stroke-linecap="round" stroke-linejoin="round"/>
</svg>
