<svg width="40" height="40" viewBox="0 0 40 40" fill="none" xmlns="http://www.w3.org/2000/svg">
<g opacity="0.12">
<path d="M6.66671 7.66667C6.66671 6.73325 6.66671 6.26654 6.84836 5.91002C7.00815 5.59641 7.26312 5.34144 7.57672 5.18166C7.93324 5 8.39995 5 9.33337 5H10.6667C11.6001 5 12.0668 5 12.4234 5.18166C12.737 5.34144 12.9919 5.59641 13.1517 5.91002C13.3334 6.26654 13.3334 6.73325 13.3334 7.66667V9C13.3334 9.93342 13.3334 10.4001 13.1517 10.7567C12.9919 11.0703 12.737 11.3252 12.4234 11.485C12.0668 11.6667 11.6001 11.6667 10.6667 11.6667H9.33337C8.39995 11.6667 7.93324 11.6667 7.57672 11.485C7.26312 11.3252 7.00815 11.0703 6.84836 10.7567C6.66671 10.4001 6.66671 9.93342 6.66671 9V7.66667Z" fill="black"/>
<path d="M3.33337 31C3.33337 30.0666 3.33337 29.5999 3.51503 29.2433C3.67482 28.9297 3.92979 28.6748 4.24339 28.515C4.59991 28.3333 5.06662 28.3333 6.00004 28.3333H7.33337C8.2668 28.3333 8.73351 28.3333 9.09003 28.515C9.40363 28.6748 9.6586 28.9297 9.81839 29.2433C10 29.5999 10 30.0666 10 31V32.3333C10 33.2668 10 33.7335 9.81839 34.09C9.6586 34.4036 9.40363 34.6586 9.09003 34.8183C8.73351 35 8.2668 35 7.33337 35H6.00004C5.06662 35 4.59991 35 4.24339 34.8183C3.92979 34.6586 3.67482 34.4036 3.51503 34.09C3.33337 33.7335 3.33337 33.2668 3.33337 32.3333V31Z" fill="black"/>
<path d="M30 7.66667C30 6.73325 30 6.26654 30.1817 5.91002C30.3415 5.59641 30.5965 5.34144 30.9101 5.18166C31.2666 5 31.7333 5 32.6667 5H34C34.9335 5 35.4002 5 35.7567 5.18166C36.0703 5.34144 36.3253 5.59641 36.4851 5.91002C36.6667 6.26654 36.6667 6.73325 36.6667 7.66667V9C36.6667 9.93342 36.6667 10.4001 36.4851 10.7567C36.3253 11.0703 36.0703 11.3252 35.7567 11.485C35.4002 11.6667 34.9335 11.6667 34 11.6667H32.6667C31.7333 11.6667 31.2666 11.6667 30.9101 11.485C30.5965 11.3252 30.3415 11.0703 30.1817 10.7567C30 10.4001 30 9.93342 30 9V7.66667Z" fill="black"/>
<path d="M26.6667 31C26.6667 30.0666 26.6667 29.5999 26.8484 29.2433C27.0082 28.9297 27.2631 28.6748 27.5767 28.515C27.9332 28.3333 28.4 28.3333 29.3334 28.3333H30.6667C31.6001 28.3333 32.0668 28.3333 32.4234 28.515C32.737 28.6748 32.9919 28.9297 33.1517 29.2433C33.3334 29.5999 33.3334 30.0666 33.3334 31V32.3333C33.3334 33.2668 33.3334 33.7335 33.1517 34.09C32.9919 34.4036 32.737 34.6586 32.4234 34.8183C32.0668 35 31.6001 35 30.6667 35H29.3334C28.4 35 27.9332 35 27.5767 34.8183C27.2631 34.6586 27.0082 34.4036 26.8484 34.09C26.6667 33.7335 26.6667 33.2668 26.6667 32.3333V31Z" fill="black"/>
</g>
<path d="M32.8569 11.6665L30.476 28.3332M10.2381 11.6667L7.26195 28.3333M30 8.33333L13.3334 8.33333M26.6667 31.6667L10 31.6667M9.33337 11.6667H10.6667C11.6001 11.6667 12.0668 11.6667 12.4234 11.485C12.737 11.3252 12.9919 11.0703 13.1517 10.7567C13.3334 10.4001 13.3334 9.93342 13.3334 9V7.66667C13.3334 6.73325 13.3334 6.26654 13.1517 5.91002C12.9919 5.59641 12.737 5.34144 12.4234 5.18166C12.0668 5 11.6001 5 10.6667 5H9.33337C8.39995 5 7.93324 5 7.57672 5.18166C7.26312 5.34144 7.00815 5.59641 6.84836 5.91002C6.66671 6.26654 6.66671 6.73325 6.66671 7.66667V9C6.66671 9.93342 6.66671 10.4001 6.84836 10.7567C7.00815 11.0703 7.26312 11.3252 7.57672 11.485C7.93324 11.6667 8.39995 11.6667 9.33337 11.6667ZM6.00004 35H7.33337C8.2668 35 8.73351 35 9.09003 34.8183C9.40363 34.6586 9.6586 34.4036 9.81839 34.09C10 33.7335 10 33.2668 10 32.3333V31C10 30.0666 10 29.5999 9.81839 29.2433C9.6586 28.9297 9.40363 28.6748 9.09003 28.515C8.73351 28.3333 8.2668 28.3333 7.33337 28.3333H6.00004C5.06662 28.3333 4.59991 28.3333 4.24339 28.515C3.92979 28.6748 3.67482 28.9297 3.51503 29.2433C3.33337 29.5999 3.33337 30.0666 3.33337 31V32.3333C3.33337 33.2668 3.33337 33.7335 3.51503 34.09C3.67482 34.4036 3.92979 34.6586 4.24339 34.8183C4.59991 35 5.06662 35 6.00004 35ZM32.6667 11.6667H34C34.9335 11.6667 35.4002 11.6667 35.7567 11.485C36.0703 11.3252 36.3253 11.0703 36.4851 10.7567C36.6667 10.4001 36.6667 9.93342 36.6667 9V7.66667C36.6667 6.73325 36.6667 6.26654 36.4851 5.91002C36.3253 5.59641 36.0703 5.34144 35.7567 5.18166C35.4002 5 34.9335 5 34 5H32.6667C31.7333 5 31.2666 5 30.9101 5.18166C30.5965 5.34144 30.3415 5.59641 30.1817 5.91002C30 6.26654 30 6.73325 30 7.66667V9C30 9.93342 30 10.4001 30.1817 10.7567C30.3415 11.0703 30.5965 11.3252 30.9101 11.485C31.2666 11.6667 31.7333 11.6667 32.6667 11.6667ZM29.3334 35H30.6667C31.6001 35 32.0668 35 32.4234 34.8183C32.737 34.6586 32.9919 34.4036 33.1517 34.09C33.3334 33.7335 33.3334 33.2668 33.3334 32.3333V31C33.3334 30.0666 33.3334 29.5999 33.1517 29.2433C32.9919 28.9297 32.737 28.6748 32.4234 28.515C32.0668 28.3333 31.6001 28.3333 30.6667 28.3333H29.3334C28.4 28.3333 27.9332 28.3333 27.5767 28.515C27.2631 28.6748 27.0082 28.9297 26.8484 29.2433C26.6667 29.5999 26.6667 30.0666 26.6667 31V32.3333C26.6667 33.2668 26.6667 33.7335 26.8484 34.09C27.0082 34.4036 27.2631 34.6586 27.5767 34.8183C27.9332 35 28.4 35 29.3334 35Z" stroke="black" stroke-width="3.33333" stroke-linecap="round" stroke-linejoin="round"/>
</svg>
