<svg width="40" height="40" viewBox="0 0 40 40" fill="none" xmlns="http://www.w3.org/2000/svg">
<path opacity="0.12" d="M8.33337 12.2148C8.33337 10.4387 8.33337 9.55057 8.69747 9.09444C9.01412 8.69776 9.49427 8.46698 10.0018 8.46753C10.5855 8.46816 11.2789 9.02294 12.6659 10.1325L22.3971 17.9175C23.2869 18.6293 23.7318 18.9852 23.8928 19.4152C24.034 19.7921 24.034 20.2075 23.8928 20.5845C23.7318 21.0144 23.2869 21.3703 22.3971 22.0821L12.6659 29.8671C11.2789 30.9767 10.5855 31.5315 10.0018 31.5321C9.49427 31.5327 9.01412 31.3019 8.69747 30.9052C8.33337 30.4491 8.33337 29.561 8.33337 27.7848V12.2148Z" fill="black"/>
<path d="M31.6667 8.33325V31.6666M12.6659 29.8672L22.3971 22.0822C23.2869 21.3704 23.7318 21.0145 23.8928 20.5846C24.034 20.2076 24.034 19.7922 23.8928 19.4153C23.7318 18.9853 23.2869 18.6294 22.3971 17.9176L12.6659 10.1326C11.2789 9.02304 10.5855 8.46826 10.0018 8.46763C9.49427 8.46708 9.01412 8.69785 8.69747 9.09454C8.33337 9.55067 8.33337 10.4388 8.33337 12.2149V27.7849C8.33337 29.5611 8.33337 30.4492 8.69747 30.9053C9.01412 31.302 9.49427 31.5328 10.0018 31.5322C10.5855 31.5316 11.2789 30.9768 12.6659 29.8672Z" stroke="black" stroke-width="3.33333" stroke-linecap="round" stroke-linejoin="round"/>
</svg>
