<svg width="40" height="40" viewBox="0 0 40 40" fill="none" xmlns="http://www.w3.org/2000/svg">
<path opacity="0.12" d="M20 28.3334C24.6023 28.3334 28.3333 24.6025 28.3333 20.0001C28.3333 15.3977 24.6023 11.6667 20 11.6667C15.3976 11.6667 11.6666 15.3977 11.6666 20.0001C11.6666 24.6025 15.3976 28.3334 20 28.3334Z" fill="black"/>
<path d="M20 19.9999H20.0167M30 9.99992H30.0167M10 9.99992H10.0167M30 29.9999H30.0167M10 29.9999H10.0167M11.3334 36.6666H28.6667C31.467 36.6666 32.8671 36.6666 33.9367 36.1216C34.8775 35.6423 35.6424 34.8773 36.1217 33.9365C36.6667 32.867 36.6667 31.4668 36.6667 28.6666V11.3333C36.6667 8.53299 36.6667 7.13286 36.1217 6.0633C35.6424 5.12249 34.8775 4.35759 33.9367 3.87822C32.8671 3.33325 31.467 3.33325 28.6667 3.33325H11.3334C8.53311 3.33325 7.13298 3.33325 6.06342 3.87822C5.12261 4.35759 4.35771 5.12249 3.87834 6.0633C3.33337 7.13286 3.33337 8.53299 3.33337 11.3333V28.6666C3.33337 31.4668 3.33337 32.867 3.87834 33.9365C4.35771 34.8773 5.12261 35.6423 6.06342 36.1216C7.13298 36.6666 8.53311 36.6666 11.3334 36.6666ZM20.8334 19.9999C20.8334 20.4602 20.4603 20.8333 20 20.8333C19.5398 20.8333 19.1667 20.4602 19.1667 19.9999C19.1667 19.5397 19.5398 19.1666 20 19.1666C20.4603 19.1666 20.8334 19.5397 20.8334 19.9999ZM28.3334 19.9999C28.3334 24.6023 24.6024 28.3333 20 28.3333C15.3977 28.3333 11.6667 24.6023 11.6667 19.9999C11.6667 15.3975 15.3977 11.6666 20 11.6666C24.6024 11.6666 28.3334 15.3975 28.3334 19.9999Z" stroke="black" stroke-width="3.33333" stroke-linecap="round" stroke-linejoin="round"/>
</svg>
