<svg width="40" height="40" viewBox="0 0 40 40" fill="none" xmlns="http://www.w3.org/2000/svg">
<path opacity="0.12" d="M31.7851 31.785C28.7691 34.8011 24.6024 36.6666 20 36.6666C15.3977 36.6666 11.231 34.8011 8.21497 31.7851L8.54252 31.4575C9.69553 30.3045 10.272 29.728 10.9448 29.3157C11.5413 28.9502 12.1916 28.6808 12.8718 28.5175C13.6391 28.3333 14.4544 28.3333 16.085 28.3333L23.9151 28.3333C25.5457 28.3332 26.361 28.3332 27.1282 28.5174C27.8085 28.6807 28.4588 28.9501 29.0553 29.3156C29.7281 29.7279 30.3046 30.3044 31.4576 31.4574L31.7851 31.785Z" fill="black"/>
<path d="M36.6667 19.9999C36.6667 29.2047 29.2048 36.6666 20 36.6666C10.7953 36.6666 3.33337 29.2047 3.33337 19.9999M36.6667 19.9999C36.6667 10.7952 29.2048 3.33325 20 3.33325M36.6667 19.9999H32.5M3.33337 19.9999C3.33337 10.7952 10.7953 3.33325 20 3.33325M3.33337 19.9999H7.50004M20 3.33325V7.49992M31.7974 8.33325L22.4999 17.4999M31.7974 31.7973L31.4576 31.4575C30.3046 30.3045 29.7281 29.7279 29.0553 29.3157C28.4588 28.9501 27.8085 28.6808 27.1282 28.5175C26.361 28.3333 25.5457 28.3333 23.9151 28.3333L16.085 28.3333C14.4544 28.3333 13.6391 28.3333 12.8718 28.5175C12.1916 28.6808 11.5413 28.9502 10.9448 29.3157C10.272 29.728 9.69554 30.3045 8.54253 31.4575L8.20276 31.7973M8.20276 8.33325L11.0968 11.2273M23.3334 19.9999C23.3334 21.8409 21.841 23.3333 20 23.3333C18.1591 23.3333 16.6667 21.8409 16.6667 19.9999C16.6667 18.159 18.1591 16.6666 20 16.6666C21.841 16.6666 23.3334 18.159 23.3334 19.9999Z" stroke="black" stroke-width="3.33333" stroke-linecap="round" stroke-linejoin="round"/>
</svg>
