<svg width="40" height="40" viewBox="0 0 40 40" fill="none" xmlns="http://www.w3.org/2000/svg">
<path opacity="0.12" d="M18.8045 5.75561C19.1886 4.97738 19.3807 4.58826 19.6414 4.46394C19.8683 4.35577 20.1319 4.35577 20.3587 4.46394C20.6195 4.58826 20.8115 4.97738 21.1957 5.75561L24.8401 13.1389C24.9535 13.3686 25.0103 13.4835 25.0931 13.5727C25.1665 13.6517 25.2545 13.7157 25.3522 13.7611C25.4626 13.8125 25.5894 13.831 25.8429 13.868L33.995 15.0596C34.8535 15.1851 35.2827 15.2478 35.4813 15.4575C35.6542 15.6399 35.7355 15.8906 35.7026 16.1397C35.6647 16.426 35.354 16.7287 34.7325 17.3341L28.8358 23.0774C28.652 23.2565 28.5601 23.346 28.5008 23.4525C28.4482 23.5468 28.4146 23.6504 28.4016 23.7576C28.3869 23.8786 28.4086 24.0051 28.452 24.258L29.8433 32.3703C29.9901 33.2259 30.0634 33.6537 29.9255 33.9076C29.8056 34.1285 29.5923 34.2834 29.3451 34.3292C29.0611 34.3819 28.6769 34.1798 27.9086 33.7758L20.6207 29.9431C20.3936 29.8237 20.2801 29.764 20.1604 29.7406C20.0545 29.7198 19.9456 29.7198 19.8397 29.7406C19.7201 29.764 19.6065 29.8237 19.3795 29.9431L12.0916 33.7758C11.3232 34.1798 10.9391 34.3819 10.655 34.3292C10.4078 34.2834 10.1946 34.1285 10.0746 33.9076C9.93671 33.6537 10.0101 33.2259 10.1568 32.3703L11.5482 24.258C11.5916 24.0051 11.6132 23.8786 11.5986 23.7576C11.5856 23.6504 11.5519 23.5468 11.4994 23.4525C11.4401 23.346 11.3482 23.2565 11.1644 23.0774L5.26764 17.334C4.64615 16.7287 4.3354 16.426 4.29758 16.1397C4.26468 15.8906 4.34596 15.6399 4.51879 15.4575C4.71743 15.2478 5.14666 15.1851 6.00511 15.0596L14.1572 13.868C14.4107 13.831 14.5375 13.8125 14.6479 13.7611C14.7456 13.7157 14.8336 13.6517 14.907 13.5727C14.9899 13.4835 15.0466 13.3686 15.16 13.1389L18.8045 5.75561Z" fill="black"/>
<path d="M18.8045 5.75561C19.1886 4.97738 19.3807 4.58826 19.6414 4.46394C19.8683 4.35577 20.1319 4.35577 20.3587 4.46394C20.6195 4.58826 20.8115 4.97738 21.1957 5.75561L24.8401 13.1389C24.9535 13.3686 25.0103 13.4835 25.0931 13.5727C25.1665 13.6517 25.2545 13.7157 25.3522 13.7611C25.4626 13.8125 25.5894 13.831 25.8429 13.868L33.995 15.0596C34.8535 15.1851 35.2827 15.2478 35.4813 15.4575C35.6542 15.6399 35.7355 15.8906 35.7026 16.1397C35.6647 16.426 35.354 16.7287 34.7325 17.3341L28.8358 23.0774C28.652 23.2565 28.5601 23.346 28.5008 23.4525C28.4482 23.5468 28.4146 23.6504 28.4016 23.7576C28.3869 23.8786 28.4086 24.0051 28.452 24.258L29.8433 32.3703C29.9901 33.2259 30.0634 33.6537 29.9255 33.9076C29.8056 34.1285 29.5923 34.2834 29.3451 34.3292C29.0611 34.3819 28.6769 34.1798 27.9086 33.7758L20.6207 29.9431C20.3936 29.8237 20.2801 29.764 20.1604 29.7406C20.0545 29.7198 19.9456 29.7198 19.8397 29.7406C19.7201 29.764 19.6065 29.8237 19.3795 29.9431L12.0916 33.7758C11.3232 34.1798 10.9391 34.3819 10.655 34.3292C10.4078 34.2834 10.1946 34.1285 10.0746 33.9076C9.93671 33.6537 10.0101 33.2259 10.1568 32.3703L11.5482 24.258C11.5916 24.0051 11.6132 23.8786 11.5986 23.7576C11.5856 23.6504 11.5519 23.5468 11.4994 23.4525C11.4401 23.346 11.3482 23.2565 11.1644 23.0774L5.26764 17.334C4.64615 16.7287 4.3354 16.426 4.29758 16.1397C4.26468 15.8906 4.34596 15.6399 4.51879 15.4575C4.71743 15.2478 5.14666 15.1851 6.00511 15.0596L14.1572 13.868C14.4107 13.831 14.5375 13.8125 14.6479 13.7611C14.7456 13.7157 14.8336 13.6517 14.907 13.5727C14.9899 13.4835 15.0466 13.3686 15.16 13.1389L18.8045 5.75561Z" stroke="black" stroke-width="3.33333" stroke-linecap="round" stroke-linejoin="round"/>
</svg>
