<svg width="40" height="40" viewBox="0 0 40 40" fill="none" xmlns="http://www.w3.org/2000/svg">
<path opacity="0.12" d="M21.6666 5L24.5569 12.5148C25.0269 13.7368 25.262 14.3478 25.6274 14.8618C25.9513 15.3173 26.3493 15.7153 26.8048 16.0392C27.3188 16.4047 27.9298 16.6397 29.1519 17.1097L36.6666 20L29.1519 22.8903C27.9298 23.3603 27.3188 23.5953 26.8048 23.9608C26.3493 24.2847 25.9513 24.6827 25.6274 25.1382C25.262 25.6522 25.0269 26.2632 24.5569 27.4852L21.6666 35L18.7763 27.4852C18.3063 26.2632 18.0713 25.6522 17.7058 25.1382C17.3819 24.6827 16.984 24.2847 16.5284 23.9608C16.0145 23.5953 15.4034 23.3603 14.1814 22.8903L6.66663 20L14.1814 17.1097C15.4034 16.6397 16.0145 16.4047 16.5284 16.0392C16.984 15.7153 17.3819 15.3173 17.7058 14.8618C18.0713 14.3478 18.3063 13.7368 18.7763 12.5148L21.6666 5Z" fill="black"/>
<path d="M7.50004 36.6666V28.3333M7.50004 11.6666V3.33325M3.33337 7.49992H11.6667M3.33337 32.4999H11.6667M21.6667 4.99992L18.7764 12.5147C18.3064 13.7367 18.0714 14.3478 17.7059 14.8617C17.382 15.3172 16.984 15.7152 16.5285 16.0391C16.0146 16.4046 15.4035 16.6396 14.1815 17.1096L6.66671 19.9999L14.1815 22.8902C15.4035 23.3602 16.0146 23.5952 16.5285 23.9607C16.984 24.2846 17.382 24.6826 17.7059 25.1381C18.0714 25.6521 18.3064 26.2631 18.7764 27.4852L21.6667 34.9999L24.557 27.4851C25.027 26.2631 25.262 25.6521 25.6275 25.1381C25.9514 24.6826 26.3494 24.2846 26.8049 23.9607C27.3189 23.5952 27.9299 23.3602 29.1519 22.8902L36.6667 19.9999L29.1519 17.1096C27.9299 16.6396 27.3189 16.4046 26.8049 16.0391C26.3494 15.7152 25.9514 15.3172 25.6275 14.8617C25.262 14.3478 25.027 13.7367 24.557 12.5147L21.6667 4.99992Z" stroke="black" stroke-width="3.33333" stroke-linecap="round" stroke-linejoin="round"/>
</svg>
