<svg width="40" height="40" viewBox="0 0 40 40" fill="none" xmlns="http://www.w3.org/2000/svg">
<path opacity="0.12" d="M23.9428 7.27634C23.2288 6.56238 22.8718 6.20541 22.5653 6.18128C22.2994 6.16036 22.0395 6.268 21.8663 6.47084C21.6666 6.70462 21.6666 7.20946 21.6666 8.21916V10.3335C21.6666 13.1338 21.6666 14.5339 22.2116 15.6035C22.691 16.5443 23.4559 17.3092 24.3967 17.7886C25.4662 18.3335 26.8664 18.3335 29.6666 18.3335H31.781" fill="black"/>
<path d="M21.6667 5.83333V10.3333C21.6667 13.1336 21.6667 14.5337 22.2116 15.6033C22.691 16.5441 23.4559 17.309 24.3967 17.7884C25.4663 18.3333 26.8664 18.3333 29.6667 18.3333H34.1667M35 21.647V27C35 29.8003 35 31.2004 34.455 32.27C33.9757 33.2108 33.2108 33.9757 32.27 34.455C31.2004 35 29.8003 35 27 35H13C10.1997 35 8.79961 35 7.73005 34.455C6.78924 33.9757 6.02433 33.2108 5.54497 32.27C5 31.2004 5 29.8003 5 27V13C5 10.1997 5 8.79961 5.54497 7.73005C6.02433 6.78924 6.78924 6.02433 7.73005 5.54497C8.79961 5 10.1997 5 13 5H18.353C19.5759 5 20.1874 5 20.7628 5.13815C21.273 5.26063 21.7607 5.46266 22.2081 5.7368C22.7127 6.04601 23.1451 6.47839 24.0098 7.34315L32.6569 15.9902C33.5216 16.8549 33.954 17.2873 34.2632 17.7919C34.5373 18.2393 34.7394 18.727 34.8619 19.2372C35 19.8126 35 20.4241 35 21.647Z" stroke="black" stroke-width="3.33333" stroke-linecap="round" stroke-linejoin="round"/>
</svg>
