<svg width="40" height="40" viewBox="0 0 40 40" fill="none" xmlns="http://www.w3.org/2000/svg">
<path opacity="0.12" d="M5.74398 16.2234C6.14482 16.1949 6.54953 16.1804 6.95763 16.1804C16.2702 16.1804 23.8195 23.7297 23.8195 33.0423C23.8195 33.4504 23.805 33.8551 23.7765 34.256C23.7267 34.9563 23.7018 35.3064 23.4977 35.5227C23.3319 35.6984 23.0489 35.8039 22.8086 35.7799C22.5127 35.7502 22.2436 35.4811 21.7054 34.9429L5.05705 18.2946C4.51883 17.7564 4.24972 17.4872 4.22008 17.1913C4.196 16.951 4.30159 16.6681 4.47724 16.5023C4.6935 16.2981 5.04366 16.2732 5.74398 16.2234Z" fill="black"/>
<path d="M36.6669 20.1951C36.6669 10.8826 29.1176 3.33325 19.805 3.33325C12.2466 3.33325 5.84978 8.30634 3.70804 15.1589C3.57085 15.5979 3.50225 15.8174 3.50872 16.0918C3.51398 16.315 3.58182 16.5907 3.6807 16.7908C3.80231 17.0369 3.99008 17.2247 4.36561 17.6002L22.4006 35.6344C22.7761 36.0099 22.9639 36.1977 23.21 36.3193C23.4102 36.4182 23.6859 36.486 23.9091 36.4912C24.1835 36.4977 24.403 36.4291 24.842 36.2919C31.6942 34.1499 36.6669 27.7532 36.6669 20.1951Z" stroke="black" stroke-width="3.33333" stroke-linecap="round" stroke-linejoin="round"/>
<path d="M5.74385 16.2234C6.14469 16.1949 6.5494 16.1804 6.9575 16.1804C16.2701 16.1804 23.8194 23.7297 23.8194 33.0423C23.8194 33.4504 23.8049 33.8551 23.7764 34.256C23.7266 34.9563 23.7017 35.3064 23.4975 35.5227C23.3317 35.6983 23.0488 35.8039 22.8085 35.7799C22.5126 35.7502 22.2435 35.4811 21.7052 34.9429L5.05692 18.2946C4.5187 17.7563 4.24959 17.4872 4.21995 17.1913C4.19587 16.951 4.30146 16.6681 4.47711 16.5023C4.69337 16.2981 5.04353 16.2732 5.74385 16.2234Z" stroke="black" stroke-width="3.33333" stroke-linecap="round" stroke-linejoin="round"/>
</svg>
