<svg width="40" height="40" viewBox="0 0 40 40" fill="none" xmlns="http://www.w3.org/2000/svg">
<path opacity="0.12" d="M35 14V12C35 9.19974 35 7.79961 34.455 6.73005C33.9757 5.78924 33.2108 5.02434 32.27 4.54497C31.2004 4 29.8003 4 27 4L13 4C10.1997 4 8.79961 4 7.73005 4.54497C6.78924 5.02433 6.02433 5.78924 5.54497 6.73005C5 7.79961 5 9.19974 5 12L5 14L35 14Z" fill="black"/>
<path d="M5 14L35 14M15 4L15 34M13 4H27C29.8003 4 31.2004 4 32.27 4.54497C33.2108 5.02433 33.9757 5.78924 34.455 6.73005C35 7.79961 35 9.19974 35 12V26C35 28.8003 35 30.2004 34.455 31.27C33.9757 32.2108 33.2108 32.9757 32.27 33.455C31.2004 34 29.8003 34 27 34H13C10.1997 34 8.79961 34 7.73005 33.455C6.78924 32.9757 6.02433 32.2108 5.54497 31.27C5 30.2004 5 28.8003 5 26V12C5 9.19974 5 7.79961 5.54497 6.73005C6.02433 5.78924 6.78924 5.02433 7.73005 4.54497C8.79961 4 10.1997 4 13 4Z" stroke="black" stroke-width="3.33333" stroke-linecap="round" stroke-linejoin="round"/>
</svg>
