<svg width="40" height="40" viewBox="0 0 40 40" fill="none" xmlns="http://www.w3.org/2000/svg">
<path opacity="0.12" d="M20 36.6666C29.2048 36.6666 36.6667 29.2047 36.6667 19.9999C36.6667 10.7952 29.2048 3.33325 20 3.33325C10.7953 3.33325 3.33337 10.7952 3.33337 19.9999C3.33337 29.2047 10.7953 36.6666 20 36.6666Z" fill="black"/>
<path d="M36.6667 19.9999C36.6667 29.2047 29.2048 36.6666 20 36.6666M36.6667 19.9999C36.6667 10.7952 29.2048 3.33325 20 3.33325M36.6667 19.9999H30M20 36.6666C10.7953 36.6666 3.33337 29.2047 3.33337 19.9999M20 36.6666V29.9999M3.33337 19.9999C3.33337 10.7952 10.7953 3.33325 20 3.33325M3.33337 19.9999H10M20 3.33325V9.99992" stroke="black" stroke-width="3.33333" stroke-linecap="round" stroke-linejoin="round"/>
</svg>
