<svg width="40" height="40" viewBox="0 0 40 40" fill="none" xmlns="http://www.w3.org/2000/svg">
<path opacity="0.12" d="M31.3334 11.6667H28.3334V28.3334H31.3334C33.2002 28.3334 34.1336 28.3334 34.8467 27.9701C35.4739 27.6505 35.9838 27.1406 36.3034 26.5134C36.6667 25.8003 36.6667 24.8669 36.6667 23.0001V17.0001C36.6667 15.1332 36.6667 14.1998 36.3034 13.4868C35.9838 12.8596 35.4739 12.3496 34.8467 12.0301C34.1336 11.6667 33.2002 11.6667 31.3334 11.6667Z" fill="black"/>
<path d="M21.6667 11.6667H8.66671C6.79987 11.6667 5.86644 11.6667 5.15341 12.03C4.5262 12.3496 4.01626 12.8595 3.69669 13.4867C3.33337 14.1997 3.33337 15.1332 3.33337 17V23C3.33337 24.8668 3.33337 25.8003 3.69669 26.5133C4.01626 27.1405 4.5262 27.6504 5.15341 27.97C5.86644 28.3333 6.79987 28.3333 8.66671 28.3333H21.6667M28.3334 11.6667H31.3334C33.2002 11.6667 34.1336 11.6667 34.8467 12.03C35.4739 12.3496 35.9838 12.8595 36.3034 13.4867C36.6667 14.1997 36.6667 15.1332 36.6667 17V23C36.6667 24.8668 36.6667 25.8003 36.3034 26.5133C35.9838 27.1405 35.4739 27.6504 34.8467 27.97C34.1336 28.3333 33.2002 28.3333 31.3334 28.3333H28.3334M28.3334 35L28.3334 5M32.5 5.00001L24.1667 5M32.5 35L24.1667 35" stroke="black" stroke-width="3.33333" stroke-linecap="round" stroke-linejoin="round"/>
</svg>
