<svg width="40" height="40" viewBox="0 0 40 40" fill="none" xmlns="http://www.w3.org/2000/svg">
<path opacity="0.12" d="M26.6667 6.66659C26.6667 4.82564 28.1591 3.33325 30 3.33325C31.841 3.33325 33.3334 4.82564 33.3334 6.66659V24.2251C35.326 25.3778 36.6667 27.5323 36.6667 29.9999C36.6667 33.6818 33.6819 36.6666 30 36.6666C26.3181 36.6666 23.3334 33.6818 23.3334 29.9999C23.3334 27.5323 24.674 25.3778 26.6667 24.2251V6.66659Z" fill="black"/>
<path d="M3.33337 19.9999H20M15 6.66659V33.3333M5.00004 14.9999L10 19.9999L5.00004 24.9999M20 9.99992L15 14.9999L10 9.99992M10 29.9999L15 24.9999L17.5 27.4999M33.3334 24.2251V6.66659C33.3334 4.82564 31.841 3.33325 30 3.33325C28.1591 3.33325 26.6667 4.82564 26.6667 6.66659V24.2251C24.674 25.3778 23.3334 27.5323 23.3334 29.9999C23.3334 33.6818 26.3181 36.6666 30 36.6666C33.6819 36.6666 36.6667 33.6818 36.6667 29.9999C36.6667 27.5323 35.326 25.3778 33.3334 24.2251Z" stroke="black" stroke-width="3.33333" stroke-linecap="round" stroke-linejoin="round"/>
</svg>
