<svg width="40" height="40" viewBox="0 0 40 40" fill="none" xmlns="http://www.w3.org/2000/svg">
<path opacity="0.12" d="M3.33337 21.6666V33.3333C3.33337 35.1742 4.82576 36.6666 6.66671 36.6666H11.6667V18.3333H6.66671C4.82576 18.3333 3.33337 19.8256 3.33337 21.6666Z" fill="black"/>
<path d="M11.6667 36.6666V18.3333M3.33337 21.6666V33.3333C3.33337 35.1742 4.82576 36.6666 6.66671 36.6666H29.0438C31.5116 36.6666 33.6104 34.866 33.9856 32.4269L35.7805 20.7602C36.2465 17.7314 33.9031 14.9999 30.8387 14.9999H25C24.0796 14.9999 23.3334 14.2537 23.3334 13.3333V7.44298C23.3334 5.17324 21.4934 3.33325 19.2236 3.33325C18.6823 3.33325 18.1917 3.65208 17.9718 4.14679L12.1066 17.3435C11.8391 17.9454 11.2422 18.3333 10.5836 18.3333H6.66671C4.82576 18.3333 3.33337 19.8256 3.33337 21.6666Z" stroke="black" stroke-width="3.33333" stroke-linecap="round" stroke-linejoin="round"/>
</svg>
