<svg width="40" height="40" viewBox="0 0 40 40" fill="none" xmlns="http://www.w3.org/2000/svg">
<path opacity="0.12" fill-rule="evenodd" clip-rule="evenodd" d="M11.6666 11.6667C7.06421 11.6667 3.33325 15.3977 3.33325 20.0001C3.33325 24.6025 7.06421 28.3334 11.6666 28.3334H28.3333C23.7309 28.3334 19.9999 24.6025 19.9999 20.0001C19.9999 15.3977 23.7309 11.6667 28.3333 11.6667H11.6666Z" fill="black"/>
<path d="M28.3333 28.3334H11.6666C7.06421 28.3334 3.33325 24.6025 3.33325 20.0001C3.33325 15.3977 7.06421 11.6667 11.6666 11.6667H28.3333M28.3333 28.3334C32.9356 28.3334 36.6666 24.6025 36.6666 20.0001C36.6666 15.3977 32.9356 11.6667 28.3333 11.6667M28.3333 28.3334C23.7309 28.3334 19.9999 24.6025 19.9999 20.0001C19.9999 15.3977 23.7309 11.6667 28.3333 11.6667" stroke="black" stroke-width="3.33333" stroke-linecap="round" stroke-linejoin="round"/>
</svg>
