<svg width="40" height="40" viewBox="0 0 40 40" fill="none" xmlns="http://www.w3.org/2000/svg">
<path opacity="0.12" d="M26.0522 12.7189C25.3922 12.0588 25.0622 11.7288 24.9385 11.3483C24.8298 11.0135 24.8298 10.653 24.9385 10.3182C25.0622 9.93768 25.3922 9.60766 26.0522 8.94763L30.7828 4.21701C29.5275 3.64929 28.1339 3.33325 26.6666 3.33325C21.1438 3.33325 16.6666 7.8104 16.6666 13.3333C16.6666 14.1517 16.7649 14.9471 16.9504 15.7084C17.149 16.5237 17.2483 16.9313 17.2306 17.1888C17.2122 17.4584 17.172 17.6018 17.0477 17.8418C16.9289 18.071 16.7014 18.2985 16.2463 18.7536L5.83326 29.1666C4.45255 30.5473 4.45255 32.7859 5.83326 34.1666C7.21398 35.5473 9.45255 35.5473 10.8333 34.1666L21.2463 23.7536C21.7014 23.2985 21.9289 23.071 22.1581 22.9522C22.398 22.8279 22.5414 22.7877 22.8111 22.7692C23.0686 22.7516 23.4762 22.8509 24.2915 23.0495C25.0528 23.2349 25.8482 23.3333 26.6666 23.3333C32.1894 23.3333 36.6666 18.8561 36.6666 13.3333C36.6666 11.8659 36.3506 10.4724 35.7828 9.21701L31.0522 13.9476C30.3922 14.6077 30.0622 14.9377 29.6816 15.0613C29.3469 15.1701 28.9863 15.1701 28.6516 15.0613C28.271 14.9377 27.941 14.6077 27.281 13.9476L26.0522 12.7189Z" fill="black"/>
<path d="M26.0522 12.7189C25.3922 12.0588 25.0622 11.7288 24.9385 11.3483C24.8298 11.0135 24.8298 10.653 24.9385 10.3182C25.0622 9.93768 25.3922 9.60766 26.0522 8.94763L30.7828 4.21701C29.5275 3.64929 28.1339 3.33325 26.6666 3.33325C21.1438 3.33325 16.6666 7.8104 16.6666 13.3333C16.6666 14.1517 16.7649 14.9471 16.9504 15.7084C17.149 16.5237 17.2483 16.9313 17.2306 17.1888C17.2122 17.4584 17.172 17.6018 17.0477 17.8418C16.9289 18.071 16.7014 18.2985 16.2463 18.7536L5.83326 29.1666C4.45255 30.5473 4.45255 32.7859 5.83326 34.1666C7.21398 35.5473 9.45255 35.5473 10.8333 34.1666L21.2463 23.7536C21.7014 23.2985 21.9289 23.071 22.1581 22.9522C22.398 22.8279 22.5414 22.7877 22.8111 22.7692C23.0686 22.7516 23.4762 22.8509 24.2915 23.0495C25.0528 23.2349 25.8482 23.3333 26.6666 23.3333C32.1894 23.3333 36.6666 18.8561 36.6666 13.3333C36.6666 11.8659 36.3506 10.4724 35.7828 9.21701L31.0522 13.9476C30.3922 14.6077 30.0622 14.9377 29.6816 15.0613C29.3469 15.1701 28.9863 15.1701 28.6516 15.0613C28.271 14.9377 27.941 14.6077 27.281 13.9476L26.0522 12.7189Z" stroke="black" stroke-width="3.33333" stroke-linecap="round" stroke-linejoin="round"/>
</svg>
