<svg width="40" height="40" viewBox="0 0 40 40" fill="none" xmlns="http://www.w3.org/2000/svg">
<path d="M21.5218 28.3333H33.4783M21.5218 28.3333L18.3334 35M21.5218 28.3333L26.2972 18.3484C26.682 17.5438 26.8744 17.1415 27.1377 17.0144C27.3666 16.9038 27.6335 16.9038 27.8624 17.0144C28.1257 17.1415 28.3181 17.5438 28.7029 18.3484L33.4783 28.3333M33.4783 28.3333L36.6667 35M3.33337 8.33333H13.3334M13.3334 8.33333H19.1667M13.3334 8.33333V5M19.1667 8.33333H23.3334M19.1667 8.33333C18.3398 13.2621 16.421 17.727 13.6093 21.474M16.6667 23.3333C15.6458 22.8747 14.6045 22.2368 13.6093 21.474M13.6093 21.474C11.3551 19.7463 9.33798 17.3777 8.33337 15M13.6093 21.474C10.9348 25.0382 7.45243 27.953 3.33337 30" stroke="black" stroke-width="3.33333" stroke-linecap="round" stroke-linejoin="round"/>
</svg>
