<svg width="40" height="40" viewBox="0 0 40 40" fill="none" xmlns="http://www.w3.org/2000/svg">
<path opacity="0.12" d="M31.6667 28.6667V10H8.33337V28.6667C8.33337 31.4669 8.33337 32.8671 8.87834 33.9366C9.35771 34.8774 10.1226 35.6423 11.0634 36.1217C12.133 36.6667 13.5331 36.6667 16.3334 36.6667H23.6667C26.467 36.6667 27.8671 36.6667 28.9367 36.1217C29.8775 35.6423 30.6424 34.8774 31.1217 33.9366C31.6667 32.8671 31.6667 31.4669 31.6667 28.6667Z" fill="black"/>
<path d="M26.6667 9.99992V8.66659C26.6667 6.79974 26.6667 5.86632 26.3034 5.15328C25.9838 4.52608 25.4738 4.01614 24.8466 3.69656C24.1336 3.33325 23.2002 3.33325 21.3333 3.33325H18.6667C16.7998 3.33325 15.8664 3.33325 15.1534 3.69656C14.5262 4.01614 14.0162 4.52608 13.6966 5.15328C13.3333 5.86632 13.3333 6.79974 13.3333 8.66659V9.99992M16.6667 19.1666V27.4999M23.3333 19.1666V27.4999M5 9.99992H35M31.6667 9.99992V28.6666C31.6667 31.4668 31.6667 32.867 31.1217 33.9365C30.6423 34.8774 29.8774 35.6423 28.9366 36.1216C27.8671 36.6666 26.4669 36.6666 23.6667 36.6666H16.3333C13.5331 36.6666 12.1329 36.6666 11.0634 36.1216C10.1226 35.6423 9.35767 34.8774 8.8783 33.9365C8.33333 32.867 8.33333 31.4668 8.33333 28.6666V9.99992" stroke="black" stroke-width="3.33333" stroke-linecap="round" stroke-linejoin="round"/>
</svg>
