<svg width="40" height="40" viewBox="0 0 40 40" fill="none" xmlns="http://www.w3.org/2000/svg">
<path opacity="0.12" d="M28.3338 5.56629C25.1451 3.72534 18.8293 8.69517 14.2269 16.6667L25.7739 23.3334C30.3763 15.3618 31.5224 7.40724 28.3338 5.56629Z" fill="black"/>
<path d="M10.4167 36.5988L20 20M28.3334 5.56626C21.1447 1.4159 12.1494 3.22939 7.07671 9.47158C6.58159 10.0808 6.33403 10.3855 6.26201 10.8219C6.20471 11.1692 6.2896 11.6294 6.46701 11.9334C6.69 12.3155 7.08523 12.5436 7.87569 13L32.1244 27C32.9149 27.4564 33.3101 27.6846 33.7524 27.6867C34.1044 27.6883 34.5454 27.5317 34.8175 27.3085C35.1595 27.0279 35.2995 26.6612 35.5796 25.9277C38.4491 18.4135 35.522 9.71662 28.3334 5.56626ZM28.3334 5.56626C25.1448 3.72531 18.8289 8.69514 14.2265 16.6667M28.3334 5.56626C31.522 7.40721 30.3759 15.3618 25.7735 23.3334M36.6667 36.6667H3.33337" stroke="black" stroke-width="3.33333" stroke-linecap="round" stroke-linejoin="round"/>
</svg>
