<svg width="40" height="40" viewBox="0 0 40 40" fill="none" xmlns="http://www.w3.org/2000/svg">
<path opacity="0.12" d="M20 36.6666C29.2048 36.6666 36.6667 29.2047 36.6667 19.9999C36.6667 10.7952 29.2048 3.33325 20 3.33325C10.7953 3.33325 3.33337 10.7952 3.33337 19.9999C3.33337 29.2047 10.7953 36.6666 20 36.6666Z" fill="black"/>
<path d="M26.6667 19.9999L20 13.3333M20 13.3333L13.3334 19.9999M20 13.3333V28.6666C20 30.9844 20 32.1434 20.9176 33.4409C21.5272 34.3031 23.2824 35.3671 24.3287 35.5089C25.9036 35.7223 26.5016 35.4103 27.6977 34.7864C33.0278 32.0059 36.6667 26.4278 36.6667 19.9999C36.6667 10.7952 29.2048 3.33325 20 3.33325C10.7953 3.33325 3.33337 10.7952 3.33337 19.9999C3.33337 26.1689 6.68503 31.5551 11.6667 34.4369" stroke="black" stroke-width="3.33333" stroke-linecap="round" stroke-linejoin="round"/>
</svg>
