<svg width="40" height="40" viewBox="0 0 40 40" fill="none" xmlns="http://www.w3.org/2000/svg">
<path opacity="0.12" d="M16.6667 20C20.8089 20 24.1667 16.6421 24.1667 12.5C24.1667 8.35786 20.8089 5 16.6667 5C12.5246 5 9.16675 8.35786 9.16675 12.5C9.16675 16.6421 12.5246 20 16.6667 20Z" fill="black"/>
<path d="M19.9999 25.8333H12.4999C10.174 25.8333 9.01101 25.8333 8.06468 26.1204C5.93401 26.7667 4.26665 28.4341 3.62032 30.5648C3.33325 31.5111 3.33325 32.6741 3.33325 35M31.6666 35V25M26.6666 30H36.6666M24.1666 12.5C24.1666 16.6421 20.8087 20 16.6666 20C12.5244 20 9.16659 16.6421 9.16659 12.5C9.16659 8.35786 12.5244 5 16.6666 5C20.8087 5 24.1666 8.35786 24.1666 12.5Z" stroke="black" stroke-width="3.33333" stroke-linecap="round" stroke-linejoin="round"/>
</svg>
