<svg width="40" height="40" viewBox="0 0 40 40" fill="none" xmlns="http://www.w3.org/2000/svg">
<g opacity="0.12">
<path d="M31.1396 32.3974C28.1876 35.0517 24.2825 36.6667 20.0001 36.6667C15.7178 36.6667 11.8126 35.0517 8.8606 32.3974C9.87447 30.0088 12.2416 28.3334 15.0001 28.3334H25.0001C27.7586 28.3334 30.1257 30.0088 31.1396 32.3974Z" fill="black"/>
<path d="M19.9999 22.5001C23.6818 22.5001 26.6666 19.5153 26.6666 15.8334C26.6666 12.1515 23.6818 9.16675 19.9999 9.16675C16.318 9.16675 13.3333 12.1515 13.3333 15.8334C13.3333 19.5153 16.318 22.5001 19.9999 22.5001Z" fill="black"/>
</g>
<path d="M8.86041 32.3973C9.87429 30.0086 12.2415 28.3333 14.9999 28.3333H24.9999C27.7584 28.3333 30.1255 30.0086 31.1394 32.3973M26.6666 15.8333C26.6666 19.5152 23.6818 22.4999 19.9999 22.4999C16.318 22.4999 13.3333 19.5152 13.3333 15.8333C13.3333 12.1514 16.318 9.16659 19.9999 9.16659C23.6818 9.16659 26.6666 12.1514 26.6666 15.8333ZM36.6666 19.9999C36.6666 29.2047 29.2047 36.6666 19.9999 36.6666C10.7952 36.6666 3.33325 29.2047 3.33325 19.9999C3.33325 10.7952 10.7952 3.33325 19.9999 3.33325C29.2047 3.33325 36.6666 10.7952 36.6666 19.9999Z" stroke="black" stroke-width="3.33333" stroke-linecap="round" stroke-linejoin="round"/>
</svg>
