<svg width="40" height="40" viewBox="0 0 40 40" fill="none" xmlns="http://www.w3.org/2000/svg">
<path opacity="0.12" d="M15.8334 20C19.9755 20 23.3334 16.6421 23.3334 12.5C23.3334 8.35786 19.9755 5 15.8334 5C11.6912 5 8.33337 8.35786 8.33337 12.5C8.33337 16.6421 11.6912 20 15.8334 20Z" fill="black"/>
<path d="M26.6667 5.7796C29.1362 7.00685 30.8334 9.55523 30.8334 12.5C30.8334 15.4448 29.1362 17.9931 26.6667 19.2204M30 27.944C32.5191 29.0839 34.7876 30.9416 36.6667 33.3333M3.33337 33.3333C6.57753 29.2043 10.982 26.6667 15.8334 26.6667C20.6847 26.6667 25.0892 29.2043 28.3334 33.3333M23.3334 12.5C23.3334 16.6421 19.9755 20 15.8334 20C11.6912 20 8.33337 16.6421 8.33337 12.5C8.33337 8.35786 11.6912 5 15.8334 5C19.9755 5 23.3334 8.35786 23.3334 12.5Z" stroke="black" stroke-width="3.33333" stroke-linecap="round" stroke-linejoin="round"/>
</svg>
