<svg width="40" height="40" viewBox="0 0 40 40" fill="none" xmlns="http://www.w3.org/2000/svg">
<path opacity="0.12" d="M15.8333 18.3333C19.5152 18.3333 22.5 15.3486 22.5 11.6667C22.5 7.98477 19.5152 5 15.8333 5C12.1514 5 9.16663 7.98477 9.16663 11.6667C9.16663 15.3486 12.1514 18.3333 15.8333 18.3333Z" fill="black"/>
<path d="M26.6667 30L30 33.3333L36.6667 26.6667M20 25H13.3334C10.2271 25 8.67396 25 7.44882 25.5075C5.8153 26.1841 4.51747 27.4819 3.84084 29.1154C3.33337 30.3406 3.33337 31.8937 3.33337 35M25.8334 5.4846C28.2766 6.47358 30 8.86885 30 11.6667C30 14.4645 28.2766 16.8598 25.8334 17.8487M22.5 11.6667C22.5 15.3486 19.5153 18.3333 15.8334 18.3333C12.1515 18.3333 9.16671 15.3486 9.16671 11.6667C9.16671 7.98477 12.1515 5 15.8334 5C19.5153 5 22.5 7.98477 22.5 11.6667Z" stroke="black" stroke-width="3.33333" stroke-linecap="round" stroke-linejoin="round"/>
</svg>
