<svg width="40" height="40" viewBox="0 0 40 40" fill="none" xmlns="http://www.w3.org/2000/svg">
<path opacity="0.12" d="M3.33337 20.8333H9.2445C10.1448 20.8333 10.595 20.8333 11.0303 20.9108C11.4166 20.9797 11.7935 21.0938 12.1532 21.2508C12.5584 21.4277 12.933 21.6774 13.6821 22.1768L14.6513 22.823C15.4004 23.3224 15.775 23.5721 16.1802 23.749C16.5399 23.906 16.9168 24.0201 17.3031 24.089C17.7384 24.1666 18.1886 24.1666 19.0889 24.1666H20.9112C21.8115 24.1666 22.2616 24.1666 22.6969 24.089C23.0833 24.0201 23.4602 23.906 23.8199 23.749C24.2251 23.5721 24.5997 23.3224 25.3488 22.823L26.318 22.1768C27.0671 21.6774 27.4416 21.4277 27.8469 21.2508C28.2065 21.0938 28.5835 20.9797 28.9698 20.9108C29.4051 20.8333 29.8553 20.8333 30.7556 20.8333H36.6667V27.9999C36.6667 29.8668 36.6667 30.8002 36.3034 31.5132C35.9838 32.1404 35.4739 32.6504 34.8467 32.9699C34.1336 33.3333 33.2002 33.3333 31.3334 33.3333H8.66671C6.79987 33.3333 5.86644 33.3333 5.15341 32.9699C4.5262 32.6504 4.01626 32.1404 3.69669 31.5132C3.33337 30.8002 3.33337 29.8668 3.33337 27.9999V20.8333Z" fill="black"/>
<path d="M36.6667 14.1667H3.33337M3.33337 20.8334H9.2445C10.1448 20.8334 10.595 20.8334 11.0303 20.911C11.4166 20.9799 11.7935 21.094 12.1532 21.251C12.5584 21.4279 12.933 21.6776 13.6821 22.177L14.6513 22.8232C15.4004 23.3226 15.775 23.5723 16.1802 23.7492C16.5399 23.9062 16.9168 24.0203 17.3031 24.0892C17.7384 24.1667 18.1886 24.1667 19.0889 24.1667H20.9112C21.8115 24.1667 22.2616 24.1667 22.6969 24.0892C23.0833 24.0203 23.4602 23.9062 23.8199 23.7492C24.2251 23.5723 24.5997 23.3226 25.3488 22.8232L26.318 22.177C27.0671 21.6776 27.4416 21.4279 27.8469 21.251C28.2065 21.094 28.5835 20.9799 28.9698 20.911C29.4051 20.8334 29.8553 20.8334 30.7556 20.8334H36.6667M3.33337 12.0001L3.33337 28.0001C3.33337 29.8669 3.33337 30.8003 3.69669 31.5134C4.01626 32.1406 4.5262 32.6505 5.15341 32.9701C5.86644 33.3334 6.79987 33.3334 8.66671 33.3334L31.3334 33.3334C33.2002 33.3334 34.1336 33.3334 34.8467 32.9701C35.4739 32.6505 35.9838 32.1406 36.3034 31.5134C36.6667 30.8003 36.6667 29.8669 36.6667 28.0001V12.0001C36.6667 10.1332 36.6667 9.19982 36.3034 8.48678C35.9838 7.85958 35.4739 7.34964 34.8467 7.03006C34.1336 6.66675 33.2002 6.66675 31.3334 6.66675L8.66671 6.66675C6.79987 6.66675 5.86645 6.66675 5.15341 7.03006C4.5262 7.34964 4.01626 7.85957 3.69669 8.48678C3.33337 9.19982 3.33337 10.1332 3.33337 12.0001Z" stroke="black" stroke-width="3.33333" stroke-linecap="round" stroke-linejoin="round"/>
</svg>
