<svg width="40" height="40" viewBox="0 0 40 40" fill="none" xmlns="http://www.w3.org/2000/svg">
<path opacity="0.12" d="M20 22.8125C22.934 22.8125 25.3125 20.434 25.3125 17.5C25.3125 14.566 22.934 12.1875 20 12.1875C17.066 12.1875 14.6875 14.566 14.6875 17.5C14.6875 20.434 17.066 22.8125 20 22.8125Z" fill="black"/>
<path d="M13.3334 36.6666H26.6667M34.1667 17.4999C34.1667 25.324 27.8241 31.6666 20 31.6666C12.176 31.6666 5.83337 25.324 5.83337 17.4999C5.83337 9.67588 12.176 3.33325 20 3.33325C27.8241 3.33325 34.1667 9.67588 34.1667 17.4999ZM25.3125 17.4999C25.3125 20.4339 22.9341 22.8124 20 22.8124C17.066 22.8124 14.6875 20.4339 14.6875 17.4999C14.6875 14.5659 17.066 12.1874 20 12.1874C22.9341 12.1874 25.3125 14.5659 25.3125 17.4999Z" stroke="black" stroke-width="3.33333" stroke-linecap="round" stroke-linejoin="round"/>
</svg>
