<svg width="40" height="40" viewBox="0 0 40 40" fill="none" xmlns="http://www.w3.org/2000/svg">
<path d="M25.5199 16.6667C27.8004 17.3772 29.9372 18.5318 31.8 20.0834M37.6332 14.1666C32.7625 9.87323 26.4927 7.50437 19.9998 7.50437C18.9915 7.50437 17.9885 7.56151 16.9953 7.67411M14.2163 26.0167C15.9083 24.8146 17.9324 24.1688 20.0079 24.1688C22.0835 24.1688 24.1076 24.8146 25.7996 26.0167M20 32.5H20.0166M1.98889 14.5013C4.21157 12.4645 6.78061 10.7996 9.59747 9.6051M7.88652 20.4049C10.2155 18.3533 13.0695 16.8836 16.221 16.2232M26.1638 26.2918C24.4653 24.9604 22.3252 24.1667 19.9998 24.1667C17.6391 24.1667 15.4695 24.9846 13.7589 26.3526M4.99996 5L35 35" stroke="black" stroke-width="3.33333" stroke-linecap="round" stroke-linejoin="round"/>
</svg>
