<svg width="40" height="40" viewBox="0 0 40 40" fill="none" xmlns="http://www.w3.org/2000/svg">
<path opacity="0.12" d="M28.3333 5L17.3392 20.3917C16.8526 21.0729 16.6093 21.4136 16.6198 21.6975C16.629 21.9448 16.7476 22.1752 16.9434 22.3264C17.1684 22.5 17.587 22.5 18.4242 22.5H26.6666L24.9999 35L35.994 19.6083C36.4806 18.9271 36.7239 18.5864 36.7134 18.3025C36.7042 18.0552 36.5856 17.8248 36.3898 17.6736C36.1648 17.5 35.7462 17.5 34.909 17.5H26.6666L28.3333 5Z" fill="black"/>
<path d="M15 29.1667H5.83337M10.8334 20H3.33337M15 10.8333H6.66671M28.3334 5L17.3393 20.3917C16.8527 21.0729 16.6094 21.4136 16.6199 21.6975C16.6291 21.9448 16.7477 22.1752 16.9435 22.3264C17.1685 22.5 17.5871 22.5 18.4243 22.5H26.6667L25 35L35.9941 19.6083C36.4807 18.9271 36.724 18.5864 36.7135 18.3025C36.7043 18.0552 36.5857 17.8248 36.3899 17.6736C36.1649 17.5 35.7463 17.5 34.9091 17.5H26.6667L28.3334 5Z" stroke="black" stroke-width="3.33333" stroke-linecap="round" stroke-linejoin="round"/>
</svg>
